<svg width="3184" height="741" viewBox="0 0 3184 741" fill="none" xmlns="http://www.w3.org/2000/svg">
<path d="M617.932 1.06445V21.9489C599.457 25.4518 585.276 32.103 575.39 41.9023C565.504 51.7016 558.871 66.6555 555.49 86.764C552.11 106.939 550.419 135.461 550.419 172.33V741H494.906L88.7982 201.429V552.042C88.7982 594.498 90.6556 627.022 94.3702 649.614C98.0849 672.206 106.408 688.379 119.341 698.134C132.293 707.889 152.645 714.85 180.397 719.018V739.87H0V718.985C19.6543 714.795 34.2968 708.011 43.9274 698.633C53.558 689.255 59.8867 674.301 62.9135 653.771C65.9796 633.241 67.5224 604.885 67.5421 568.703V111.672C67.5421 85.9326 65.9992 66.9769 62.9135 54.8054C61.6601 49.2162 59.244 44.0443 55.8653 39.7184C52.4866 35.3925 48.2427 32.0371 43.4852 29.9303C33.6187 25.2967 19.1237 22.6362 0 21.9489V1.06445H161.883L529.134 474.79V188.792C529.134 146.358 527.434 113.834 524.033 91.2202C520.633 68.6065 512.624 52.2891 500.006 42.2681C487.368 32.1806 466.554 25.4075 437.564 21.9489V1.06445H617.932Z" fill="#161616"/>
<path d="M671.59 739.836V718.985C690.694 717.588 705.032 714.806 714.603 710.638C719.366 708.494 723.611 705.106 726.988 700.753C730.365 696.4 732.779 691.206 734.032 685.596C737.392 673.048 739.083 654.259 739.102 629.228V111.672C739.102 85.9326 737.412 66.9769 734.032 54.8054C732.679 49.2679 730.227 44.1503 726.861 39.8404C723.495 35.5306 719.303 32.1416 714.603 29.9303C705.032 25.4962 690.694 22.8912 671.59 22.1152V1.06445C688.247 1.76282 956.794 1.76282 974.07 1.06445V21.9489C954.966 22.6362 940.471 25.2412 930.585 29.764C925.812 31.8841 921.559 35.2646 918.184 39.6218C914.808 43.979 912.409 49.1858 911.186 54.8054C908.1 67.0434 906.557 85.9991 906.557 111.672V629.228C906.557 654.259 908.248 673.048 911.628 685.596C912.881 691.206 915.295 696.4 918.672 700.753C922.049 705.106 926.293 708.494 931.056 710.638C940.608 714.806 954.946 717.588 974.07 718.985V739.836H671.59ZM837.276 378.814V357.93H1202.85V378.814H837.276ZM1065.79 739.836V718.985C1084.89 717.588 1099.23 714.806 1108.8 710.638C1118.37 706.47 1124.85 698.123 1128.23 685.596C1131.59 673.048 1133.28 654.259 1133.3 629.228V111.672C1133.3 85.9326 1131.61 66.9769 1128.23 54.8054C1126.86 49.2577 1124.39 44.1349 1121 39.825C1117.61 35.5152 1113.4 32.1315 1108.68 29.9303C1099.11 25.4962 1084.77 22.8912 1065.67 22.1152V1.06445C1083.53 1.76282 1352.11 1.76282 1368.15 1.06445V21.9489C1349.01 22.6362 1334.51 25.2412 1324.66 29.764C1319.89 31.8821 1315.63 35.2614 1312.25 39.6185C1308.87 43.9756 1306.46 49.1835 1305.24 54.8054C1302.13 66.9769 1300.59 85.9326 1300.61 111.672V629.228C1300.61 654.259 1302.31 673.048 1305.71 685.596C1306.95 691.213 1309.36 696.414 1312.73 700.77C1316.11 705.125 1320.36 708.508 1325.14 710.638C1334.69 714.806 1349.03 717.588 1368.15 718.985V739.836H1065.79Z" fill="#161616"/>
<path d="M1931.51 1.06445V238.975H1906.51C1899.73 184.724 1888.78 141.946 1873.67 110.641C1858.55 79.3369 1840.06 57.2441 1818.18 44.3632C1795.73 31.3519 1770.81 24.7302 1745.57 25.075H1720.57C1703.32 25.075 1690.35 26.638 1681.74 29.764C1677.68 31.0887 1673.97 33.5518 1670.98 36.9242C1667.98 40.2965 1665.79 44.4686 1664.61 49.0522C1661.84 58.8293 1660.46 74.0936 1660.46 94.9781V645.923C1660.46 666.12 1661.84 681.251 1664.61 691.316C1665.71 696.023 1667.86 700.331 1670.86 703.826C1673.86 707.322 1677.61 709.885 1681.74 711.27C1690.35 714.429 1703.32 715.992 1720.57 715.992H1758.51C1782.77 715.923 1806.57 708.528 1827.44 694.576C1849.31 680.342 1868.89 655.955 1886.17 621.413C1903.44 586.872 1916.43 540.092 1925.14 481.075H1950.11V739.836C1950.11 739.836 1460.13 738.473 1425.61 739.836V718.985C1444.71 717.588 1459.05 714.806 1468.62 710.638C1473.38 708.494 1477.63 705.106 1481 700.753C1484.38 696.4 1486.8 691.206 1488.05 685.596C1491.45 673.048 1493.15 654.259 1493.15 629.228V111.672C1493.15 85.9326 1491.45 66.9769 1488.05 54.8054C1486.68 49.2545 1484.21 44.1284 1480.83 39.8176C1477.44 35.5068 1473.22 32.1251 1468.5 29.9303C1458.93 25.4962 1444.59 22.8912 1425.49 22.1152V1.06445H1931.51ZM1791.8 357.93V378.814H1632.6V357.93H1791.8ZM1821.42 220.185V516.559H1800.14C1797.31 492.486 1790.72 469.168 1780.68 447.686C1771.36 427.49 1757.69 410.266 1740.91 397.604C1724.26 385.055 1703.91 378.792 1679.85 378.814V357.93C1703.91 357.93 1723.95 350.458 1739.97 335.515C1755.93 320.601 1768.97 302.123 1778.29 281.242C1787.22 262.043 1793.61 241.472 1797.25 220.185H1821.42Z" fill="#161616"/>
<path d="M2507.81 1.06445V21.9489L2210.05 715.859H2276.65C2297.59 715.518 2318.35 711.467 2338.18 703.854C2361.43 695.03 2383.18 681.792 2402.48 664.712C2424.77 644.874 2443.32 620.215 2457.05 592.182C2472.48 561.919 2482.3 524.23 2486.53 479.113H2511.5V739.969H2025.85V718.985L2324.65 25.075H2251.56C2222.9 25.3338 2194.58 32.1206 2168.31 45.0283C2140.55 58.3305 2116.51 80.7669 2096.17 112.337C2075.82 143.908 2062.25 188.249 2055.45 245.36H2030.48V1.06445H2507.81Z" fill="#161616"/>
<path d="M3156.76 703.288C3146.52 693.622 3136.79 676.595 3127.57 652.208L2903.69 0H2844.34L2786.27 169.204L2936.06 631.29C2948.44 666.763 2950.31 689.908 2941.66 700.728C2933.01 711.547 2912.96 717.632 2881.49 718.985V739.803H3184V718.985C3175.98 718.32 3166.93 713.065 3156.76 703.288Z" fill="#161616"/>
<path d="M2749.5 397.038L2739.63 409.808L2717.01 399.066L2712.68 381.541L2658.46 388.192L2634.61 457.164L2657.7 504.12L2700.53 503.588L2727.36 557.23L2718.52 566.807L2755.02 651.243C2755.02 651.243 2804.9 574.755 2805.31 571.795C2804.72 560.027 2803.43 548.317 2801.45 536.744C2801.45 536.511 2837.92 483.934 2837.86 480.21C2837.62 479.279 2818.55 482.704 2818.19 482.538C2817.84 482.371 2782.82 407.613 2782.82 407.58C2782.82 407.546 2749.5 397.071 2749.5 397.038Z" fill="#161616"/>
</svg>
