<svg width="3006" height="1457" viewBox="0 0 3006 1457" fill="none" xmlns="http://www.w3.org/2000/svg">
<path d="M0.585938 1215.87V890.567H192.886C279.17 890.567 326.486 939.81 326.486 998.813C326.486 1057.32 279.17 1106.57 192.886 1106.57H99.6169V1215.8L0.585938 1215.87ZM225.702 998.884C225.702 976.443 206.219 963.761 179.666 963.761H99.6169V1033.49H179.666C206.135 1033.49 225.702 1020.83 225.702 998.884Z" fill="#020074"/>
<path d="M584.947 1215.87L520.485 1106.64H469.828V1215.87H370.77V890.567H563.07C648.268 890.567 696.67 938.349 696.67 998.813C696.67 1055.39 655.783 1085.61 620.073 1096.33L698.396 1215.8L584.947 1215.87ZM595.885 998.389C595.885 976.443 574.008 963.761 548.096 963.761H469.8V1033.49H548.096C574.008 1033.49 595.885 1021.33 595.885 998.389Z" fill="#020074"/>
<path d="M751.305 1215.85H1032.81V1142.77H751.305V1215.85ZM751.305 890.543V963.737H1032.81V890.614L751.305 890.543ZM1026.58 1014.4H751.305V1087.59H1026.58V1014.4Z" fill="#020074"/>
<path d="M1070.78 1053.6C1070.78 953.153 1160.6 885.357 1278.64 885.357C1371.32 885.357 1420.84 929.745 1446.19 972.577L1361.05 1006.69C1348.39 980.757 1315.57 959.376 1278.72 959.376C1215.96 959.376 1171.62 1000.35 1171.62 1053.5C1171.62 1106.66 1215.96 1147.61 1278.72 1147.61C1315.57 1147.61 1348.3 1126.15 1361.05 1100.29L1446.28 1134.45C1421.51 1176.36 1371.41 1221.67 1278.72 1221.67C1160.65 1221.72 1070.78 1153.45 1070.78 1053.6Z" fill="#020074"/>
<path d="M1488.72 1215.87V890.567H1587.75V1215.87H1488.72Z" fill="#020074"/>
<path d="M1629.2 1170.02L1681.58 1107.13C1714.13 1134.63 1758.23 1150.07 1804.21 1150.06C1838.2 1150.06 1858.9 1138.84 1858.9 1123.23C1858.9 1078.84 1641.27 1114.44 1641.27 989.125C1641.27 934.507 1696 885.758 1794.36 885.758C1855.95 885.758 1909.5 901.363 1950.39 931.112L1896.26 991.082C1864.42 969.483 1824.9 957.629 1784.12 957.443C1755.31 957.443 1742.64 967.179 1742.64 980.851C1742.64 1022.29 1959.74 992.048 1959.74 1112.98C1959.74 1178.32 1902.74 1221.72 1799.67 1221.72C1721.88 1221.72 1667.77 1201.23 1629.2 1170.02Z" fill="#020074"/>
<path d="M2005.7 1215.87V890.567H2104.73V1215.87H2005.7Z" fill="#020074"/>
<path d="M2154.3 1053.6C2154.3 954.591 2242.39 885.357 2359.85 885.357C2477.31 885.357 2564.73 954.591 2564.73 1053.6C2564.73 1152.6 2477.17 1221.72 2359.77 1221.72C2242.37 1221.72 2154.3 1152.6 2154.3 1053.6ZM2464.06 1053.6C2464.06 1000.44 2423.17 959.47 2359.85 959.47C2295.83 959.47 2255.06 1000.44 2255.06 1053.6C2255.06 1106.26 2295.94 1147.7 2359.85 1147.7C2423.09 1147.61 2463.97 1106.16 2463.97 1053.6H2464.06Z" fill="#020074"/>
<path d="M2876.16 1215.87L2713.75 1027.67V1215.87H2614.78V890.567H2716.68L2872.12 1069.51V890.637H2971.74V1215.94L2876.16 1215.87Z" fill="#020074"/>
<path d="M29.7817 1419.12C31.229 1429.42 43.921 1436.19 60.3983 1436.19C76.8757 1436.19 88.2317 1429.51 88.2317 1420.32C88.2317 1412.19 81.162 1407.66 63.3487 1404.29L44.1158 1400.73C16.867 1395.78 3.47917 1384.09 3.47917 1365.8C3.47917 1342.74 26.9983 1327.49 59.9808 1327.49C94.355 1327.49 115.954 1342.48 116.482 1365.21H87.3132C86.2833 1354.62 75.3448 1348.21 59.8695 1348.21C44.3942 1348.21 34.402 1354.36 34.402 1363.63C34.402 1371.36 41.5552 1375.67 58.5613 1378.97L76.4582 1382.18C106.045 1387.55 118.932 1398.3 118.932 1417.37C118.932 1441.65 95.691 1457 59.0623 1457C23.547 1456.91 0.9185 1442.55 0 1419.12H29.7817Z" fill="#020074"/>
<path d="M421.705 1329.66C451.988 1329.66 472.863 1346.73 472.863 1372.47C472.863 1398.21 451.264 1415.3 420.146 1415.3H390.977V1454.74H360.082V1329.66H421.705ZM391.088 1394.84H413.522C431.224 1394.84 441.55 1386.87 441.55 1372.56C441.55 1358.25 431.335 1350.36 413.717 1350.36H391.2L391.088 1394.84Z" fill="#020074"/>
<path d="M851.174 1392.22C851.174 1432.04 823.647 1456.91 779.921 1456.91C736.195 1456.91 708.695 1432.04 708.695 1392.22C708.695 1352.41 736.111 1327.49 779.921 1327.49C823.73 1327.49 851.174 1352.36 851.174 1392.22ZM740.231 1392.22C740.231 1418.41 755.678 1434.98 779.921 1434.98C804.164 1434.98 819.556 1418.48 819.556 1392.22C819.556 1365.96 804.08 1349.32 779.921 1349.32C755.761 1349.32 740.37 1365.96 740.37 1392.22H740.231Z" fill="#020074"/>
<path d="M1124.14 1454.74H1093.24V1329.66H1154.23C1188.21 1329.66 1207.67 1344.82 1207.67 1369.52C1207.67 1385.55 1197.84 1399.43 1180.86 1405.07L1211.95 1454.74H1176.96L1149.52 1408.96H1124.22L1124.14 1454.74ZM1124.14 1389.98H1151.27C1166.83 1389.98 1175.93 1382.44 1175.93 1370.04C1175.93 1357.64 1166.3 1350.12 1150.88 1350.12H1124.05L1124.14 1389.98Z" fill="#020074"/>
<path d="M1485.96 1454.74V1351.23H1442.77V1329.66H1560.17V1351.23H1516.91V1454.74H1485.96Z" fill="#020074"/>
<path d="M1823.73 1419.12C1825.15 1429.42 1837.84 1436.19 1854.34 1436.19C1870.85 1436.19 1882.18 1429.51 1882.18 1420.32C1882.18 1412.19 1875.14 1407.66 1857.32 1404.29L1838.06 1400.73C1810.84 1395.78 1797.42 1384.09 1797.42 1365.8C1797.42 1342.74 1820.97 1327.49 1853.93 1327.49C1888.33 1327.49 1909.93 1342.48 1910.43 1365.21H1881.26C1880.23 1354.62 1869.26 1348.21 1853.81 1348.21C1838.37 1348.21 1828.32 1354.36 1828.32 1363.63C1828.32 1371.36 1835.5 1375.67 1852.48 1378.97L1870.4 1382.18C1899.99 1387.55 1912.88 1398.3 1912.88 1417.37C1912.88 1441.65 1889.64 1457 1853.01 1457C1817.46 1457 1794.86 1442.69 1793.95 1419.28L1823.73 1419.12Z" fill="#020074"/>
<path d="M2149.4 1392.15C2149.4 1351.84 2176.54 1327.49 2219.32 1327.49C2254.83 1327.49 2281.86 1346.56 2284.2 1374.64H2254.11C2253.06 1367.5 2248.92 1360.95 2242.49 1356.26C2236.06 1351.57 2227.8 1349.07 2219.32 1349.25C2195.96 1349.25 2180.93 1365.75 2180.93 1392.15C2180.93 1418.55 2195.77 1435.31 2219.43 1435.31C2237.74 1435.31 2250.93 1426.21 2254.22 1411.39H2284.31C2280.83 1439.32 2255.55 1457 2219.32 1457C2176.31 1456.91 2149.4 1432.55 2149.4 1392.15Z" fill="#020074"/>
<path d="M2605.9 1424.4H2554.01L2542.74 1454.74H2511.01L2562.31 1329.66H2598.49L2649.87 1454.74H2617.17L2605.9 1424.4ZM2560.67 1404.83H2599.24L2580.32 1353.61H2579.59L2560.67 1404.83Z" fill="#020074"/>
<path d="M2918.18 1454.74H2887.26V1329.66H2948.27C2982.26 1329.66 3001.71 1344.82 3001.71 1369.52C3001.71 1385.55 2991.89 1399.43 2974.88 1405.07L3006 1454.74H2970.98L2943.46 1408.96H2918.18V1454.74ZM2918.18 1389.98H2945.29C2960.85 1389.98 2969.98 1382.44 2969.98 1370.04C2969.98 1357.64 2960.35 1350.12 2944.93 1350.12H2918.13L2918.18 1389.98Z" fill="#020074"/>
<path d="M2332.43 157.827C2255.42 119.096 2104.84 64.36 1824.84 23.461C1611.87 -7.82033 1394.13 -7.82033 1181.16 23.461C901.161 64.36 750.583 119.096 673.568 157.827C653.97 167.768 637.562 181.642 625.794 198.225C614.025 214.808 607.258 233.589 606.089 252.912C604.92 272.234 609.385 291.503 619.09 309.018C628.796 326.533 643.443 341.755 661.739 353.34L1245.29 723.435C1278.85 744.634 1319.58 756.115 1361.44 756.177H1644.56C1686.43 756.115 1727.15 744.634 1760.71 723.435L2344.26 353.34C2362.56 341.755 2377.21 326.533 2386.91 309.018C2396.62 291.503 2401.08 272.234 2399.91 252.912C2398.75 233.589 2391.98 214.808 2380.21 198.225C2368.44 181.642 2352.03 167.768 2332.43 157.827ZM2325.11 175.766V342.355L2307.3 353.647V166.949C2312.22 169.259 2316.86 171.522 2321.22 173.738C2322.58 174.328 2323.83 175.082 2325.11 175.766ZM1809.42 669.359L1791.61 680.65V37.6047C1797.56 38.3748 1803.5 39.1605 1809.42 39.962V669.359ZM1831.43 43.0972C1837.41 43.993 1843.34 44.8966 1849.22 45.8081V644.159L1831.43 655.451V43.0972ZM1871.1 49.2497C1877.11 50.2162 1883.01 51.1827 1888.88 52.1728V619.007L1871.1 630.298V49.2497ZM1910.76 55.8973C1916.77 56.9345 1922.71 57.9874 1928.57 59.0561V593.925L1910.76 605.217V55.8973ZM1950.42 62.9692C1956.43 64.1007 1962.37 65.24 1968.24 66.3872V568.726L1950.42 579.994V62.9692ZM1990.08 70.819L2007.9 74.4963V543.597L1990.08 554.865V70.819ZM2029.75 79.2345C2035.79 80.5546 2041.72 81.8982 2047.56 83.2183V518.492L2029.75 529.783V79.2345ZM2069.44 88.3572C2075.47 89.7873 2081.4 91.241 2087.22 92.7182V493.269L2069.44 504.537V88.3572ZM2109.1 98.305C2115.17 99.8765 2121.1 101.448 2126.89 103.02V468.117L2109.1 479.408V98.305ZM2148.73 109.219C2154.82 110.964 2160.76 112.708 2166.55 114.452V443.059L2148.73 454.35V109.219ZM2188.43 121.241C2194.51 123.174 2200.44 125.107 2206.21 127.04V417.812L2188.43 429.104V121.241ZM2228.09 134.584C2234.24 136.776 2240.17 138.968 2245.9 141.113V392.66L2228.09 403.951V134.584ZM2267.75 149.647C2273.96 152.169 2279.91 154.644 2285.56 157.096V367.625L2267.75 378.917V149.647ZM1730.09 718.225C1724.34 721.024 1718.39 723.527 1712.28 725.721V28.4349C1718.21 29.0006 1724.14 29.6135 1730.09 30.2264V718.225ZM1690.4 732.204C1684.55 733.578 1678.61 734.696 1672.62 735.551V24.9932C1678.55 25.4647 1684.47 25.9361 1690.4 26.4548V732.204ZM1434.59 19.5007C1440.54 19.3122 1446.48 19.155 1452.4 19.0293V737.555H1434.59V19.5007ZM1412.74 737.555H1394.92V21.1037C1400.85 20.7973 1406.81 20.538 1412.74 20.3022V737.555ZM1474.25 18.7464C1480.21 18.6521 1486.14 18.5971 1492.06 18.5814V737.555H1474.25V18.7464ZM1513.94 18.5814C1519.88 18.5814 1525.81 18.6364 1531.73 18.7464V737.72H1513.94V18.5814ZM1553.6 19.1472C1559.54 19.2729 1565.47 19.43 1571.39 19.6186V737.555H1553.6V19.1472ZM1593.27 20.4201C1599.19 20.6558 1605.15 20.9151 1611.08 21.2216V737.555H1593.27V20.4201ZM1275.97 30.3443C1281.88 29.7157 1287.81 29.1185 1293.75 28.5527V725.839C1287.66 723.643 1281.72 721.148 1275.97 718.367V30.3443ZM1315.63 26.5726C1321.56 26.054 1327.48 25.5826 1333.41 25.1111V735.551C1327.42 734.696 1321.48 733.578 1315.63 732.204V26.5726ZM760.241 141.113C765.947 138.968 771.876 136.776 778.027 134.584V403.951L760.241 392.66V141.113ZM738.364 378.799L720.551 367.508V157.096C726.118 154.738 732.157 152.169 738.364 149.647V378.799ZM799.904 127.04C805.675 125.107 811.612 123.167 817.717 121.218V429.104L799.904 417.812V127.04ZM839.566 114.452C845.356 112.708 851.293 110.964 857.38 109.219V454.256L839.566 442.964V114.452ZM879.229 103.067C885.055 101.495 890.993 99.9236 897.042 98.3521V479.408L879.229 468.117V103.067ZM918.891 92.7182C924.736 91.2567 930.674 89.803 936.705 88.3572V504.56L918.891 493.269V92.7182ZM958.582 83.289C964.427 81.9689 970.355 80.6253 976.367 79.3052V529.689L958.582 518.492V83.289ZM998.244 74.567L1015.92 70.819V554.841L998.133 543.574L998.244 74.567ZM1037.91 66.5523C1043.79 65.405 1049.73 64.2657 1055.72 63.1342V579.994L1037.91 568.702V66.5523ZM1077.6 59.1032L1095.38 55.968V605.217L1077.6 593.925V59.1032ZM1117.26 52.2435L1135.04 49.3205V630.298L1117.26 619.007V52.2435ZM1156.92 45.8788C1162.79 44.9516 1168.72 44.048 1174.74 43.1679V655.451L1156.92 644.159V45.8788ZM1196.58 39.962C1202.5 39.1134 1208.44 38.3276 1214.4 37.6047V680.603L1196.58 669.311V39.962ZM698.618 166.949V353.647L680.805 342.355V175.766C682.057 175.082 683.338 174.398 684.646 173.738C689.099 171.522 693.757 169.259 698.618 166.949ZM627.727 258.884C627.759 233.847 638.895 209.734 658.928 191.324V326.349C638.989 307.96 627.89 283.921 627.81 258.954L627.727 258.884ZM1236.16 694.393V34.7053C1242.09 33.9745 1248.05 33.2909 1253.98 32.6073V705.755L1236.16 694.393ZM1355.18 737.366V23.461C1361.1 23.0681 1367.04 22.6909 1372.99 22.3295V737.555H1361.36C1359.38 737.555 1357.32 737.508 1355.26 737.437L1355.18 737.366ZM1632.87 737.484V22.2823L1650.66 23.4138V737.437C1648.6 737.437 1646.54 737.555 1644.48 737.555L1632.87 737.484ZM1751.86 705.684V32.6073C1757.79 33.2909 1763.74 33.9745 1769.67 34.7053V694.464L1751.86 705.684ZM2346.96 326.42V191.394C2367.04 209.764 2378.2 233.875 2378.2 258.907C2378.2 283.94 2367.04 308.05 2346.96 326.42Z" fill="#020074"/>
</svg>
