<svg width="470" height="470" viewBox="0 0 470 470" fill="none" xmlns="http://www.w3.org/2000/svg">
<g clip-path="url(#clip0_8585_13996)">
<g filter="url(#filter0_d_8585_13996)">
<path d="M453.334 409.678C417.343 451.505 317.744 467.023 222.667 462.919C137.68 459.259 56.3054 439.92 27.1691 409.678C-11.84 369.193 -27.6327 64.8398 112.676 64.8398C211.612 64.8307 193.096 206.17 260.985 208.6C282.991 209.385 302.708 196.43 323.967 185.535L367.354 190.396L433.636 197.82C485.08 252.584 472.418 387.502 453.334 409.678Z" fill="#2B00AC"/>
<path d="M202.697 208.6C214.638 209.026 225.906 205.402 237.111 200.261C195.978 169.555 197.84 64.8316 112.675 64.8398C102.096 64.8398 92.41 66.5812 83.5488 69.7978C150.244 94.8308 142.429 206.443 202.697 208.6Z" fill="#2B00AC"/>
<path d="M453.334 409.677C417.342 451.504 317.744 467.023 222.667 462.918C297.516 459.58 366.409 442.955 395.043 409.677C414.127 387.501 426.789 252.582 375.344 197.819C372.838 195.143 370.172 192.666 367.354 190.396L433.635 197.819C485.08 252.583 472.418 387.502 453.334 409.677Z" fill="#2B00AC"/>
<path d="M433.637 197.82C420.69 210.066 403.224 217.575 383.998 217.575C378.173 217.575 372.508 216.885 367.08 215.58V215.57C349.197 211.296 333.916 200.355 323.967 185.536C330.256 182.312 336.686 179.267 343.353 176.817C364.669 168.969 388.386 167.182 417.768 184.884C423.631 188.42 428.908 192.779 433.637 197.82Z" fill="#FF9900"/>
<path d="M433.637 197.82C420.691 210.066 403.225 217.575 383.999 217.575C378.173 217.575 372.508 216.885 367.08 215.58V215.57C368.281 215.287 369.473 214.965 370.646 214.625C377.918 212.478 380.556 203.438 375.403 197.887C375.383 197.858 375.365 197.839 375.346 197.821C370.617 192.78 365.341 188.421 359.478 184.884C353.898 181.517 348.527 178.878 343.326 176.836C343.335 176.827 343.345 176.827 343.355 176.816C364.67 168.968 388.387 167.181 417.769 184.883C423.631 188.42 428.908 192.779 433.637 197.82Z" fill="#FF9900"/>
</g>
<path d="M325.185 146.237V156.25C325.185 157.243 324.068 158.049 322.692 158.049H316.231C315.739 159.988 315.031 161.898 314.117 163.755L319.708 166.085C320.283 166.323 320.698 166.716 320.871 167.177C321.041 167.637 320.951 168.129 320.622 168.542L313.685 177.214C312.997 178.075 311.472 178.37 310.282 177.873L304.678 175.539C302.907 177.036 300.972 178.433 298.895 179.714L302.129 183.755C302.461 184.17 302.551 184.662 302.378 185.122C302.209 185.583 301.79 185.976 301.218 186.214L289.203 191.222C288.01 191.718 286.488 191.423 285.8 190.562L282.572 186.526C280 187.186 277.354 187.694 274.665 188.052V192.714C274.665 193.71 273.549 194.514 272.173 194.514H258.3C256.924 194.514 255.807 193.71 255.807 192.714V188.052C253.118 187.694 250.472 187.186 247.9 186.526L244.673 190.562C243.985 191.423 242.462 191.718 241.269 191.222L229.254 186.214C228.682 185.976 228.264 185.583 228.094 185.122C227.921 184.662 228.011 184.17 228.343 183.757L231.577 179.714C229.5 178.433 227.566 177.036 225.794 175.539L220.19 177.873C219.001 178.37 217.475 178.075 216.787 177.214L209.851 168.542C209.521 168.129 209.432 167.637 209.601 167.177C209.774 166.716 210.19 166.323 210.765 166.085L216.352 163.755C215.441 161.898 214.733 159.988 214.241 158.049H207.78C206.404 158.049 205.287 157.243 205.287 156.25V146.237C205.287 145.243 206.404 144.437 207.78 144.437H214.241C214.733 142.498 215.441 140.588 216.352 138.731L210.765 136.401C210.19 136.164 209.774 135.77 209.601 135.31C209.432 134.849 209.521 134.357 209.851 133.944L216.787 125.273C217.475 124.411 219.001 124.116 220.19 124.613L225.794 126.948C227.566 125.45 229.5 124.054 231.577 122.775L228.343 118.732C228.011 118.317 227.921 117.827 228.094 117.364C228.264 116.903 228.682 116.51 229.254 116.272L241.269 111.267C242.462 110.77 243.985 111.063 244.673 111.925L247.9 115.96C250.472 115.301 253.118 114.792 255.807 114.434V109.772C255.807 108.776 256.924 107.973 258.3 107.973H272.173C273.549 107.973 274.665 108.776 274.665 109.772V114.434C277.354 114.792 280 115.301 282.572 115.96L285.8 111.925C286.488 111.063 288.01 110.768 289.203 111.267L301.218 116.272C301.79 116.51 302.209 116.903 302.378 117.364C302.551 117.827 302.461 118.317 302.129 118.732L298.895 122.775C300.972 124.054 302.907 125.45 304.678 126.948L310.282 124.613C311.472 124.116 312.997 124.411 313.685 125.273L320.622 133.944C320.951 134.357 321.041 134.849 320.871 135.31C320.698 135.77 320.283 136.164 319.708 136.401L314.117 138.731C315.031 140.588 315.739 142.498 316.231 144.437H322.692C324.068 144.437 325.185 145.243 325.185 146.237Z" fill="#B4B3B3"/>
<path d="M325.185 146.237V156.25C325.185 157.243 324.069 158.05 322.693 158.05H316.231C315.74 159.988 315.032 161.898 314.118 163.756L319.708 166.085C320.283 166.323 320.698 166.717 320.871 167.177C321.041 167.638 320.951 168.13 320.622 168.543L313.685 177.214C312.997 178.076 311.472 178.371 310.282 177.874L304.678 175.539C302.907 177.037 300.972 178.433 298.895 179.714L302.129 183.755C302.461 184.17 302.551 184.662 302.378 185.123C302.209 185.583 301.79 185.977 301.218 186.214L289.203 191.222C288.01 191.719 286.488 191.424 285.8 190.562L282.573 186.526C280 187.186 277.354 187.695 274.666 188.052V192.715C274.666 193.71 273.549 194.514 272.173 194.514H265.236V188.648C290.762 185.396 310.106 169.886 310.106 151.245C310.106 132.601 290.762 117.091 265.236 113.842V107.973H272.173C273.549 107.973 274.666 108.776 274.666 109.772V114.434C277.354 114.792 280 115.301 282.573 115.96L285.8 111.925C286.488 111.063 288.01 110.768 289.203 111.267L301.218 116.272C301.79 116.51 302.209 116.903 302.378 117.364C302.551 117.827 302.461 118.317 302.129 118.732L298.895 122.775C300.972 124.054 302.907 125.45 304.678 126.948L310.282 124.613C311.472 124.116 312.997 124.411 313.685 125.273L320.622 133.944C320.951 134.357 321.041 134.849 320.871 135.31C320.698 135.77 320.283 136.164 319.708 136.401L314.118 138.731C315.032 140.588 315.74 142.498 316.231 144.437H322.693C324.069 144.438 325.185 145.244 325.185 146.237Z" fill="#D0E4FF"/>
<g filter="url(#filter1_i_8585_13996)">
<path d="M300.615 151.245C300.615 165.349 284.774 176.783 265.238 176.783C263.945 176.783 262.672 176.732 261.415 176.634C243.677 175.259 229.86 164.416 229.86 151.245C229.86 138.072 243.677 127.229 261.415 125.854C262.672 125.755 263.945 125.705 265.238 125.705C284.774 125.705 300.615 137.139 300.615 151.245Z" fill="#D0E4FF"/>
</g>
<path d="M300.613 151.245C300.613 165.349 284.773 176.783 265.236 176.783C263.943 176.783 262.67 176.732 261.414 176.634C279.152 175.259 292.969 164.416 292.969 151.245C292.969 138.072 279.152 127.229 261.414 125.854C262.67 125.755 263.943 125.705 265.236 125.705C284.773 125.705 300.613 137.139 300.613 151.245Z" fill="#D0E4FF"/>
<path d="M287.806 151.244C287.806 160.242 277.702 167.534 265.239 167.534C263.819 167.534 262.43 167.44 261.084 167.258C250.604 165.852 242.671 159.217 242.671 151.244C242.671 143.27 250.604 136.636 261.084 135.227C262.43 135.045 263.819 134.951 265.239 134.951C277.702 134.952 287.806 142.246 287.806 151.244Z" fill="white"/>
<path d="M287.803 151.244C287.803 160.242 277.699 167.534 265.236 167.534C263.816 167.534 262.427 167.44 261.081 167.258C271.561 165.852 279.494 159.217 279.494 151.244C279.494 143.27 271.561 136.636 261.081 135.227C262.427 135.045 263.816 134.951 265.236 134.951C277.699 134.952 287.803 142.246 287.803 151.244Z" fill="#CEBFFC"/>
<path d="M375.457 92.5482V104.308C375.457 105.301 374.341 106.107 372.965 106.107H368.361C367.992 106.854 367.57 107.588 367.095 108.305L370.346 110.647C370.814 110.986 371.077 111.444 371.077 111.921C371.077 112.399 370.814 112.857 370.346 113.195L358.802 121.512C357.829 122.213 356.253 122.213 355.279 121.512L352.022 119.165C351.025 119.508 350.001 119.813 348.961 120.079V123.391C348.961 124.384 347.844 125.19 346.468 125.19H330.142C328.766 125.19 327.65 124.384 327.65 123.391V120.079C326.609 119.813 325.586 119.508 324.589 119.165L321.331 121.512C320.357 122.213 318.782 122.213 317.808 121.512L306.265 113.195C305.796 112.857 305.531 112.399 305.531 111.921C305.531 111.444 305.796 110.986 306.265 110.647L309.516 108.305C309.04 107.588 308.618 106.854 308.249 106.107H303.646C302.27 106.107 301.153 105.301 301.153 104.308V92.5482C301.153 91.5524 302.27 90.7486 303.646 90.7486H308.249C308.618 89.9999 309.04 89.2657 309.516 88.5483L306.265 86.2064C305.796 85.8681 305.531 85.4098 305.531 84.9323C305.531 84.4548 305.796 83.9965 306.265 83.6582L317.808 75.3441C318.782 74.6434 320.357 74.6434 321.331 75.3441L324.589 77.6883C325.586 77.3452 326.609 77.0405 327.65 76.7742V73.4627C327.65 72.4693 328.766 71.6631 330.142 71.6631H346.468C347.844 71.6631 348.961 72.4693 348.961 73.4627V76.7739C350.001 77.0403 351.025 77.345 352.022 77.6881L355.279 75.3438C356.253 74.6432 357.829 74.6432 358.802 75.3438L370.346 83.6579C370.814 83.9963 371.077 84.4546 371.077 84.9321C371.077 85.4095 370.814 85.8678 370.346 86.2062L367.095 88.548C367.57 89.2655 367.992 89.9997 368.361 90.7483H372.965C374.341 90.7486 375.457 91.5524 375.457 92.5482Z" fill="#D0E4FF"/>
<path d="M375.459 92.5482V104.308C375.459 105.301 374.342 106.107 372.966 106.107H368.363C367.994 106.854 367.572 107.588 367.096 108.305L370.347 110.647C370.815 110.986 371.078 111.444 371.078 111.921C371.078 112.399 370.815 112.857 370.347 113.195L358.804 121.512C357.83 122.213 356.254 122.213 355.281 121.512L352.023 119.165C351.026 119.508 350.003 119.813 348.962 120.079V123.391C348.962 124.384 347.846 125.19 346.47 125.19H338.307V121.08C353.173 119.816 364.733 110.155 364.733 98.4266C364.733 86.6978 353.173 77.0376 338.307 75.7731V71.6631H346.47C347.846 71.6631 348.962 72.4693 348.962 73.4627V76.7739C350.003 77.0403 351.026 77.345 352.023 77.6881L355.281 75.3438C356.254 74.6432 357.83 74.6432 358.804 75.3438L370.347 83.6579C370.815 83.9963 371.078 84.4546 371.078 84.9321C371.078 85.4095 370.815 85.8678 370.347 86.2062L367.096 88.548C367.572 89.2655 367.994 89.9997 368.363 90.7483H372.966C374.342 90.7486 375.459 91.5524 375.459 92.5482Z" fill="#D0E4FF"/>
<g filter="url(#filter2_i_8585_13996)">
<path d="M355.882 98.4283C355.882 105.435 348.013 111.113 338.308 111.113C337.203 111.113 336.121 111.04 335.073 110.899C326.912 109.804 320.734 104.637 320.734 98.4283C320.734 92.2193 326.912 87.053 335.073 85.9562C336.121 85.8142 337.203 85.7412 338.308 85.7412C348.014 85.7412 355.882 91.4214 355.882 98.4283Z" fill="white"/>
</g>
<path d="M355.878 98.4283C355.878 105.435 348.01 111.113 338.305 111.113C337.199 111.113 336.118 111.04 335.069 110.899C343.23 109.804 349.408 104.637 349.408 98.4283C349.408 92.2193 343.23 87.053 335.069 85.9562C336.118 85.8142 337.199 85.7412 338.305 85.7412C348.01 85.7412 355.878 91.4214 355.878 98.4283Z" fill="#CEBFFC"/>
<path d="M372.955 142.323L370.92 142.323C370.504 140.182 369.35 138.171 367.545 136.446L368.984 135.407C369.958 134.704 369.958 133.564 368.984 132.861C368.01 132.158 366.431 132.158 365.457 132.861L364.018 133.9C361.628 132.596 358.842 131.763 355.877 131.463L355.877 129.994C355.877 129.001 354.76 128.195 353.383 128.194C352.007 128.194 350.891 129.001 350.891 129.994L350.891 131.463C347.926 131.762 345.137 132.595 342.747 133.898L341.308 132.858C340.337 132.155 338.758 132.155 337.784 132.858C336.811 133.561 336.811 134.701 337.785 135.404L339.224 136.443C337.42 138.169 336.267 140.18 335.851 142.32L333.817 142.32C332.441 142.32 331.324 143.126 331.324 144.12C331.324 145.113 332.441 145.919 333.818 145.92L335.852 145.92C336.268 148.06 337.422 150.074 339.227 151.799L337.788 152.838C336.814 153.541 336.814 154.679 337.788 155.382C338.273 155.735 338.912 155.91 339.55 155.91C340.188 155.91 340.826 155.735 341.312 155.382L342.751 154.343C345.141 155.646 347.93 156.48 350.895 156.78L350.895 158.248C350.895 159.242 352.012 160.048 353.389 160.049C354.765 160.049 355.881 159.242 355.881 158.249L355.881 156.78C358.846 156.481 361.631 155.648 364.021 154.345L365.461 155.384C365.949 155.737 366.588 155.913 367.226 155.913C367.864 155.913 368.502 155.737 368.987 155.385C369.961 154.682 369.961 153.544 368.987 152.841L367.548 151.802C369.352 150.077 370.505 148.063 370.92 145.923L372.955 145.923C374.331 145.923 375.448 145.117 375.448 144.123C375.448 143.13 374.331 142.324 372.955 142.323Z" fill="#D0E4FF"/>
<path d="M375.447 144.124C375.447 145.117 374.331 145.923 372.955 145.923L370.92 145.923C370.505 148.063 369.352 150.077 367.547 151.802L368.987 152.841C369.961 153.545 369.961 154.682 368.987 155.385C368.502 155.738 367.864 155.913 367.226 155.913C366.587 155.913 365.949 155.737 365.46 155.385L364.021 154.345C361.631 155.648 358.846 156.481 355.881 156.78L355.881 158.249C355.881 159.243 354.764 160.049 353.388 160.049L353.387 156.473C360.79 154.916 366.201 149.98 366.2 144.135C366.199 138.289 360.786 133.352 353.383 131.794L353.383 128.194C354.759 128.194 355.876 129.001 355.876 129.994L355.877 131.463C358.842 131.763 361.627 132.596 364.018 133.9L365.457 132.861C366.431 132.158 368.01 132.158 368.983 132.861C369.958 133.564 369.958 134.704 368.984 135.407L367.545 136.446C369.35 138.171 370.504 140.182 370.919 142.323L372.954 142.323C374.33 142.324 375.447 143.13 375.447 144.124Z" fill="#D0E4FF"/>
<path d="M361.659 144.121C361.659 147.415 357.956 150.088 353.393 150.088C352.462 150.088 351.568 149.978 350.734 149.769C347.473 148.972 345.127 146.743 345.127 144.121C345.127 141.496 347.473 139.267 350.734 138.472C351.568 138.264 352.462 138.153 353.393 138.153C357.956 138.153 361.659 140.824 361.659 144.121Z" fill="white"/>
<path d="M361.658 144.121C361.658 147.415 357.956 150.088 353.392 150.088C352.462 150.088 351.568 149.978 350.733 149.769C353.994 148.972 356.34 146.743 356.34 144.121C356.34 141.496 353.994 139.267 350.733 138.472C351.568 138.264 352.462 138.153 353.392 138.153C357.956 138.153 361.658 140.824 361.658 144.121Z" fill="#CEBFFC"/>
<g filter="url(#filter3_i_8585_13996)">
<g clip-path="url(#clip1_8585_13996)">
<path fill-rule="evenodd" clip-rule="evenodd" d="M160.691 400.693H147.549V378.357H106.164V400.693H84.8133C91.534 394.71 114.86 362.114 114.86 323.879H68.4007C68.4007 362.962 48.1074 394.623 42.6518 400.693H42.6504V436.064H106.164V460.014H147.549V436.064H160.691V400.693Z" fill="#FF9900"/>
</g>
</g>
<g filter="url(#filter4_i_8585_13996)">
<g clip-path="url(#clip2_8585_13996)">
<path fill-rule="evenodd" clip-rule="evenodd" d="M415.041 400.814H401.899V378.478H360.514V400.814H339.163C345.884 394.831 369.209 362.235 369.209 324H322.75C322.75 363.083 302.457 394.744 297.001 400.814H297V436.185H360.514V460.135H401.899V436.185H415.041V400.814Z" fill="#FF9900"/>
</g>
</g>
<g clip-path="url(#clip3_8585_13996)">
<path fill-rule="evenodd" clip-rule="evenodd" d="M114.511 267.98L97.1129 347.727C95.794 353.772 100.736 358.599 105.954 356.363L176.36 326.193C181.578 323.957 183.099 316.36 179.081 312.602L126.073 263.025C122.146 259.352 115.8 262.071 114.511 267.98Z" fill="white"/>
<path d="M176.41 326.378L106.005 356.549C103.492 357.625 100.859 357.16 98.9595 355.305C97.0604 353.45 96.3058 350.605 96.9406 347.695L114.339 267.948C114.959 265.103 116.796 262.777 119.251 261.725C121.707 260.673 124.302 261.1 126.192 262.869L179.2 312.445C181.134 314.254 181.94 317.078 181.356 319.997C180.771 322.916 178.922 325.302 176.41 326.378ZM119.353 262.095C117.018 263.096 115.272 265.308 114.682 268.013L97.284 347.76C96.6801 350.527 97.3977 353.232 99.2039 354.996C101.009 356.76 103.514 357.202 105.903 356.178L176.308 326.008C178.697 324.984 180.455 322.716 181.011 319.94C181.566 317.164 180.8 314.48 178.961 312.759L125.953 263.183C124.156 261.501 121.688 261.095 119.353 262.095Z" fill="black"/>
<path d="M133.782 314.495C131.76 315.361 129.629 314.272 129.021 312.063L120.266 280.271C119.658 278.061 120.803 275.568 122.825 274.702C124.846 273.836 126.977 274.925 127.586 277.134L136.34 308.926C136.948 311.136 135.803 313.629 133.782 314.495ZM139.123 333.892C137.101 334.758 134.97 333.669 134.362 331.46L133.031 326.627C132.422 324.418 133.568 321.925 135.589 321.058C137.61 320.192 139.742 321.281 140.35 323.49L141.681 328.324C142.289 330.533 141.144 333.026 139.123 333.892Z" fill="#EE5A25"/>
</g>
<g clip-path="url(#clip4_8585_13996)">
<path fill-rule="evenodd" clip-rule="evenodd" d="M415.227 400.693H402.084V378.357H360.699V400.693H339.349C346.069 394.71 369.395 362.114 369.395 323.879H322.936C322.936 362.962 302.643 394.623 297.187 400.693H297.186V436.064H360.699V460.014H402.084V436.064H415.227V400.693Z" fill="#FF9900" fill-opacity="0.93"/>
</g>
<g clip-path="url(#clip5_8585_13996)" filter="url(#filter5_i_8585_13996)">
<path fill-rule="evenodd" clip-rule="evenodd" d="M208.484 391.141C208.195 408.097 213.57 421.399 227.546 421.729C241.52 422.06 247.344 409.174 247.638 392.066C247.931 374.961 242.553 361.809 228.577 361.478C214.729 361.156 208.774 374.195 208.484 391.141ZM229.267 321.136C192.313 320.267 168.485 346.757 167.743 390.177C166.999 433.596 185.955 461.099 226.857 462.067C263.811 462.936 287.638 436.449 288.382 393.031C289.123 349.607 266.222 322.01 229.267 321.136Z" fill="#FF9900"/>
</g>
<g filter="url(#filter6_i_8585_13996)">
<g clip-path="url(#clip6_8585_13996)">
<path d="M40.798 378.74L31.7676 367.457L19.0329 368.775L25.034 356.381L19.008 342.899L31.7472 346.523L40.7574 336.872L42.6297 351.505L54.2244 359.023L42.6422 364.443L40.798 378.74Z" fill="#D2E6FF"/>
</g>
</g>
<g clip-path="url(#clip7_8585_13996)">
<path d="M264.496 259.225C264.606 258.357 264.676 257.484 264.705 256.611C264.736 255.725 264.724 254.85 264.672 253.99L270.713 246.769L264.99 234.509L256.575 236.645C255.382 235.604 254.089 234.718 252.721 234.002L250.483 224.591L238.216 224.529L235.369 233.918C233.946 234.623 232.595 235.501 231.337 236.521L223.062 234.325L216.517 246.526L222.084 253.783C221.975 254.651 221.905 255.524 221.876 256.397C221.845 257.272 221.856 258.146 221.909 259.016L215.868 266.237L221.592 278.499L230.007 276.363C231.201 277.402 232.492 278.288 233.859 279.005L236.097 288.416L248.365 288.477L251.211 279.088C252.627 278.386 253.977 277.513 255.24 276.485L263.518 278.684L270.063 266.483L264.496 259.225L264.496 259.225L264.496 259.225ZM242.899 268.195C237.29 268.169 232.917 262.911 233.134 256.454C233.351 249.996 238.073 244.784 243.683 244.81C249.293 244.838 253.664 250.096 253.447 256.553C253.23 263.011 248.507 268.223 242.899 268.195L242.899 268.195Z" fill="#B4B3B3"/>
</g>
<g clip-path="url(#clip8_8585_13996)">
<path d="M230.819 310.732C230.819 310.732 237.655 314.471 242.208 313.398C244.866 312.772 245.064 311.521 244.769 310.589C244.589 310.021 244.214 309.577 243.753 309.324C243.6 309.241 243.437 309.19 243.272 309.153C241.521 308.752 239.761 308.111 237.993 307.278C237.416 307.075 237.223 306.21 237.657 305.716C237.663 305.708 237.67 305.701 237.676 305.695C238.119 305.206 239.222 304.618 239.871 304.295C240.329 304.067 240.582 303.454 240.4 302.909C240.308 302.629 240.15 302.326 239.726 302.255C239.575 302.229 239.422 302.245 239.272 302.285L231.902 304.246L230.818 310.734L230.819 310.732Z" fill="#FFBE9D"/>
<path d="M230.65 314.585L235.44 301.666C225.784 296.686 220.738 289.218 220.444 279.469L208.495 279.973C208.716 287.276 210.606 293.9 214.11 299.658C217.874 305.843 223.439 310.867 230.651 314.585H230.65Z" fill="#D0E4FF"/>
<path d="M242.497 350.366L235.942 350.815L235.353 338.883L241.909 338.434L242.497 350.366Z" fill="#FFBE9D"/>
<path d="M253.854 355.835L236.133 357.049L235.739 349.052C236.559 349.527 237.478 349.764 238.435 349.698C240.332 349.569 241.662 348.351 242.248 346.14L252.651 351.375C252.899 351.501 253.135 351.689 253.335 351.953C254.431 353.404 253.856 355.837 253.856 355.837L253.854 355.835Z" fill="#808080"/>
<path d="M247.064 313.768L241.843 318.464L235.696 308.961L240.917 304.265L247.064 313.768Z" fill="#FFBE9D"/>
<path d="M257.417 323.758H239.915V315.486C240.709 316.02 241.369 316.322 242.328 316.326C244.228 316.334 245.919 315.251 246.619 313.085L256.43 319.024C256.672 319.169 256.897 319.374 257.082 319.648C258.102 321.175 257.415 323.76 257.415 323.76L257.417 323.758Z" fill="#808080"/>
<path d="M220.522 323.083L230.387 308.5L235.86 317.68L246.946 308.491L238.235 293.878C236.554 291.058 233.807 289.311 230.884 289.208C227.962 289.106 225.129 290.65 223.305 293.346L209.93 313.119L220.524 323.085L220.522 323.083Z" fill="black"/>
<path d="M232.158 344.358L245.694 343.611L244.69 318.295C244.454 312.358 240.322 307.707 235.282 307.707H218.744V323.687H231.338L232.158 344.358Z" fill="black"/>
<path d="M223.994 307.805V323.687L217.211 323.693C214.859 323.788 212.514 323.144 210.493 321.722C204.53 317.528 204.887 309.549 206.977 305.12L215.227 308.623C217.915 308.247 220.844 307.976 223.994 307.805Z" fill="black"/>
<path d="M242.336 293.663C242.336 293.663 249.719 291.892 252.847 287.842C254.67 285.481 254.202 284.334 253.496 283.789C253.065 283.458 252.541 283.362 252.042 283.483C251.877 283.522 251.72 283.595 251.568 283.682C249.958 284.584 248.219 285.299 246.376 285.865C245.808 286.105 245.218 285.543 245.319 284.842C245.319 284.832 245.322 284.821 245.324 284.812C245.435 284.109 246.027 282.862 246.387 282.15C246.642 281.648 246.537 280.977 246.116 280.664C245.901 280.505 245.622 280.371 245.244 280.608C245.108 280.693 244.994 280.813 244.893 280.95L239.945 287.682L242.334 293.665L242.336 293.663Z" fill="#FFBE9D"/>
<path d="M209.117 277.41C209.117 277.41 202.436 291.07 205.729 313.882C205.729 313.882 212.159 321.695 225.632 300.038L209.117 277.408V277.41Z" fill="#D0E4FF"/>
<path d="M209.838 267.151C210.041 267.862 210.328 268.536 210.689 269.154C212.368 272.007 215.5 273.337 218.431 272.169C221.978 270.757 223.884 266.221 222.686 262.036C221.82 259.013 219.57 257.001 217.052 256.65C216.085 256.514 215.078 256.625 214.094 257.018C210.545 258.432 208.64 262.967 209.839 267.151H209.838Z" fill="#FFBE9D"/>
<path d="M209.837 267.152C210.041 267.862 210.328 268.536 210.689 269.154C211.317 269.101 211.948 268.954 212.573 268.706C216.524 267.133 218.642 262.085 217.309 257.428C217.233 257.161 217.147 256.902 217.051 256.652C216.085 256.516 215.078 256.627 214.094 257.02C210.545 258.434 208.64 262.969 209.839 267.153L209.837 267.152Z" fill="black"/>
<path d="M206.492 265.39C204.331 265.39 202.579 263.324 202.579 260.775C202.579 258.226 204.331 256.159 206.492 256.159C208.654 256.159 210.406 258.226 210.406 260.775C210.406 263.324 208.654 265.39 206.492 265.39Z" fill="black"/>
<path d="M242.708 312.018L242.832 311.899C241.858 310.482 240.621 309.335 239.347 308.667C238.119 308.025 236.764 307.692 235.323 307.679L224.549 307.551V307.739L235.323 307.867C236.744 307.88 238.076 308.207 239.283 308.839C240.535 309.495 241.751 310.623 242.708 312.018Z" fill="white"/>
<path d="M230.03 301.58C234.888 301.58 240.155 299.658 245.764 295.83L239.774 283.627C234.84 286.995 230.778 288.164 227.701 287.104C224.629 286.043 221.841 282.571 219.174 276.485L208.551 282.958C212.8 292.653 217.965 298.436 224.344 300.636C226.167 301.266 228.065 301.58 230.029 301.58H230.03Z" fill="#D0E4FF"/>
<path d="M214.471 289.061C210.937 289.061 208.073 285.683 208.073 281.516C208.073 277.349 210.937 273.972 214.471 273.972C218.004 273.972 220.868 277.349 220.868 281.516C220.868 285.683 218.004 289.061 214.471 289.061Z" fill="#D0E4FF"/>
<path d="M225.072 300.983L225.115 300.803C219.438 298.897 215.04 295.039 211.673 289.01L211.54 289.113C214.93 295.182 219.357 299.064 225.072 300.983Z" fill="black"/>
</g>
<g clip-path="url(#clip9_8585_13996)">
<path d="M417.684 441.91L424.673 441.363L425.391 454.033L418.402 454.579L417.684 441.91Z" fill="#FFBE9D"/>
<path d="M406.565 459.669H426.028L425.234 451.237C424.386 451.8 423.689 452.04 422.667 452.04C420.64 452.04 418.836 451.033 418.096 448.73L407.616 454.851C407.344 455.009 407.106 455.234 406.917 455.513C405.825 457.132 406.566 459.669 406.566 459.669H406.565Z" fill="black"/>
<path d="M442.82 444.413L449.303 441.296L453.399 453.047L446.916 456.164L442.82 444.413Z" fill="#FFBE9D"/>
<path d="M432.796 459.669H455.648L452.595 450.738C451.748 451.301 449.921 452.04 448.898 452.04C446.871 452.04 445.068 451.033 444.328 448.73L433.847 454.851C433.576 455.009 433.337 455.234 433.149 455.513C432.056 457.132 432.798 459.669 432.798 459.669H432.796Z" fill="black"/>
<path d="M397.269 338.904C395.638 339.42 391.887 341.094 390.92 345.787C390.92 345.787 390.43 348.642 392.608 348.838C393.099 348.882 393.58 348.704 393.993 348.393C395.547 347.221 397.496 346.616 399.874 345.851C400.753 345.569 401.427 344.731 401.607 343.682C402.002 341.377 401.354 339.179 399.119 338.765C398.502 338.651 397.873 338.713 397.27 338.902L397.269 338.904Z" fill="#FFBE9D"/>
<path d="M416.74 363.04C416.456 358.619 415.147 355.753 412.503 353.746C409.569 351.52 404.815 350.201 398.371 349.827L398.951 336.091C407.596 336.593 414.108 338.59 418.859 342.195C424.638 346.58 427.855 353.243 428.419 362.002L416.74 363.04Z" fill="#EE5A26"/>
<path d="M426.262 343.778C426.262 344.525 426.171 345.245 426.006 345.927C425.213 349.162 422.675 351.525 419.666 351.525C416.025 351.525 413.07 348.058 413.07 343.779C413.07 340.687 414.613 338.018 416.843 336.777C417.725 336.285 418.69 336.031 419.666 336.032C423.309 336.032 426.262 339.499 426.262 343.778Z" fill="#FFBE9D"/>
<path d="M426.262 343.778C426.262 344.525 426.172 345.245 426.006 345.927C425.413 346.109 424.793 346.204 424.151 346.204C420.096 346.204 416.81 342.345 416.81 337.583C416.81 337.312 416.821 337.041 416.842 336.777C417.725 336.285 418.69 336.031 419.667 336.032C423.31 336.032 426.262 339.499 426.262 343.778Z" fill="black"/>
<path d="M391.248 365.41C391.248 365.41 383.522 356.001 385.177 350.088C385.177 350.088 385.939 347.68 387.638 348.366C388.229 348.604 388.698 349.14 388.97 349.804C389.9 352.075 393.737 358.483 394.884 359.222L391.248 365.414V365.41Z" fill="#FFBE9D"/>
<path d="M439.548 449.524C430.494 429.906 423.427 408.617 418.541 386.248L432.154 382.148C436.754 403.21 443.398 423.232 451.903 441.662L439.548 449.524Z" fill="#808080"/>
<path d="M414.778 448.38C412.164 430.221 409.377 406.151 411.052 380.993L425.063 382.28C423.85 400.507 424.951 420.045 428.634 445.63L414.778 448.38Z" fill="#808080"/>
<path d="M420.559 371.65C424.951 371.65 428.51 367.469 428.51 362.312C428.51 357.154 424.951 352.974 420.559 352.974C416.168 352.974 412.608 357.154 412.608 362.312C412.608 367.469 416.168 371.65 420.559 371.65Z" fill="#EE5A25"/>
<path d="M432.601 385.144H410.81V363.93L428.357 360.481L432.601 385.144Z" fill="#EE5A25"/>
<path d="M424.932 411.001C424.544 405.365 424.427 400.9 424.535 396.072L424.691 396.078C424.582 400.898 424.701 405.357 425.086 410.986L424.93 411.001H424.932Z" fill="black"/>
<path d="M405.047 374.517C404.272 374.517 403.497 374.466 402.727 374.364C396.248 373.504 390.853 369.07 385.989 364.41L393.394 353.757C401.668 361.687 406.031 363.997 416.001 354.729L423.269 365.512C416.706 371.612 410.851 374.52 405.047 374.52V374.517Z" fill="#EE5A26"/>
<path d="M410.833 373.628L410.788 373.452C415.824 371.655 419.881 369.003 423.188 365.344C425.307 362.949 426.162 359.981 425.535 357.199C425.047 355.043 423.472 353.47 421.52 353.193C419.211 352.867 416.981 353.776 414.892 355.899L414.79 355.76C416.914 353.6 419.184 352.676 421.539 353.01C423.555 353.296 425.182 354.92 425.686 357.152C426.329 359.999 425.458 363.034 423.297 365.476C419.971 369.156 415.896 371.822 410.836 373.627L410.833 373.628Z" fill="black"/>
<path d="M411.271 342.053L420.062 346.772L427.077 334.294L419.922 326.663C421.084 322.787 421.891 318.636 421.933 314.491L431.043 310.499L428.451 295.657L418.855 295.987C417.427 292.194 415.293 288.75 412.926 285.723L416.83 275.612L406.199 267.378L399.698 275.777C396.396 274.413 392.859 273.465 389.326 273.415L385.927 262.723L373.281 265.765L373.562 277.028C370.33 278.705 367.397 281.208 364.818 283.988L356.203 279.406L349.188 291.883L356.343 299.514C355.181 303.39 354.373 307.541 354.331 311.688L345.222 315.678L347.814 330.521L357.409 330.191C358.837 333.985 360.971 337.427 363.339 340.455L359.435 350.566L370.066 358.799L376.568 350.401C379.87 351.765 383.406 352.713 386.939 352.762L390.455 363.247L402.807 360.276L402.526 349.012C405.758 347.336 408.692 344.832 411.271 342.053ZM376.902 333.054C367.507 325.774 364.92 310.933 371.123 299.907C377.325 288.881 389.969 285.843 399.363 293.124C408.757 300.404 411.344 315.244 405.142 326.27C398.939 337.296 386.296 340.334 376.902 333.054Z" fill="#D0E4FF"/>
<path d="M426.418 343.76C426.418 344.505 426.327 345.224 426.161 345.905C425.365 349.132 422.818 351.49 419.797 351.49C416.142 351.49 413.177 348.031 413.177 343.761C413.177 340.676 414.725 338.013 416.964 336.774C417.849 336.284 418.817 336.03 419.797 336.031C423.454 336.031 426.418 339.49 426.418 343.76Z" fill="#FFBE9D"/>
<path d="M426.417 343.76C426.417 344.505 426.327 345.224 426.16 345.905C425.565 346.086 424.943 346.181 424.299 346.181C420.228 346.181 416.929 342.33 416.929 337.579C416.929 337.308 416.94 337.037 416.962 336.774C417.848 336.283 418.816 336.03 419.797 336.031C423.454 336.031 426.417 339.49 426.417 343.76Z" fill="black"/>
<path d="M391.272 365.345C391.272 365.345 383.516 355.956 385.178 350.056C385.178 350.056 385.943 347.654 387.648 348.338C388.242 348.576 388.712 349.11 388.985 349.773C389.919 352.04 393.77 358.434 394.922 359.171L391.272 365.349V365.345Z" fill="#FFBE9D"/>
<path d="M420.694 371.571C425.102 371.571 428.675 367.399 428.675 362.253C428.675 357.107 425.102 352.936 420.694 352.936C416.286 352.936 412.713 357.107 412.713 362.253C412.713 367.399 416.286 371.571 420.694 371.571Z" fill="#EE5A25"/>
<path d="M405.122 374.434C404.344 374.433 403.566 374.382 402.793 374.28C396.29 373.422 390.875 368.999 385.992 364.348L393.424 353.719C401.73 361.631 406.107 363.935 416.117 354.688L423.413 365.448C416.825 371.534 410.947 374.436 405.122 374.436V374.434Z" fill="#EE5A26"/>
<path d="M410.931 373.543L410.886 373.367C415.942 371.574 420.013 368.929 423.332 365.277C425.459 362.888 426.318 359.926 425.688 357.151C425.199 354.999 423.617 353.43 421.658 353.154C419.34 352.828 417.102 353.735 415.004 355.854L414.903 355.715C417.034 353.56 419.315 352.638 421.677 352.971C423.7 353.256 425.334 354.879 425.84 357.103C426.485 359.944 425.611 362.972 423.442 365.409C420.105 369.081 416.012 371.741 410.934 373.543L410.931 373.543Z" fill="black"/>
</g>
</g>
<defs>
<filter id="filter0_d_8585_13996" x="-10" y="58.8398" width="490" height="418.716" filterUnits="userSpaceOnUse" color-interpolation-filters="sRGB">
<feFlood flood-opacity="0" result="BackgroundImageFix"/>
<feColorMatrix in="SourceAlpha" type="matrix" values="0 0 0 0 0 0 0 0 0 0 0 0 0 0 0 0 0 0 127 0" result="hardAlpha"/>
<feOffset dy="4"/>
<feGaussianBlur stdDeviation="5"/>
<feComposite in2="hardAlpha" operator="out"/>
<feColorMatrix type="matrix" values="0 0 0 0 0 0 0 0 0 0 0 0 0 0 0 0 0 0 0.25 0"/>
<feBlend mode="normal" in2="BackgroundImageFix" result="effect1_dropShadow_8585_13996"/>
<feBlend mode="normal" in="SourceGraphic" in2="effect1_dropShadow_8585_13996" result="shape"/>
</filter>
<filter id="filter1_i_8585_13996" x="229.86" y="125.705" width="70.7539" height="55.0771" filterUnits="userSpaceOnUse" color-interpolation-filters="sRGB">
<feFlood flood-opacity="0" result="BackgroundImageFix"/>
<feBlend mode="normal" in="SourceGraphic" in2="BackgroundImageFix" result="shape"/>
<feColorMatrix in="SourceAlpha" type="matrix" values="0 0 0 0 0 0 0 0 0 0 0 0 0 0 0 0 0 0 127 0" result="hardAlpha"/>
<feOffset dy="4"/>
<feGaussianBlur stdDeviation="2"/>
<feComposite in2="hardAlpha" operator="arithmetic" k2="-1" k3="1"/>
<feColorMatrix type="matrix" values="0 0 0 0 0 0 0 0 0 0 0 0 0 0 0 0 0 0 0.25 0"/>
<feBlend mode="normal" in2="shape" result="effect1_innerShadow_8585_13996"/>
</filter>
<filter id="filter2_i_8585_13996" x="320.734" y="85.7412" width="35.1475" height="29.3721" filterUnits="userSpaceOnUse" color-interpolation-filters="sRGB">
<feFlood flood-opacity="0" result="BackgroundImageFix"/>
<feBlend mode="normal" in="SourceGraphic" in2="BackgroundImageFix" result="shape"/>
<feColorMatrix in="SourceAlpha" type="matrix" values="0 0 0 0 0 0 0 0 0 0 0 0 0 0 0 0 0 0 127 0" result="hardAlpha"/>
<feOffset dy="4"/>
<feGaussianBlur stdDeviation="2"/>
<feComposite in2="hardAlpha" operator="arithmetic" k2="-1" k3="1"/>
<feColorMatrix type="matrix" values="0 0 0 0 0 0 0 0 0 0 0 0 0 0 0 0 0 0 0.25 0"/>
<feBlend mode="normal" in2="shape" result="effect1_innerShadow_8585_13996"/>
</filter>
<filter id="filter3_i_8585_13996" x="42.6504" y="323.879" width="118.041" height="140.135" filterUnits="userSpaceOnUse" color-interpolation-filters="sRGB">
<feFlood flood-opacity="0" result="BackgroundImageFix"/>
<feBlend mode="normal" in="SourceGraphic" in2="BackgroundImageFix" result="shape"/>
<feColorMatrix in="SourceAlpha" type="matrix" values="0 0 0 0 0 0 0 0 0 0 0 0 0 0 0 0 0 0 127 0" result="hardAlpha"/>
<feOffset dy="4"/>
<feGaussianBlur stdDeviation="2"/>
<feComposite in2="hardAlpha" operator="arithmetic" k2="-1" k3="1"/>
<feColorMatrix type="matrix" values="0 0 0 0 0 0 0 0 0 0 0 0 0 0 0 0 0 0 0.25 0"/>
<feBlend mode="normal" in2="shape" result="effect1_innerShadow_8585_13996"/>
</filter>
<filter id="filter4_i_8585_13996" x="297" y="324" width="118.041" height="140.135" filterUnits="userSpaceOnUse" color-interpolation-filters="sRGB">
<feFlood flood-opacity="0" result="BackgroundImageFix"/>
<feBlend mode="normal" in="SourceGraphic" in2="BackgroundImageFix" result="shape"/>
<feColorMatrix in="SourceAlpha" type="matrix" values="0 0 0 0 0 0 0 0 0 0 0 0 0 0 0 0 0 0 127 0" result="hardAlpha"/>
<feOffset dy="4"/>
<feGaussianBlur stdDeviation="2"/>
<feComposite in2="hardAlpha" operator="arithmetic" k2="-1" k3="1"/>
<feColorMatrix type="matrix" values="0 0 0 0 0 0 0 0 0 0 0 0 0 0 0 0 0 0 0.25 0"/>
<feBlend mode="normal" in2="shape" result="effect1_innerShadow_8585_13996"/>
</filter>
<filter id="filter5_i_8585_13996" x="167.721" y="321.115" width="120.677" height="144.972" filterUnits="userSpaceOnUse" color-interpolation-filters="sRGB">
<feFlood flood-opacity="0" result="BackgroundImageFix"/>
<feBlend mode="normal" in="SourceGraphic" in2="BackgroundImageFix" result="shape"/>
<feColorMatrix in="SourceAlpha" type="matrix" values="0 0 0 0 0 0 0 0 0 0 0 0 0 0 0 0 0 0 127 0" result="hardAlpha"/>
<feOffset dy="4"/>
<feGaussianBlur stdDeviation="2"/>
<feComposite in2="hardAlpha" operator="arithmetic" k2="-1" k3="1"/>
<feColorMatrix type="matrix" values="0 0 0 0 0 0 0 0 0 0 0 0 0 0 0 0 0 0 0.25 0"/>
<feBlend mode="normal" in2="shape" result="effect1_innerShadow_8585_13996"/>
</filter>
<filter id="filter6_i_8585_13996" x="12.2793" y="328.79" width="46.0967" height="57.0615" filterUnits="userSpaceOnUse" color-interpolation-filters="sRGB">
<feFlood flood-opacity="0" result="BackgroundImageFix"/>
<feBlend mode="normal" in="SourceGraphic" in2="BackgroundImageFix" result="shape"/>
<feColorMatrix in="SourceAlpha" type="matrix" values="0 0 0 0 0 0 0 0 0 0 0 0 0 0 0 0 0 0 127 0" result="hardAlpha"/>
<feOffset dy="4"/>
<feGaussianBlur stdDeviation="2"/>
<feComposite in2="hardAlpha" operator="arithmetic" k2="-1" k3="1"/>
<feColorMatrix type="matrix" values="0 0 0 0 0 0 0 0 0 0 0 0 0 0 0 0 0 0 0.25 0"/>
<feBlend mode="normal" in2="shape" result="effect1_innerShadow_8585_13996"/>
</filter>
<clipPath id="clip0_8585_13996">
<rect width="470" height="470" fill="white"/>
</clipPath>
<clipPath id="clip1_8585_13996">
<rect width="118.041" height="136.135" fill="white" transform="translate(42.6504 323.879)"/>
</clipPath>
<clipPath id="clip2_8585_13996">
<rect width="118.041" height="136.135" fill="white" transform="translate(297 324)"/>
</clipPath>
<clipPath id="clip3_8585_13996">
<rect width="91.1237" height="82.8272" fill="white" transform="matrix(0.924235 -0.396056 0.265084 0.962712 77.1416 279.77)"/>
</clipPath>
<clipPath id="clip4_8585_13996">
<rect width="118.041" height="136.135" fill="white" transform="translate(297.186 323.879)"/>
</clipPath>
<clipPath id="clip5_8585_13996">
<rect width="120.677" height="140.972" fill="white" transform="translate(167.721 321.115)"/>
</clipPath>
<clipPath id="clip6_8585_13996">
<rect width="38.5193" height="38.5069" fill="white" transform="matrix(0.913813 0.420078 -0.282988 0.957766 23.1768 328.79)"/>
</clipPath>
<clipPath id="clip7_8585_13996">
<rect width="56.596" height="64.9338" fill="white" transform="matrix(0.986712 -0.172816 0.10249 0.994247 212.041 229.113)"/>
</clipPath>
<clipPath id="clip8_8585_13996">
<rect width="55.0663" height="100.892" fill="white" transform="matrix(-1 0 0 1 257.644 256.157)"/>
</clipPath>
<clipPath id="clip9_8585_13996">
<rect width="110.426" height="196.946" fill="white" transform="translate(345.222 262.723)"/>
</clipPath>
</defs>
</svg>
