<svg width="173" height="72" viewBox="0 0 173 72" fill="none" xmlns="http://www.w3.org/2000/svg">
<path d="M36.7135 72C36.6525 72 36.6003 72 36.5393 72C35.8597 71.9407 35.2673 71.5424 34.9624 70.9492L24.2549 49.5933C23.8803 48.8475 24.0458 47.9577 24.6644 47.3899L26.1804 45.9916L20.2037 35.695C19.6723 34.7882 20.0033 33.6272 20.9443 33.1187C21.8765 32.6017 23.0701 32.9238 23.5928 33.839L30.3187 45.4238C30.7543 46.178 30.6149 47.1272 29.9615 47.7289L28.3759 49.1865L37.0446 66.4746C39.1007 63.7458 42.4462 59.2882 45.1906 55.5763C45.8179 54.7289 47.0289 54.5339 47.9088 55.1441C48.78 55.7543 48.9804 56.9322 48.3531 57.7882C44.0754 63.5848 38.334 71.178 38.2817 71.2543C37.9158 71.7373 37.3321 72.0255 36.7135 72.0255V72Z" fill="#666666"/>
<path d="M1.94297 21.8898C1.66418 21.8898 1.37667 21.8305 1.10659 21.7034C0.139525 21.2542 -0.269953 20.1186 0.191799 19.178C1.15015 17.2288 3.28466 12.8983 5.13167 9.15254C6.0029 7.38136 6.81314 5.73729 7.41429 4.54237C7.71051 3.94068 7.95445 3.44915 8.11998 3.11017C8.20711 2.94068 8.27681 2.80508 8.32037 2.71186C8.77341 1.82203 9.43554 1.5678 9.9757 1.52542L24.107 0.00847458C24.1767 0.00847458 24.2464 0 24.3161 0C24.6559 0 25.8059 0.110169 26.2328 1.50847C26.5378 2.50847 25.954 3.55932 24.926 3.86441C24.5427 3.97458 24.1506 3.9661 23.7934 3.86441L11.4132 5.18644C10.9341 6.14407 10.0628 7.92373 8.63401 10.8051C6.787 14.5508 4.65249 18.8814 3.69414 20.822C3.36307 21.5 2.66609 21.8983 1.93426 21.8983L1.94297 21.8898Z" fill="#666666"/>
<path d="M31.2161 60.6272C31.129 60.6272 31.0506 60.6272 30.9635 60.6272C30.2316 60.6103 29.5782 60.2035 29.2559 59.5679L24.255 49.5933C23.8804 48.8475 24.0459 47.9577 24.6645 47.3899L26.1804 45.9916L20.5958 36.3645C18.9492 35.873 17.3287 35.2628 15.7605 34.5425C14.7935 34.0933 14.3753 32.9662 14.8283 32.0255C15.2901 31.0848 16.4488 30.6781 17.4159 31.1187C19.0363 31.8645 20.7178 32.4747 22.4167 32.9408C22.9133 33.0764 23.3315 33.3984 23.5842 33.8306L30.3101 45.4153C30.7457 46.1696 30.6063 47.1187 29.9529 47.7204L28.3672 49.1781L32.2093 56.8306C36.975 56.7459 41.6883 56.0764 46.2361 54.8391C47.2729 54.5594 48.3445 55.1442 48.632 56.1526C48.9195 57.1611 48.3184 58.2035 47.2816 58.4831C42.0717 59.8984 36.6613 60.6187 31.1987 60.6187L31.2161 60.6272Z" fill="#666666"/>
<path d="M1.94297 21.8898C1.66418 21.8898 1.37667 21.8305 1.10659 21.7034C0.139525 21.2542 -0.269953 20.1186 0.191799 19.178C1.15015 17.2288 3.28466 12.8983 5.13167 9.15254C6.0029 7.38136 6.81314 5.73729 7.41429 4.54237C7.71051 3.94068 7.95445 3.44915 8.11998 3.11017C8.20711 2.94068 8.27681 2.80508 8.32037 2.71186C8.77341 1.82203 9.43554 1.5678 9.9757 1.52542L24.107 0.00847458C24.1767 0.00847458 24.2464 0 24.3161 0C24.6559 0 25.8059 0.110169 26.2328 1.50847C26.5378 2.50847 25.954 3.55932 24.926 3.86441C24.5427 3.97458 24.1506 3.9661 23.7934 3.86441L11.4132 5.18644C10.9341 6.14407 10.0628 7.92373 8.63401 10.8051C6.787 14.5508 4.65249 18.8814 3.69414 20.822C3.36307 21.5 2.66609 21.8983 1.93426 21.8983L1.94297 21.8898Z" fill="#666666"/>
<path d="M31.2161 47.7881C30.2142 47.7881 29.1949 47.7542 28.193 47.6949C27.5395 47.6525 26.9471 47.2966 26.6248 46.7372L20.5958 36.3559C18.9492 35.8643 17.3287 35.2542 15.7605 34.5338C14.7935 34.0847 14.3753 32.9576 14.8283 32.0169C15.2901 31.0762 16.4488 30.6694 17.4159 31.1101C19.0363 31.8559 20.7178 32.466 22.4167 32.9321C22.9133 33.0677 23.3315 33.3898 23.5842 33.822L29.4737 43.966C30.0487 43.9915 30.6324 43.9999 31.2074 43.9999C37.4716 43.9999 43.5005 42.7033 49.1286 40.161L57.0132 29.1101C57.0132 29.1101 56.961 29.1101 56.9348 29.1186C55.1488 29.3559 55.0007 29.3728 54.5128 29.1779C53.842 28.9237 53.6067 28.5084 53.1537 27.7033C52.326 26.2457 50.3222 22.5593 48.7801 19.7288C46.6195 15.7627 44.4065 11.661 43.5527 10.0677C42.2198 9.70333 39.4667 8.94062 37.4803 8.39824L36.4784 8.12706C35.4416 7.8474 34.8404 6.79655 35.1367 5.79655C35.4242 4.78807 36.5045 4.20333 37.5325 4.49146L38.5345 4.76265C39.9807 5.16095 41.697 5.62706 43.0649 6.00841C43.7444 6.19485 44.3368 6.35587 44.7638 6.47451L45.2603 6.61011C46.1142 6.8474 46.5149 7.3135 46.6979 7.7457C46.7501 7.8474 46.846 8.01689 46.968 8.25418C47.7956 9.79655 50.0347 13.9491 52.2215 17.9745C54.1469 21.5254 55.5409 24.0677 56.2901 25.3982C56.3337 25.3982 56.3772 25.3898 56.4208 25.3813C57.2833 25.2627 58.3636 25.1186 59.2523 25.0254C59.7663 24.966 60.1671 24.9321 60.4633 24.9237C62.1796 24.8474 62.7198 25.7626 62.8853 26.322C63.0508 26.8728 62.9463 27.4576 62.6152 27.9321L52.0472 42.7457C51.8556 43.0169 51.5942 43.2288 51.2893 43.3728C44.999 46.3135 38.2557 47.7966 31.2248 47.7966L31.2161 47.7881ZM43.0649 9.10163C43.0997 9.19485 43.1433 9.28807 43.1868 9.38129C43.1346 9.2796 43.091 9.18638 43.0649 9.10163ZM46.8373 8.3474C46.8373 8.38977 46.8373 8.43214 46.8373 8.46604C46.8373 8.42367 46.8373 8.38129 46.8373 8.3474Z" fill="#666666"/>
<path d="M1.94297 21.8898C1.66418 21.8898 1.37667 21.8305 1.10659 21.7034C0.139525 21.2542 -0.269953 20.1186 0.191799 19.178C1.15015 17.2288 3.28466 12.8983 5.13167 9.15254C6.0029 7.38136 6.81314 5.73729 7.41429 4.54237C7.71051 3.94068 7.95445 3.44915 8.11998 3.11017C8.20711 2.94068 8.27681 2.80508 8.32037 2.71186C8.77341 1.82203 9.43554 1.5678 9.9757 1.52542L24.107 0.00847458C24.1767 0.00847458 24.2464 0 24.3161 0C24.6559 0 25.8059 0.110169 26.2328 1.50847C26.5378 2.50847 25.954 3.55932 24.926 3.86441C24.5427 3.97458 24.1506 3.9661 23.7934 3.86441L11.4132 5.18644C10.9341 6.14407 10.0628 7.92373 8.63401 10.8051C6.787 14.5508 4.65249 18.8814 3.69414 20.822C3.36307 21.5 2.66609 21.8983 1.93426 21.8983L1.94297 21.8898Z" fill="#666666"/>
<path d="M31.2165 37.8898C27.871 37.8898 24.5603 37.4492 21.3803 36.5763C19.4723 36.0508 17.5817 35.3644 15.7696 34.5339C9.34862 31.5847 3.99056 26.8898 0.287841 20.9831C-0.0519388 20.4407 -0.086788 19.7627 0.192005 19.178C1.15036 17.2288 3.28487 12.8983 5.13188 9.15254C6.0031 7.38136 6.81335 5.73729 7.4145 4.54237C7.71071 3.94068 7.95466 3.44915 8.12019 3.11017C8.20731 2.94068 8.27701 2.80508 8.32057 2.71186C8.77361 1.82203 9.43575 1.5678 9.97591 1.52542L24.1072 0.00847458C24.1769 0.00847458 24.2466 0 24.3163 0C24.6561 0 25.8061 0.110169 26.233 1.50847C26.538 2.50847 25.9543 3.55932 24.9262 3.86441C24.5429 3.97458 24.1508 3.9661 23.7936 3.86441L11.4134 5.18644C10.9343 6.14407 10.063 7.92373 8.63422 10.8051C7.04858 14.0254 5.24513 17.6864 4.1561 19.8814C7.43192 24.7542 12.0059 28.6356 17.4249 31.1271C19.0367 31.8729 20.7269 32.4831 22.4258 32.9492C25.266 33.7288 28.2194 34.1271 31.2078 34.1271C39.0575 34.1271 46.5327 31.3983 52.4135 26.4153C51.429 24.6271 49.9566 21.9407 48.7717 19.7542C46.6111 15.7881 44.3982 11.6864 43.5444 10.0932C42.2114 9.72881 39.4583 8.9661 37.4719 8.42373L36.47 8.15254C35.4332 7.87288 34.8321 6.82203 35.1283 5.82203C35.4158 4.81356 36.4961 4.22881 37.5242 4.51695L38.5261 4.78814C39.9723 5.18644 41.6887 5.65254 43.0565 6.0339C43.736 6.22034 44.3285 6.38136 44.7554 6.5L45.252 6.63559C46.1058 6.87288 46.5066 7.33898 46.6895 7.77119C46.7418 7.87288 46.8376 8.04237 46.9596 8.27966C47.7873 9.82203 50.0263 13.9746 52.2131 18C54.4086 22.0424 55.9158 24.7797 56.5518 25.9153C56.9787 26.6695 56.8306 27.6017 56.1946 28.1949C49.4339 34.4661 40.5561 37.9237 31.2078 37.9237L31.2165 37.8898ZM43.0652 9.1017C43.1 9.19491 43.1436 9.28814 43.1872 9.38136C43.1349 9.27966 43.0913 9.18644 43.0652 9.1017ZM46.8376 8.34746C46.8376 8.38983 46.8376 8.4322 46.8376 8.4661C46.8376 8.42373 46.8376 8.38136 46.8376 8.34746Z" fill="#666666"/>
<path d="M31.2164 29.339C25.2398 29.339 19.5594 27.5 14.785 24.017C10.1762 20.6525 6.70874 15.8644 5.01856 10.5339C4.87045 10.0763 4.91401 9.58475 5.12311 9.16102C5.99434 7.38983 6.80458 5.74576 7.40573 4.55085C7.70194 3.94915 7.94589 3.45763 8.11142 3.11864C8.19855 2.94915 8.26824 2.81356 8.31181 2.72034C8.76484 1.83051 9.42698 1.57627 9.96714 1.5339L24.1072 0.00847458C24.1769 0.00847458 24.2466 0 24.3163 0C24.6561 0 25.8061 0.110169 26.233 1.50847C26.5379 2.50847 25.9542 3.55932 24.9261 3.86441C24.5428 3.97458 24.1508 3.9661 23.7935 3.86441L11.4134 5.18644C10.9778 6.0678 10.2024 7.63559 8.97394 10.1186C12.2323 19.3898 21.0753 25.5593 31.2164 25.5593C37.62 25.5593 43.7186 23.0254 48.1357 18.5678C46.1929 14.9915 44.3197 11.5169 43.5443 10.0763C42.2113 9.71186 39.4582 8.94915 37.4718 8.40678L36.4699 8.13559C35.4332 7.85593 34.832 6.80508 35.1282 5.80508C35.4157 4.79661 36.4961 4.21186 37.5241 4.5L38.526 4.77119C39.9723 5.16949 41.6886 5.63559 43.0564 6.01695C43.736 6.20339 44.3284 6.36441 44.7553 6.48305L45.2519 6.61864C46.1057 6.85593 46.5065 7.32203 46.6895 7.75424C46.7417 7.85593 46.8376 8.02542 46.9595 8.26271C47.7872 9.80509 50.0263 13.9576 52.213 17.9831C52.5877 18.6695 52.4918 19.5169 51.9691 20.1017C46.7592 25.9831 39.1882 29.3559 31.2164 29.3559V29.339ZM43.0651 9.1017C43.1 9.19491 43.1435 9.28814 43.1871 9.38136C43.1348 9.27966 43.0913 9.18644 43.0651 9.1017ZM46.8376 8.34746C46.8376 8.38983 46.8376 8.4322 46.8376 8.4661C46.8376 8.42373 46.8376 8.38136 46.8376 8.34746Z" fill="#666666"/>
<path d="M31.2164 19.6525C26.5814 19.6525 22.2165 17.9068 18.9233 14.7288C15.6388 11.5593 13.8005 7.33051 13.7656 2.82203C13.7656 1.84746 14.5062 1.0339 15.4994 0.923729L24.1071 0.00847458C24.1768 0.00847458 24.2465 0 24.3162 0C24.656 0 25.806 0.110169 26.2329 1.50847C26.5378 2.50847 25.9541 3.55932 24.9261 3.86441C24.5427 3.97458 24.1507 3.9661 23.7935 3.86441L17.7907 4.50847C18.7055 10.9237 24.4033 15.8898 31.2251 15.8898C35.8513 15.8898 40.1639 13.5593 42.6382 9.83051C41.1832 9.4322 39.0835 8.85593 37.4892 8.41525L36.4873 8.14407C35.4505 7.86441 34.8494 6.81356 35.1456 5.81356C35.4331 4.80508 36.5134 4.22034 37.5415 4.50847L38.5434 4.77966C39.9896 5.17797 41.7059 5.64407 43.0738 6.02542C43.7533 6.21186 44.3458 6.37288 44.7727 6.49153L45.2693 6.62712C46.1231 6.86441 46.5238 7.33051 46.7068 7.76271C46.7591 7.86441 46.8549 8.0339 46.9769 8.27119C47.2557 8.79661 47.2731 9.42373 47.0117 9.95763C44.1367 15.8644 37.9422 19.678 31.2338 19.678L31.2164 19.6525ZM46.8375 8.34746C46.8375 8.38983 46.8375 8.4322 46.8375 8.4661C46.8375 8.42373 46.8375 8.38136 46.8375 8.34746Z" fill="#666666"/>
<path d="M31.2162 11.2626C26.3547 11.2626 22.3906 7.41519 22.3906 2.6779C22.3906 2.40671 22.408 2.13553 22.4342 1.86434C22.5387 0.821968 23.4884 0.0592564 24.56 0.160951C25.6316 0.262646 26.4157 1.18638 26.3112 2.22875C26.2937 2.38129 26.285 2.53383 26.285 2.68638C26.285 5.33044 28.4979 7.48299 31.2162 7.48299C32.8976 7.48299 34.4484 6.66095 35.3632 5.2796C35.9469 4.39824 37.1492 4.15248 38.0553 4.7118C38.9614 5.2796 39.2141 6.44909 38.639 7.33044C37.0098 9.79654 34.2306 11.2626 31.2162 11.2626Z" fill="#666666"/>
<path d="M130.772 40.5084H123.488C122.417 40.5084 121.545 39.6609 121.545 38.6185V19.7287C121.545 18.6863 122.417 17.8389 123.488 17.8389H130.772C137.201 17.8389 142.429 22.9236 142.429 29.1779C142.429 35.4321 137.201 40.5168 130.772 40.5168V40.5084ZM125.44 36.7287H130.78C135.058 36.7287 138.543 33.3389 138.543 29.1779C138.543 25.0168 135.058 21.627 130.78 21.627H125.44V36.7287Z" fill="#666666"/>
<path d="M171.057 40.5085H163.774C157.344 40.5085 152.117 35.4238 152.117 29.1695C152.117 22.9153 157.344 17.8306 163.774 17.8306H171.057C172.129 17.8306 173 18.678 173 19.7204C173 20.7628 172.129 21.6102 171.057 21.6102H163.774C159.496 21.6102 156.011 25.0001 156.011 29.1611C156.011 33.3221 159.496 36.7119 163.774 36.7119H171.057C172.129 36.7119 173 37.5594 173 38.6018C173 39.6441 172.129 40.4916 171.057 40.4916V40.5085Z" fill="#666666"/>
<path d="M113.06 40.5084H100.923C99.8517 40.5084 98.9805 39.661 98.9805 38.6186C98.9805 37.5762 99.8517 36.7288 100.923 36.7288H113.06C114.663 36.7288 115.969 35.4576 115.969 33.8983C115.969 32.3389 114.663 31.0678 113.06 31.0678H105.776C102.03 31.0678 98.9805 28.1017 98.9805 24.4576C98.9805 20.8135 102.03 17.8474 105.776 17.8474H117.912C118.984 17.8474 119.855 18.6949 119.855 19.7372C119.855 20.7796 118.984 21.6271 117.912 21.6271H105.776C104.173 21.6271 102.866 22.8983 102.866 24.4576C102.866 26.0169 104.173 27.2881 105.776 27.2881H113.06C116.806 27.2881 119.855 30.2542 119.855 33.8983C119.855 37.5423 116.806 40.5084 113.06 40.5084Z" fill="#666666"/>
<path d="M147.264 41.0931C146.193 41.0931 145.321 40.2457 145.321 39.2033V19.144C145.321 18.1016 146.193 17.2542 147.264 17.2542C148.336 17.2542 149.207 18.1016 149.207 19.144V39.2033C149.207 40.2457 148.336 41.0931 147.264 41.0931Z" fill="#666666"/>
<path d="M95.3474 40.5084H80.7805C77.0342 40.5084 73.9849 37.5423 73.9849 33.8983C73.9849 30.2542 77.0342 27.2881 80.7805 27.2881H93.3959V22.3559C93.3959 21.9491 93.0561 21.6271 92.6466 21.6271H75.9277C74.8561 21.6271 73.9849 20.7796 73.9849 19.7372C73.9849 18.6949 74.8561 17.8474 75.9277 17.8474H92.6466C95.208 17.8474 97.2902 19.8728 97.2902 22.3644V38.6271C97.2902 39.6694 96.419 40.5169 95.3474 40.5169V40.5084ZM80.7805 31.0678C79.1774 31.0678 77.8705 32.3389 77.8705 33.8983C77.8705 35.4576 79.1774 36.7288 80.7805 36.7288H93.3959V31.0678H80.7805Z" fill="#666666"/>
<path d="M77.252 48.4747C77.2084 48.3306 77.1561 48.1865 77.1039 48.034C77.0516 47.8815 76.9993 47.7289 76.9383 47.5848H75.283C75.2307 47.7374 75.1785 47.8815 75.1262 48.034C75.0739 48.1865 75.0216 48.3306 74.9781 48.4747H73.9849C74.1417 48.034 74.2985 47.6187 74.4379 47.2459C74.5773 46.873 74.7167 46.517 74.8561 46.1865C74.9955 45.856 75.1262 45.534 75.2569 45.2374C75.3875 44.9408 75.5269 44.6442 75.6663 44.3645H76.5724C76.7118 44.6526 76.8512 44.9408 76.9819 45.2374C77.1126 45.534 77.252 45.856 77.3914 46.1865C77.5308 46.517 77.6702 46.873 77.8096 47.2459C77.949 47.6187 78.1058 48.034 78.2626 48.4747H77.2433H77.252ZM76.102 45.2882C76.0845 45.3476 76.0497 45.4323 76.0061 45.534C75.9626 45.6357 75.919 45.7543 75.8667 45.8899C75.8144 46.0255 75.7535 46.1696 75.6925 46.3391C75.6315 46.5001 75.5618 46.6696 75.4921 46.8476H76.7031C76.6421 46.6696 76.5724 46.5001 76.5114 46.3391C76.4504 46.1781 76.3895 46.0255 76.3372 45.8899C76.2849 45.7543 76.2326 45.6357 76.1891 45.534C76.1455 45.4323 76.1107 45.3476 76.0932 45.2882H76.102Z" fill="#666666"/>
<path d="M78.8115 48.4746V44.356H81.643V45.1356H79.7612V46H81.4339V46.7797H79.7612V48.4831H78.8115V48.4746Z" fill="#666666"/>
<path d="M83.5596 44.3136C84.1956 44.3136 84.6834 44.4237 85.0232 44.6441C85.363 44.8644 85.5285 45.2034 85.5285 45.6695C85.5285 45.9576 85.4588 46.1949 85.3282 46.3729C85.1888 46.5509 84.9971 46.6949 84.7357 46.7966C84.8228 46.8983 84.91 47.017 85.0058 47.1526C85.1016 47.2882 85.1888 47.4238 85.2846 47.5678C85.3804 47.7119 85.4676 47.8644 85.5547 48.017C85.6418 48.1695 85.7202 48.3305 85.7899 48.4746H84.727C84.6486 48.339 84.5702 48.2034 84.4918 48.0678C84.4134 47.9322 84.3262 47.7966 84.2478 47.661C84.1694 47.5254 84.0823 47.4068 84.0039 47.2882C83.9255 47.1695 83.8384 47.0678 83.7599 46.9661H83.2895V48.4661H82.3398V44.4068C82.5489 44.3644 82.758 44.339 82.9846 44.3221C83.2024 44.3051 83.4027 44.2966 83.577 44.2966L83.5596 44.3136ZM83.6118 45.1017C83.5421 45.1017 83.4812 45.1017 83.4289 45.1017C83.3766 45.1017 83.3243 45.1017 83.2721 45.1102V46.2288H83.5421C83.8993 46.2288 84.1607 46.1865 84.3088 46.1017C84.4656 46.017 84.5441 45.8644 84.5441 45.6526C84.5441 45.4407 84.4656 45.3051 84.3088 45.2204C84.152 45.1356 83.9168 45.0932 83.6118 45.0932V45.1017Z" fill="#666666"/>
<path d="M86.3911 44.356H87.3407V48.4746H86.3911V44.356Z" fill="#666666"/>
<path d="M90.2509 48.5593C89.5626 48.5593 89.0399 48.3729 88.6739 48C88.3167 47.6271 88.1338 47.1017 88.1338 46.4152C88.1338 46.0763 88.1861 45.7712 88.2993 45.5C88.4126 45.2288 88.5607 45.0085 88.7524 44.822C88.944 44.6356 89.1706 44.5 89.4406 44.4068C89.702 44.3135 89.9895 44.2627 90.3031 44.2627C90.4861 44.2627 90.6429 44.2796 90.791 44.3051C90.9391 44.3305 91.0698 44.3644 91.1744 44.3983C91.2876 44.4322 91.3748 44.4661 91.4532 44.5C91.5229 44.5339 91.5751 44.5593 91.61 44.5847L91.3312 45.3305C91.2005 45.2627 91.0524 45.2034 90.8782 45.161C90.7039 45.1186 90.5122 45.0932 90.2857 45.0932C90.1376 45.0932 89.9982 45.1186 89.8588 45.161C89.7194 45.2034 89.5975 45.2881 89.4842 45.3898C89.3796 45.4915 89.2925 45.6271 89.2228 45.7966C89.1531 45.9661 89.127 46.161 89.127 46.4068C89.127 46.5932 89.1444 46.7712 89.188 46.9407C89.2315 47.1017 89.3012 47.2457 89.3971 47.3644C89.4929 47.483 89.6149 47.5763 89.7717 47.6441C89.9285 47.7118 90.1115 47.7457 90.3293 47.7457C90.4687 47.7457 90.5907 47.7457 90.7039 47.7203C90.8172 47.7034 90.913 47.6864 91.0001 47.661C91.0873 47.6356 91.157 47.6186 91.2266 47.5847C91.2876 47.5593 91.3486 47.5339 91.4009 47.5085L91.6623 48.2542C91.5316 48.3305 91.3399 48.4068 91.096 48.4661C90.852 48.5254 90.5645 48.5593 90.2509 48.5593Z" fill="#666666"/>
<path d="M95.2949 48.4747C95.2514 48.3306 95.1991 48.1865 95.1468 48.034C95.0946 47.8815 95.0423 47.7289 94.9813 47.5848H93.326C93.2737 47.7374 93.2214 47.8815 93.1691 48.034C93.1169 48.1865 93.0646 48.3306 93.021 48.4747H92.0278C92.1847 48.034 92.3415 47.6187 92.4809 47.2459C92.6203 46.873 92.7597 46.517 92.8991 46.1865C93.0385 45.856 93.1691 45.534 93.2998 45.2374C93.4305 44.9408 93.5699 44.6442 93.7093 44.3645H94.6154C94.7548 44.6526 94.8942 44.9408 95.0249 45.2374C95.1555 45.534 95.2949 45.856 95.4343 46.1865C95.5737 46.517 95.7131 46.873 95.8525 47.2459C95.9919 47.6187 96.1488 48.034 96.3056 48.4747H95.2862H95.2949ZM94.1449 45.2882C94.1275 45.3476 94.0926 45.4323 94.0491 45.534C94.0055 45.6357 93.962 45.7543 93.9097 45.8899C93.8574 46.0255 93.7964 46.1696 93.7354 46.3391C93.6745 46.5001 93.6048 46.6696 93.5351 46.8476H94.7461C94.6851 46.6696 94.6154 46.5001 94.5544 46.3391C94.4934 46.1781 94.4324 46.0255 94.3802 45.8899C94.3279 45.7543 94.2756 45.6357 94.232 45.534C94.1885 45.4323 94.1536 45.3476 94.1362 45.2882H94.1449Z" fill="#666666"/>
<path d="M99.6947 48.4745C99.4246 48 99.1284 47.5339 98.8061 47.0762C98.4924 46.6186 98.1526 46.1864 97.7954 45.7711V48.4661H96.8545V44.3474H97.6299C97.7606 44.4745 97.9087 44.6355 98.0742 44.8305C98.2397 45.0169 98.4053 45.2203 98.5708 45.4406C98.7363 45.6525 98.9106 45.8813 99.0761 46.1101C99.2417 46.3389 99.3985 46.5678 99.5466 46.7796V44.3474H100.496V48.4661H99.6947V48.4745Z" fill="#666666"/>
<path d="M104.095 47.7712C104.225 47.7712 104.339 47.7627 104.426 47.7373C104.513 47.7118 104.582 47.6864 104.635 47.6441C104.687 47.6102 104.722 47.5593 104.748 47.5085C104.765 47.4576 104.783 47.3983 104.783 47.339C104.783 47.2034 104.722 47.0932 104.591 47C104.46 46.9068 104.234 46.8135 103.92 46.7118C103.781 46.661 103.642 46.6102 103.502 46.5508C103.363 46.4915 103.241 46.4152 103.128 46.322C103.014 46.2288 102.927 46.1186 102.857 45.983C102.788 45.8474 102.753 45.6864 102.753 45.5C102.753 45.3135 102.788 45.1356 102.866 44.983C102.936 44.8305 103.04 44.7034 103.18 44.5932C103.31 44.483 103.476 44.4068 103.668 44.3474C103.859 44.2881 104.077 44.2627 104.312 44.2627C104.6 44.2627 104.844 44.2966 105.053 44.3559C105.262 44.4152 105.428 44.483 105.567 44.5508L105.288 45.2796C105.166 45.2203 105.036 45.1695 104.896 45.1186C104.748 45.0763 104.574 45.0508 104.373 45.0508C104.147 45.0508 103.981 45.0847 103.885 45.1441C103.79 45.2034 103.737 45.2966 103.737 45.4237C103.737 45.5 103.755 45.5593 103.79 45.6102C103.824 45.661 103.877 45.7118 103.946 45.7457C104.016 45.7881 104.095 45.822 104.182 45.8559C104.269 45.8898 104.365 45.9237 104.469 45.9576C104.687 46.0339 104.879 46.1186 105.044 46.1949C105.21 46.2712 105.34 46.3644 105.454 46.4661C105.558 46.5678 105.645 46.6864 105.698 46.8305C105.75 46.9661 105.776 47.1356 105.776 47.339C105.776 47.7203 105.637 48.0254 105.358 48.2373C105.079 48.4491 104.661 48.5593 104.103 48.5593C103.912 48.5593 103.746 48.5508 103.598 48.5254C103.45 48.5 103.31 48.4746 103.197 48.4491C103.084 48.4152 102.979 48.3813 102.901 48.3474C102.814 48.3135 102.744 48.2796 102.692 48.2457L102.962 47.5085C103.084 47.5763 103.241 47.6356 103.432 47.6864C103.615 47.7373 103.842 47.7627 104.112 47.7627L104.095 47.7712Z" fill="#666666"/>
<path d="M109.513 44.356V45.1441H108.233V48.4746H107.283V45.1441H106.002V44.356H109.505H109.513Z" fill="#666666"/>
<path d="M112.467 48.4747C112.424 48.3306 112.371 48.1865 112.319 48.034C112.267 47.8815 112.215 47.7289 112.154 47.5848H110.498C110.446 47.7374 110.394 47.8815 110.342 48.034C110.289 48.1865 110.237 48.3306 110.193 48.4747H109.2C109.357 48.034 109.514 47.6187 109.653 47.2459C109.793 46.873 109.932 46.517 110.071 46.1865C110.211 45.856 110.342 45.534 110.472 45.2374C110.603 44.9408 110.742 44.6442 110.882 44.3645H111.788C111.927 44.6526 112.067 44.9408 112.197 45.2374C112.328 45.534 112.467 45.856 112.607 46.1865C112.746 46.517 112.885 46.873 113.025 47.2459C113.164 47.6187 113.321 48.034 113.478 48.4747H112.459H112.467ZM111.317 45.2882C111.3 45.3476 111.265 45.4323 111.221 45.534C111.178 45.6357 111.134 45.7543 111.082 45.8899C111.03 46.0255 110.969 46.1696 110.908 46.3391C110.847 46.5001 110.777 46.6696 110.707 46.8476H111.918C111.857 46.6696 111.788 46.5001 111.727 46.3391C111.666 46.1781 111.605 46.0255 111.553 45.8899C111.5 45.7543 111.448 45.6357 111.404 45.534C111.361 45.4323 111.326 45.3476 111.309 45.2882H111.317Z" fill="#666666"/>
<path d="M115.264 44.3136C115.9 44.3136 116.388 44.4237 116.727 44.6441C117.067 44.8644 117.233 45.2034 117.233 45.6695C117.233 45.9576 117.163 46.1949 117.032 46.3729C116.893 46.5509 116.701 46.6949 116.44 46.7966C116.527 46.8983 116.614 47.017 116.71 47.1526C116.806 47.2882 116.893 47.4238 116.989 47.5678C117.085 47.7119 117.172 47.8644 117.259 48.017C117.346 48.1695 117.424 48.3305 117.494 48.4746H116.431C116.353 48.339 116.274 48.2034 116.196 48.0678C116.117 47.9322 116.03 47.7966 115.952 47.661C115.874 47.5254 115.786 47.4068 115.708 47.2882C115.63 47.1695 115.542 47.0678 115.464 46.9661H114.994V48.4661H114.044V44.4068C114.253 44.3644 114.462 44.339 114.689 44.3221C114.906 44.3051 115.107 44.2966 115.281 44.2966L115.264 44.3136ZM115.325 45.1017C115.255 45.1017 115.194 45.1017 115.142 45.1017C115.089 45.1017 115.037 45.1017 114.985 45.1102V46.2288H115.255C115.612 46.2288 115.874 46.1865 116.022 46.1017C116.178 46.017 116.257 45.8644 116.257 45.6526C116.257 45.4407 116.178 45.3051 116.022 45.2204C115.865 45.1356 115.63 45.0932 115.325 45.0932V45.1017Z" fill="#666666"/>
<path d="M121.18 44.356V45.1441H119.899V48.4746H118.949V45.1441H117.668V44.356H121.171H121.18Z" fill="#666666"/>
<path d="M123.445 48.5594C123.149 48.5594 122.887 48.517 122.678 48.4408C122.46 48.356 122.286 48.2459 122.147 48.1018C122.007 47.9577 121.903 47.7882 121.833 47.5848C121.763 47.3815 121.729 47.1611 121.729 46.9238V44.3645H122.678V46.8476C122.678 47.017 122.696 47.1526 122.739 47.2713C122.774 47.3899 122.835 47.4831 122.896 47.5594C122.966 47.6357 123.044 47.6865 123.14 47.7204C123.236 47.7543 123.34 47.7713 123.454 47.7713C123.689 47.7713 123.872 47.7035 124.02 47.5594C124.168 47.4238 124.238 47.1865 124.238 46.856V44.373H125.187V46.9323C125.187 47.1781 125.152 47.3984 125.083 47.6018C125.013 47.8052 124.909 47.9747 124.769 48.1187C124.63 48.2628 124.447 48.373 124.229 48.4577C124.011 48.5425 123.75 48.5764 123.445 48.5764V48.5594Z" fill="#666666"/>
<path d="M127.382 44.3135C128.01 44.3135 128.498 44.4236 128.837 44.6355C129.177 44.8474 129.343 45.2033 129.343 45.6948C129.343 46.1864 129.168 46.5508 128.829 46.7711C128.489 46.9914 128.001 47.1016 127.365 47.1016H127.069V48.483H126.119V44.4236C126.328 44.3813 126.546 44.3558 126.781 44.3389C127.017 44.322 127.217 44.3135 127.391 44.3135H127.382ZM127.443 45.1016C127.374 45.1016 127.304 45.1016 127.243 45.1016C127.173 45.1016 127.121 45.1016 127.069 45.1101V46.2965H127.365C127.696 46.2965 127.94 46.2542 128.114 46.1694C128.28 46.0847 128.367 45.9236 128.367 45.6864C128.367 45.5677 128.349 45.4745 128.306 45.3982C128.262 45.322 128.201 45.2626 128.123 45.2203C128.045 45.1779 127.949 45.144 127.835 45.127C127.722 45.1101 127.592 45.1016 127.461 45.1016H127.443Z" fill="#666666"/>
<path d="M131.199 47.7712C131.329 47.7712 131.443 47.7627 131.53 47.7373C131.617 47.7118 131.686 47.6864 131.739 47.6441C131.791 47.6102 131.826 47.5593 131.852 47.5085C131.869 47.4576 131.887 47.3983 131.887 47.339C131.887 47.2034 131.826 47.0932 131.695 47C131.565 46.9068 131.338 46.8135 131.024 46.7118C130.885 46.661 130.746 46.6102 130.606 46.5508C130.467 46.4915 130.345 46.4152 130.232 46.322C130.118 46.2288 130.031 46.1186 129.961 45.983C129.892 45.8474 129.857 45.6864 129.857 45.5C129.857 45.3135 129.892 45.1356 129.97 44.983C130.04 44.8305 130.144 44.7034 130.284 44.5932C130.414 44.483 130.58 44.4068 130.772 44.3474C130.963 44.2881 131.181 44.2627 131.416 44.2627C131.704 44.2627 131.948 44.2966 132.157 44.3559C132.366 44.4152 132.532 44.483 132.671 44.5508L132.392 45.2796C132.27 45.2203 132.14 45.1695 132 45.1186C131.852 45.0763 131.678 45.0508 131.477 45.0508C131.251 45.0508 131.085 45.0847 130.989 45.1441C130.894 45.2034 130.841 45.2966 130.841 45.4237C130.841 45.5 130.859 45.5593 130.894 45.6102C130.929 45.661 130.981 45.7118 131.05 45.7457C131.12 45.7881 131.199 45.822 131.286 45.8559C131.373 45.8898 131.469 45.9237 131.573 45.9576C131.791 46.0339 131.983 46.1186 132.148 46.1949C132.314 46.2712 132.444 46.3644 132.558 46.4661C132.662 46.5678 132.749 46.6864 132.802 46.8305C132.854 46.9661 132.88 47.1356 132.88 47.339C132.88 47.7203 132.741 48.0254 132.462 48.2373C132.183 48.4491 131.765 48.5593 131.207 48.5593C131.016 48.5593 130.85 48.5508 130.702 48.5254C130.554 48.5 130.414 48.4746 130.301 48.4491C130.188 48.4152 130.083 48.3813 130.005 48.3474C129.918 48.3135 129.848 48.2796 129.796 48.2457L130.066 47.5085C130.188 47.5763 130.345 47.6356 130.536 47.6864C130.719 47.7373 130.946 47.7627 131.216 47.7627L131.199 47.7712Z" fill="#666666"/>
<path d="M138.77 46.4152C138.77 46.7712 138.709 47.0847 138.595 47.3474C138.482 47.6102 138.317 47.8305 138.107 48.0085C137.898 48.1864 137.646 48.3135 137.341 48.3983C137.036 48.483 136.705 48.5254 136.33 48.5254C136.156 48.5254 135.955 48.5254 135.729 48.5085C135.502 48.4915 135.276 48.4661 135.058 48.4237V44.4152C135.276 44.3729 135.511 44.3474 135.746 44.339C135.982 44.322 136.191 44.322 136.356 44.322C136.722 44.322 137.045 44.3644 137.341 44.4407C137.637 44.5169 137.89 44.6441 138.099 44.8135C138.308 44.983 138.473 45.2034 138.587 45.4661C138.7 45.7288 138.761 46.0508 138.761 46.4237L138.77 46.4152ZM136.016 47.7203C136.06 47.7203 136.112 47.7203 136.173 47.7288C136.234 47.7288 136.304 47.7288 136.382 47.7288C136.862 47.7288 137.21 47.6102 137.445 47.3813C137.672 47.1441 137.794 46.822 137.794 46.4152C137.794 46.0085 137.681 45.6525 137.463 45.4322C137.245 45.2119 136.896 45.1017 136.417 45.1017C136.356 45.1017 136.287 45.1017 136.217 45.1017C136.147 45.1017 136.086 45.1017 136.025 45.1186V47.7203H136.016Z" fill="#666666"/>
<path d="M139.562 44.356H140.512V48.4746H139.562V44.356Z" fill="#666666"/>
<path d="M143.561 45.0678C143.117 45.0678 142.795 45.1864 142.603 45.4237C142.403 45.661 142.307 45.9915 142.307 46.4068C142.307 46.6102 142.333 46.7881 142.376 46.9576C142.429 47.1186 142.498 47.2627 142.594 47.3813C142.69 47.5 142.812 47.5932 142.96 47.661C143.108 47.7288 143.274 47.7627 143.474 47.7627C143.579 47.7627 143.675 47.7627 143.744 47.7627C143.823 47.7627 143.884 47.7542 143.945 47.7373V46.3051H144.894V48.339C144.781 48.3813 144.598 48.4322 144.345 48.4746C144.093 48.5254 143.779 48.5508 143.413 48.5508C143.099 48.5508 142.803 48.5 142.551 48.4068C142.289 48.3135 142.071 48.1695 141.888 47.9915C141.706 47.8135 141.566 47.5847 141.462 47.322C141.366 47.0593 141.313 46.7542 141.313 46.4152C141.313 46.0763 141.366 45.7627 141.479 45.5C141.592 45.2373 141.74 45.0085 141.932 44.822C142.124 44.6356 142.35 44.5 142.603 44.4068C142.864 44.3135 143.134 44.2627 143.431 44.2627C143.631 44.2627 143.814 44.2796 143.971 44.3051C144.128 44.3305 144.267 44.3644 144.389 44.3983C144.502 44.4322 144.598 44.4661 144.676 44.5C144.755 44.5339 144.807 44.5593 144.842 44.5847L144.563 45.3305C144.432 45.2627 144.284 45.2034 144.11 45.1525C143.945 45.1017 143.753 45.0763 143.561 45.0763V45.0678Z" fill="#666666"/>
<path d="M145.783 44.356H146.732V48.4746H145.783V44.356Z" fill="#666666"/>
<path d="M150.853 44.356V45.1441H149.573V48.4746H148.623V45.1441H147.342V44.356H150.845H150.853Z" fill="#666666"/>
<path d="M153.807 48.4747C153.764 48.3306 153.711 48.1865 153.659 48.034C153.607 47.8815 153.554 47.7289 153.494 47.5848H151.838C151.786 47.7374 151.734 47.8815 151.681 48.034C151.629 48.1865 151.577 48.3306 151.533 48.4747H150.54C150.697 48.034 150.854 47.6187 150.993 47.2459C151.132 46.873 151.272 46.517 151.411 46.1865C151.551 45.856 151.681 45.534 151.812 45.2374C151.943 44.9408 152.082 44.6442 152.222 44.3645H153.128C153.267 44.6526 153.406 44.9408 153.537 45.2374C153.668 45.534 153.807 45.856 153.947 46.1865C154.086 46.517 154.225 46.873 154.365 47.2459C154.504 47.6187 154.661 48.034 154.818 48.4747H153.798H153.807ZM152.657 45.2882C152.64 45.3476 152.605 45.4323 152.561 45.534C152.518 45.6357 152.474 45.7543 152.422 45.8899C152.37 46.0255 152.309 46.1696 152.248 46.3391C152.187 46.5001 152.117 46.6696 152.047 46.8476H153.258C153.197 46.6696 153.128 46.5001 153.067 46.3391C153.006 46.1781 152.945 46.0255 152.892 45.8899C152.84 45.7543 152.788 45.6357 152.744 45.534C152.701 45.4323 152.666 45.3476 152.648 45.2882H152.657Z" fill="#666666"/>
<path d="M158.198 47.678V48.4746H155.366V44.356H156.316V47.678H158.189H158.198Z" fill="#666666"/>
<path d="M163.112 48.4747C163.068 48.3306 163.016 48.1865 162.964 48.034C162.911 47.8815 162.859 47.7289 162.798 47.5848H161.143C161.091 47.7374 161.038 47.8815 160.986 48.034C160.934 48.1865 160.881 48.3306 160.838 48.4747H159.845C160.002 48.034 160.158 47.6187 160.298 47.2459C160.437 46.873 160.577 46.517 160.716 46.1865C160.855 45.856 160.986 45.534 161.117 45.2374C161.247 44.9408 161.387 44.6442 161.526 44.3645H162.432C162.572 44.6526 162.711 44.9408 162.842 45.2374C162.972 45.534 163.112 45.856 163.251 46.1865C163.391 46.517 163.53 46.873 163.669 47.2459C163.809 47.6187 163.966 48.034 164.122 48.4747H163.103H163.112ZM161.971 45.2882C161.953 45.3476 161.918 45.4323 161.875 45.534C161.831 45.6357 161.788 45.7543 161.735 45.8899C161.683 46.0255 161.622 46.1696 161.561 46.3391C161.5 46.5001 161.43 46.6696 161.361 46.8476H162.572C162.511 46.6696 162.441 46.5001 162.38 46.3391C162.319 46.1781 162.258 46.0255 162.206 45.8899C162.153 45.7543 162.101 45.6357 162.058 45.534C162.014 45.4323 161.979 45.3476 161.962 45.2882H161.971Z" fill="#666666"/>
<path d="M167.52 48.4745C167.25 48 166.954 47.5339 166.631 47.0762C166.318 46.6186 165.978 46.1864 165.621 45.7711V48.4661H164.68V44.3474H165.455C165.586 44.4745 165.734 44.6355 165.899 44.8305C166.065 45.0169 166.23 45.2203 166.396 45.4406C166.562 45.6525 166.736 45.8813 166.901 46.1101C167.067 46.3389 167.224 46.5678 167.372 46.7796V44.3474H168.321V48.4661H167.52V48.4745Z" fill="#666666"/>
<path d="M173 46.4152C173 46.7712 172.939 47.0847 172.826 47.3474C172.713 47.6102 172.547 47.8305 172.338 48.0085C172.129 48.1864 171.876 48.3135 171.571 48.3983C171.266 48.483 170.935 48.5254 170.561 48.5254C170.386 48.5254 170.186 48.5254 169.959 48.5085C169.733 48.4915 169.506 48.4661 169.289 48.4237V44.4152C169.506 44.3729 169.742 44.3474 169.977 44.339C170.212 44.322 170.421 44.322 170.587 44.322C170.953 44.322 171.275 44.3644 171.571 44.4407C171.867 44.5169 172.12 44.6441 172.329 44.8135C172.538 44.983 172.704 45.2034 172.817 45.4661C172.93 45.7288 172.991 46.0508 172.991 46.4237L173 46.4152ZM170.247 47.7203C170.29 47.7203 170.343 47.7203 170.404 47.7288C170.465 47.7288 170.534 47.7288 170.613 47.7288C171.092 47.7288 171.441 47.6102 171.676 47.3813C171.902 47.1441 172.024 46.822 172.024 46.4152C172.024 46.0085 171.911 45.6525 171.693 45.4322C171.475 45.2119 171.127 45.1017 170.648 45.1017C170.587 45.1017 170.517 45.1017 170.447 45.1017C170.378 45.1017 170.317 45.1017 170.256 45.1186V47.7203H170.247Z" fill="#666666"/>
<path d="M74.4116 50.5508H75.3613V54.6694H74.4116V50.5508Z" fill="#666666"/>
<path d="M79.1776 54.6696C78.9075 54.195 78.6113 53.7289 78.289 53.2713C77.9753 52.8137 77.6355 52.3815 77.2783 51.9662V54.6611H76.3374V50.5425H77.1128C77.2435 50.6696 77.3916 50.8306 77.5571 51.0255C77.7227 51.212 77.8882 51.4154 78.0537 51.6357C78.2193 51.8476 78.3935 52.0764 78.559 52.3052C78.7246 52.534 78.8814 52.7628 79.0295 52.9747V50.5425H79.9791V54.6611H79.1776V54.6696Z" fill="#666666"/>
<path d="M83.7948 54.6696C83.5247 54.195 83.2285 53.7289 82.9061 53.2713C82.5925 52.8137 82.2527 52.3815 81.8955 51.9662V54.6611H80.9546V50.5425H81.73C81.8607 50.6696 82.0088 50.8306 82.1743 51.0255C82.3398 51.212 82.5054 51.4154 82.6709 51.6357C82.8364 51.8476 83.0107 52.0764 83.1762 52.3052C83.3418 52.534 83.4986 52.7628 83.6467 52.9747V50.5425H84.5963V54.6611H83.7948V54.6696Z" fill="#666666"/>
<path d="M89.6058 52.6018C89.6058 52.9577 89.5536 53.2628 89.4403 53.534C89.3358 53.8052 89.1876 54.0255 88.996 54.2035C88.8043 54.3814 88.5865 54.517 88.3251 54.6102C88.0638 54.7035 87.785 54.7458 87.4887 54.7458C87.1925 54.7458 86.9312 54.7035 86.6698 54.6102C86.4171 54.517 86.1906 54.3814 85.9989 54.2035C85.8073 54.0255 85.6592 53.7967 85.5459 53.534C85.4326 53.2628 85.3804 52.9577 85.3804 52.6018C85.3804 52.2458 85.4414 51.9407 85.5546 51.6696C85.6679 51.3984 85.8247 51.178 86.0164 50.9916C86.208 50.8052 86.4346 50.6696 86.6872 50.5848C86.9399 50.4916 87.21 50.4492 87.4887 50.4492C87.7675 50.4492 88.055 50.4916 88.3077 50.5848C88.5604 50.678 88.7869 50.8136 88.9785 50.9916C89.1702 51.178 89.3183 51.3984 89.4316 51.6696C89.5448 51.9407 89.5971 52.2458 89.5971 52.6018H89.6058ZM86.3736 52.6018C86.3736 52.8052 86.3997 52.9831 86.452 53.1526C86.5043 53.3136 86.574 53.4577 86.6698 53.5679C86.7656 53.6865 86.8789 53.7713 87.0183 53.839C87.1577 53.8984 87.3145 53.9323 87.4975 53.9323C87.6804 53.9323 87.8285 53.8984 87.9679 53.839C88.1073 53.7797 88.2293 53.6865 88.3251 53.5679C88.421 53.4492 88.4907 53.3136 88.5429 53.1526C88.5952 52.9916 88.6213 52.8052 88.6213 52.6018C88.6213 52.3984 88.5952 52.2204 88.5429 52.0509C88.4907 51.8899 88.421 51.7458 88.3251 51.6272C88.2293 51.5085 88.1073 51.4238 87.9679 51.356C87.8285 51.2882 87.6717 51.2628 87.4975 51.2628C87.3232 51.2628 87.1577 51.2967 87.0183 51.3645C86.8789 51.4323 86.7656 51.517 86.6698 51.6357C86.574 51.7543 86.5043 51.8899 86.452 52.0594C86.3997 52.2204 86.3736 52.4068 86.3736 52.6018Z" fill="#666666"/>
<path d="M91.5138 54.6695C91.3483 54.322 91.1828 53.9661 91.0172 53.5932C90.8517 53.2203 90.6949 52.8559 90.5468 52.4915C90.3987 52.1271 90.268 51.7797 90.1373 51.4492C90.0153 51.1186 89.9108 50.822 89.8149 50.5593H90.8691C90.9475 50.7966 91.0347 51.0509 91.1305 51.3305C91.2263 51.6017 91.3222 51.8814 91.4267 52.1525C91.5313 52.4237 91.6271 52.6864 91.7142 52.9407C91.8101 53.1949 91.8972 53.4068 91.9756 53.5847C92.054 53.4068 92.1411 53.1864 92.237 52.9407C92.3328 52.6864 92.4286 52.4322 92.5332 52.1525C92.6377 51.8814 92.7336 51.6017 92.8294 51.3305C92.9252 51.0593 93.0124 50.7966 93.0908 50.5593H94.1014C94.0056 50.822 93.901 51.1186 93.7703 51.4492C93.6484 51.7797 93.509 52.1271 93.3696 52.4915C93.2214 52.8559 93.0646 53.2203 92.9078 53.5932C92.7423 53.9661 92.5767 54.322 92.4112 54.6695H91.5051H91.5138Z" fill="#666666"/>
<path d="M97.0987 54.6695C97.0551 54.5254 97.0028 54.3814 96.9505 54.2288C96.8983 54.0763 96.846 53.9237 96.785 53.7797H95.1297C95.0774 53.9322 95.0251 54.0763 94.9729 54.2288C94.9206 54.3814 94.8683 54.5254 94.8247 54.6695H93.8315C93.9884 54.2288 94.1452 53.8136 94.2846 53.4407C94.424 53.0678 94.5634 52.7119 94.7028 52.3814C94.8422 52.0509 94.9729 51.7288 95.1035 51.4322C95.2342 51.1356 95.3736 50.839 95.513 50.5593H96.4191C96.5585 50.8475 96.6979 51.1356 96.8286 51.4322C96.9593 51.7288 97.0987 52.0509 97.2381 52.3814C97.3774 52.7119 97.5168 53.0678 97.6562 53.4407C97.7956 53.8136 97.9525 54.2288 98.1093 54.6695H97.0899H97.0987ZM95.9573 51.4831C95.9399 51.5424 95.9051 51.6271 95.8615 51.7288C95.8179 51.8305 95.7744 51.9492 95.7221 52.0847C95.6698 52.2203 95.6089 52.3644 95.5479 52.5339C95.4869 52.6949 95.4172 52.8644 95.3475 53.0424H96.5585C96.4975 52.8644 96.4278 52.6949 96.3668 52.5339C96.3058 52.3729 96.2449 52.2203 96.1926 52.0847C96.1403 51.9492 96.088 51.8305 96.0445 51.7288C96.0009 51.6271 95.9661 51.5424 95.9486 51.4831H95.9573Z" fill="#666666"/>
<path d="M101.306 50.5508V51.3389H100.026V54.6694H99.0761V51.3389H97.7954V50.5508H101.298H101.306Z" fill="#666666"/>
<path d="M101.917 50.5508H102.866V54.6694H101.917V50.5508Z" fill="#666666"/>
<path d="M107.876 52.6018C107.876 52.9577 107.824 53.2628 107.71 53.534C107.606 53.8052 107.458 54.0255 107.266 54.2035C107.074 54.3814 106.857 54.517 106.595 54.6102C106.334 54.7035 106.055 54.7458 105.759 54.7458C105.463 54.7458 105.201 54.7035 104.94 54.6102C104.687 54.517 104.461 54.3814 104.269 54.2035C104.077 54.0255 103.929 53.7967 103.816 53.534C103.703 53.2628 103.65 52.9577 103.65 52.6018C103.65 52.2458 103.711 51.9407 103.825 51.6696C103.938 51.3984 104.095 51.178 104.286 50.9916C104.478 50.8052 104.705 50.6696 104.957 50.5848C105.21 50.4916 105.48 50.4492 105.759 50.4492C106.038 50.4492 106.325 50.4916 106.578 50.5848C106.83 50.678 107.057 50.8136 107.249 50.9916C107.44 51.178 107.588 51.3984 107.702 51.6696C107.815 51.9407 107.867 52.2458 107.867 52.6018H107.876ZM104.644 52.6018C104.644 52.8052 104.67 52.9831 104.722 53.1526C104.774 53.3136 104.844 53.4577 104.94 53.5679C105.036 53.6865 105.149 53.7713 105.288 53.839C105.428 53.8984 105.585 53.9323 105.767 53.9323C105.95 53.9323 106.099 53.8984 106.238 53.839C106.377 53.7797 106.499 53.6865 106.595 53.5679C106.691 53.4492 106.761 53.3136 106.813 53.1526C106.865 52.9916 106.891 52.8052 106.891 52.6018C106.891 52.3984 106.865 52.2204 106.813 52.0509C106.761 51.8899 106.691 51.7458 106.595 51.6272C106.499 51.5085 106.377 51.4238 106.238 51.356C106.099 51.2882 105.942 51.2628 105.767 51.2628C105.593 51.2628 105.428 51.2967 105.288 51.3645C105.149 51.4323 105.036 51.517 104.94 51.6357C104.844 51.7543 104.774 51.8899 104.722 52.0594C104.67 52.2204 104.644 52.4068 104.644 52.6018Z" fill="#666666"/>
<path d="M111.509 54.6696C111.239 54.195 110.942 53.7289 110.62 53.2713C110.306 52.8137 109.967 52.3815 109.609 51.9662V54.6611H108.668V50.5425H109.444C109.575 50.6696 109.723 50.8306 109.888 51.0255C110.054 51.212 110.219 51.4154 110.385 51.6357C110.55 51.8476 110.725 52.0764 110.89 52.3052C111.056 52.534 111.212 52.7628 111.361 52.9747V50.5425H112.31V54.6611H111.509V54.6696Z" fill="#666666"/>
<path d="M116.684 54.7458C115.996 54.7458 115.473 54.5594 115.107 54.1865C114.75 53.8136 114.567 53.2882 114.567 52.6018C114.567 52.2628 114.619 51.9577 114.732 51.6865C114.846 51.4153 114.994 51.195 115.185 51.0085C115.377 50.8221 115.604 50.6865 115.874 50.5933C116.135 50.5001 116.423 50.4492 116.736 50.4492C116.919 50.4492 117.076 50.4662 117.224 50.4916C117.372 50.517 117.503 50.5509 117.607 50.5848C117.721 50.6187 117.808 50.6526 117.886 50.6865C117.956 50.7204 118.008 50.7458 118.043 50.7713L117.764 51.517C117.634 51.4492 117.486 51.3899 117.311 51.3475C117.137 51.3052 116.945 51.2797 116.719 51.2797C116.571 51.2797 116.431 51.3052 116.292 51.3475C116.153 51.3899 116.031 51.4746 115.917 51.5763C115.813 51.678 115.726 51.8136 115.656 51.9831C115.586 52.1526 115.56 52.3475 115.56 52.5933C115.56 52.7797 115.578 52.9577 115.621 53.1272C115.665 53.2882 115.734 53.4323 115.83 53.5509C115.926 53.6696 116.048 53.7628 116.205 53.8306C116.362 53.8984 116.545 53.9323 116.762 53.9323C116.902 53.9323 117.024 53.9323 117.137 53.9068C117.25 53.8899 117.346 53.8729 117.433 53.8475C117.52 53.8221 117.59 53.8052 117.66 53.7713C117.721 53.7458 117.782 53.7204 117.834 53.695L118.095 54.4407C117.965 54.517 117.773 54.5933 117.529 54.6526C117.285 54.7119 116.998 54.7458 116.684 54.7458Z" fill="#666666"/>
<path d="M122.591 52.6018C122.591 52.9577 122.538 53.2628 122.425 53.534C122.321 53.8052 122.173 54.0255 121.981 54.2035C121.789 54.3814 121.571 54.517 121.31 54.6102C121.049 54.7035 120.77 54.7458 120.474 54.7458C120.177 54.7458 119.916 54.7035 119.655 54.6102C119.402 54.517 119.175 54.3814 118.984 54.2035C118.792 54.0255 118.644 53.7967 118.531 53.534C118.418 53.2628 118.365 52.9577 118.365 52.6018C118.365 52.2458 118.426 51.9407 118.539 51.6696C118.653 51.3984 118.81 51.178 119.001 50.9916C119.193 50.8052 119.419 50.6696 119.672 50.5848C119.925 50.4916 120.195 50.4492 120.474 50.4492C120.752 50.4492 121.04 50.4916 121.293 50.5848C121.545 50.678 121.772 50.8136 121.963 50.9916C122.155 51.178 122.303 51.3984 122.416 51.6696C122.53 51.9407 122.582 52.2458 122.582 52.6018H122.591ZM119.358 52.6018C119.358 52.8052 119.385 52.9831 119.437 53.1526C119.489 53.3136 119.559 53.4577 119.655 53.5679C119.75 53.6865 119.864 53.7713 120.003 53.839C120.143 53.8984 120.299 53.9323 120.482 53.9323C120.665 53.9323 120.813 53.8984 120.953 53.839C121.092 53.7797 121.214 53.6865 121.31 53.5679C121.406 53.4492 121.476 53.3136 121.528 53.1526C121.58 52.9916 121.606 52.8052 121.606 52.6018C121.606 52.3984 121.58 52.2204 121.528 52.0509C121.476 51.8899 121.406 51.7458 121.31 51.6272C121.214 51.5085 121.092 51.4238 120.953 51.356C120.813 51.2882 120.657 51.2628 120.482 51.2628C120.308 51.2628 120.143 51.2967 120.003 51.3645C119.864 51.4323 119.75 51.517 119.655 51.6357C119.559 51.7543 119.489 51.8899 119.437 52.0594C119.385 52.2204 119.358 52.4068 119.358 52.6018Z" fill="#666666"/>
<path d="M125.039 54.7457C124.743 54.7457 124.481 54.7033 124.272 54.6271C124.055 54.5423 123.88 54.4321 123.741 54.2881C123.602 54.144 123.497 53.9745 123.427 53.7711C123.358 53.5677 123.323 53.3474 123.323 53.1101V50.5508H124.272V53.0338C124.272 53.2033 124.29 53.3389 124.333 53.4576C124.368 53.5762 124.429 53.6694 124.49 53.7457C124.56 53.822 124.638 53.8728 124.734 53.9067C124.83 53.9406 124.935 53.9576 125.048 53.9576C125.283 53.9576 125.466 53.8898 125.614 53.7457C125.762 53.6101 125.832 53.3728 125.832 53.0423V50.5593H126.782V53.1186C126.782 53.3643 126.747 53.5847 126.677 53.7881C126.607 53.9915 126.503 54.161 126.363 54.305C126.224 54.4491 126.041 54.5593 125.823 54.644C125.605 54.7287 125.344 54.7626 125.039 54.7626V54.7457Z" fill="#666666"/>
<path d="M130.545 54.6696C130.275 54.195 129.979 53.7289 129.657 53.2713C129.343 52.8137 129.003 52.3815 128.646 51.9662V54.6611H127.705V50.5425H128.48C128.611 50.6696 128.759 50.8306 128.925 51.0255C129.09 51.212 129.256 51.4154 129.421 51.6357C129.587 51.8476 129.761 52.0764 129.927 52.3052C130.092 52.534 130.249 52.7628 130.397 52.9747V50.5425H131.347V54.6611H130.545V54.6696Z" fill="#666666"/>
<path d="M134.248 54.7458C133.56 54.7458 133.037 54.5594 132.671 54.1865C132.314 53.8136 132.131 53.2882 132.131 52.6018C132.131 52.2628 132.183 51.9577 132.296 51.6865C132.41 51.4153 132.558 51.195 132.749 51.0085C132.941 50.8221 133.168 50.6865 133.438 50.5933C133.699 50.5001 133.987 50.4492 134.3 50.4492C134.483 50.4492 134.64 50.4662 134.788 50.4916C134.936 50.517 135.067 50.5509 135.171 50.5848C135.285 50.6187 135.372 50.6526 135.45 50.6865C135.52 50.7204 135.572 50.7458 135.607 50.7713L135.328 51.517C135.198 51.4492 135.049 51.3899 134.875 51.3475C134.701 51.3052 134.509 51.2797 134.283 51.2797C134.135 51.2797 133.995 51.3052 133.856 51.3475C133.716 51.3899 133.595 51.4746 133.481 51.5763C133.377 51.678 133.29 51.8136 133.22 51.9831C133.15 52.1526 133.124 52.3475 133.124 52.5933C133.124 52.7797 133.141 52.9577 133.185 53.1272C133.229 53.2882 133.298 53.4323 133.394 53.5509C133.49 53.6696 133.612 53.7628 133.769 53.8306C133.926 53.8984 134.109 53.9323 134.326 53.9323C134.466 53.9323 134.588 53.9323 134.701 53.9068C134.814 53.8899 134.91 53.8729 134.997 53.8475C135.084 53.8221 135.154 53.8052 135.224 53.7713C135.285 53.7458 135.346 53.7204 135.398 53.695L135.659 54.4407C135.529 54.517 135.337 54.5933 135.093 54.6526C134.849 54.7119 134.562 54.7458 134.248 54.7458Z" fill="#666666"/>
<path d="M136.278 50.5508H137.227V54.6694H136.278V50.5508Z" fill="#666666"/>
<path d="M141.035 53.8728V54.6694H138.203V50.5508H139.153V53.8728H141.026H141.035Z" fill="#666666"/>
</svg>
