<svg width="159" height="60" viewBox="0 0 159 60" fill="none" xmlns="http://www.w3.org/2000/svg">
<path d="M56.2881 42.1868V10.1172H72.0802C75.2355 10.1172 77.6353 10.8996 79.2766 12.4603C80.9179 14.0224 81.74 16.1561 81.74 18.8601C81.74 20.2439 81.3693 21.4749 80.6293 22.5531C79.8879 23.6313 78.954 24.3968 77.8277 24.8467C78.504 25.1071 79.1393 25.4353 79.7365 25.8372C80.3307 26.2404 80.8472 26.7555 81.2816 27.3837C81.716 28.0105 82.0612 28.7519 82.3201 29.6051C82.5777 30.4584 82.7064 31.4644 82.7064 32.6246C82.7064 35.5536 81.723 37.8811 79.7591 39.6017C77.7966 41.3251 74.7856 42.1868 70.729 42.1868H56.2881ZM62.7586 15.6722V22.6267H71.21C73.9154 22.6267 75.2667 21.4692 75.2667 19.1502C75.2667 17.9262 74.92 17.0405 74.2281 16.4929C73.5362 15.9453 72.4014 15.6722 70.8238 15.6722H62.7572H62.7586ZM71.2596 36.7294C72.8047 36.7294 74.0116 36.2936 74.8804 35.4248C75.7506 34.556 76.185 33.4623 76.185 32.1407C76.185 30.7244 75.7577 29.6943 74.9044 29.0491C74.0512 28.4067 72.8683 28.0827 71.3558 28.0827H62.7572V36.7294H71.2581H71.2596Z" fill="#8F8F8F"/>
<path d="M99.0301 42.1873C98.8363 41.5746 98.7061 40.8671 98.6439 40.062C97.9024 40.9011 96.9205 41.5689 95.6966 42.0656C94.4726 42.565 93.0577 42.8141 91.4475 42.8141C88.711 42.8141 86.7074 42.2099 85.434 41.0044C84.1634 39.796 83.5281 38.2268 83.5281 36.294C83.5281 34.589 83.8012 33.2279 84.3487 32.2148C84.8963 31.2017 85.6519 30.4036 86.6197 29.8249C87.5861 29.2462 88.7336 28.8189 90.0708 28.5444C91.4079 28.2713 92.8638 28.0223 94.4429 27.7959C96.0192 27.5723 97.0818 27.2738 97.6294 26.9031C98.1769 26.5338 98.45 25.931 98.45 25.092C98.45 24.3208 98.0878 23.7166 97.3648 23.2808C96.6417 22.8465 95.6668 22.63 94.4429 22.63C92.9926 22.63 91.9555 22.954 91.3286 23.5964C90.7004 24.2416 90.3042 25.0934 90.1429 26.156H84.3006C84.3318 24.9321 84.5341 23.8058 84.902 22.7743C85.2727 21.7456 85.8698 20.8585 86.6905 20.1199C87.5111 19.3784 88.5808 18.8082 89.9024 18.405C91.2211 18.0017 92.8313 17.8008 94.7316 17.8008C96.6318 17.8008 98.1854 18.0088 99.49 18.4276C100.793 18.8478 101.84 19.4492 102.63 20.2387C103.416 21.0283 103.99 22.0102 104.345 23.186C104.697 24.3619 104.877 25.6891 104.877 27.1691V42.1901H99.033L99.0301 42.1873ZM98.5943 30.5466C98.2732 30.8706 97.8048 31.1281 97.195 31.3205C96.5837 31.513 95.698 31.7238 94.5405 31.9488C92.7365 32.3011 91.497 32.7539 90.8207 33.3014C90.1443 33.849 89.8076 34.6357 89.8076 35.6672C89.8076 37.4387 90.8207 38.3216 92.8497 38.3216C93.6548 38.3216 94.4033 38.1858 95.0952 37.9127C95.7871 37.6396 96.3814 37.2675 96.8823 36.802C97.3817 36.3365 97.785 35.7861 98.0906 35.1607C98.3963 34.5324 98.5491 33.8646 98.5491 33.1543L98.5972 30.5466H98.5943Z" fill="#8F8F8F"/>
<path d="M122.838 42.1876V27.7948C122.838 25.9611 122.532 24.7216 121.92 24.0764C121.308 23.4312 120.261 23.11 118.78 23.11C115.528 23.11 113.904 24.9282 113.904 28.5674V42.1862H107.623V18.4237H113.611V21.9016C114.352 20.5489 115.334 19.5273 116.558 18.8354C117.782 18.1435 119.36 17.7969 121.291 17.7969C122.418 17.7969 123.465 17.9638 124.431 18.3034C125.398 18.6402 126.225 19.1496 126.919 19.8259C127.61 20.5022 128.155 21.33 128.56 22.3119C128.96 23.2953 129.164 24.4315 129.164 25.7177V42.1862H122.836L122.838 42.1876Z" fill="#8F8F8F"/>
<path d="M145.389 26.5376H151.233V33.2996C151.233 34.5546 151.048 35.7531 150.679 36.8949C150.308 38.0396 149.729 39.0527 148.94 39.9384C148.15 40.8228 147.152 41.5232 145.946 42.0396C144.737 42.5533 143.297 42.8108 141.624 42.8108C139.952 42.8108 138.404 42.5533 137.18 42.0396C135.956 41.5246 134.95 40.8313 134.16 39.9611C133.371 39.0923 132.801 38.0792 132.446 36.919C132.093 35.7615 131.914 34.5376 131.914 33.2486V10.1172H138.097V18.4243H151.232V22.8686H138.097V32.6246C138.097 34.1372 138.377 35.3045 138.943 36.1252C139.503 36.9458 140.432 37.3562 141.718 37.3562C143.004 37.3562 143.9 36.9529 144.495 36.1478C145.092 35.3456 145.388 34.2009 145.388 32.7194V26.539L145.389 26.5376Z" fill="#8F8F8F"/>
<path d="M169.248 42.1863V38.8527C167.638 41.4944 165.175 42.8131 161.86 42.8131C160.668 42.8131 159.582 42.6051 158.601 42.1863C157.618 41.7675 156.774 41.1704 156.065 40.3993C155.355 39.6253 154.802 38.707 154.399 37.6444C153.995 36.5832 153.794 35.3918 153.794 34.0716V18.4238H160.073V33.1067C160.073 36.0695 161.41 37.551 164.08 37.551C165.69 37.551 166.907 37.0416 167.727 36.0285C168.548 35.0154 168.958 33.7193 168.958 32.1402V18.4238H175.188V42.1863H169.247H169.248Z" fill="#8F8F8F"/>
<path d="M50.3452 33.389C41.5896 32.7692 34.5418 36.0137 29.3702 43.0473C29.2329 42.3073 29.4494 41.5885 29.7267 40.823C30.454 38.8068 31.8194 37.0607 34.1583 35.1548C38.3409 31.7434 42.9833 29.8233 47.9596 29.454C48.2497 29.4314 48.5185 29.3861 48.8624 29.3252C49.035 29.2955 49.2274 29.2616 49.4496 29.2262L50.1542 29.1158L44.452 0.253906L43.7615 0.412379C36.7024 2.04946 30.8233 5.84433 25.8102 11.9979C20.797 5.84575 14.9166 2.04946 7.85884 0.412379L7.16835 0.253906L1.46615 29.1158L2.17079 29.2262C2.39293 29.2616 2.58536 29.2941 2.75799 29.3252C3.1004 29.3861 3.36924 29.4328 3.66072 29.454C8.63847 29.8247 13.2809 31.7434 17.462 35.1548C19.8009 37.0607 21.1663 38.8068 21.8936 40.823C22.171 41.5885 22.3874 42.3073 22.2502 43.0473C17.0786 36.0137 10.0308 32.7692 1.27513 33.389L0.547852 33.4413L0.644067 34.1658C1.54963 40.799 3.92673 45.6069 7.70603 48.4581C11.0623 50.9894 15.4726 51.9388 20.8197 51.2738C20.9782 51.7619 21.1409 52.2501 21.3022 52.7411C21.8314 54.3258 22.3775 55.9629 22.7666 57.6C23.1558 59.2639 23.9764 59.7479 25.6574 59.7479H25.9644C27.6454 59.7479 28.466 59.2654 28.8551 57.6C29.2442 55.9629 29.7904 54.3258 30.3196 52.7411C30.4809 52.2501 30.6436 51.7619 30.8021 51.2738C36.1491 51.9374 40.5595 50.9894 43.9157 48.4581C47.695 45.6055 50.0721 40.799 50.9777 34.1658L51.0739 33.4413L50.3466 33.389H50.3452ZM12.855 45.4216C10.4086 44.1354 8.43755 41.8078 7.54897 39.2157C10.7057 39.4053 15.8532 42.9313 17.8002 46.2776C16.2806 46.6087 14.5557 46.3158 12.8564 45.4216H12.855ZM27.3921 34.1558C26.7865 34.8661 26.2601 35.5948 25.8102 36.3448C25.3602 35.5963 24.8339 34.8661 24.2283 34.1558C20.3782 29.6507 15.266 26.5138 9.03607 24.83C8.6597 24.7281 8.28474 24.6376 7.88997 24.5442L11.3198 7.23805C17.3941 10.0906 21.9431 14.7358 25.1961 21.4186L25.8102 22.6779L26.4243 21.4186C29.6772 14.7358 34.2262 10.0906 40.3006 7.23805L43.7304 24.5442C43.3356 24.6376 42.9592 24.7281 42.5843 24.83C36.3543 26.5138 31.2421 29.6507 27.3921 34.1558ZM38.7639 45.4216C37.0632 46.3158 35.3384 46.6087 33.8201 46.2776C35.7671 42.9327 40.9147 39.4053 44.0714 39.2157C43.1828 41.8064 41.2118 44.1354 38.7654 45.4216H38.7639Z" fill="#8F8F8F"/>
</svg>
