<svg width="264" height="62" viewBox="0 0 264 62" fill="none" xmlns="http://www.w3.org/2000/svg">
<path d="M231.522 39.8327C231.522 43.9327 227.751 45.8799 227.751 45.8799C221.808 48.8953 214.252 46.7508 212.202 46.0689C211.881 45.9621 211.666 45.6416 211.666 45.2801V41.0405C211.666 40.4572 212.209 40.071 212.722 40.2846C216.546 41.9032 221.808 41.5089 223.017 40.8844C224.592 40.0874 223.698 38.9043 223.698 38.9043C223.002 37.9594 218.864 37.3679 218.864 37.3679C215.017 36.6941 213.464 35.0016 213.464 35.0016C211.605 33.3912 211.605 30.5237 211.605 30.5237C211.246 24.7887 215.177 23.1044 215.177 23.1044C221.021 20.4834 227.575 22.291 229.457 22.9154C229.778 23.0222 229.992 23.3427 229.992 23.7042V28.2314C229.954 28.6668 229.61 29.0037 229.189 29.0037C229.136 29.0037 229.082 28.9955 229.029 28.9873C228.975 28.9708 228.922 28.9544 228.876 28.938C225.266 27.8123 222.168 27.7137 222.168 27.7137C217.303 27.6069 218.26 29.8664 219.231 30.3101C220.072 30.688 225.212 31.8054 225.212 31.8054C228.845 32.5942 231.522 35.0344 231.522 39.8327Z" fill="white"/>
<path d="M253.52 39.8327C253.52 43.9327 249.749 45.8799 249.749 45.8799C243.806 48.8953 236.25 46.7508 234.2 46.0689C233.879 45.9621 233.664 45.6416 233.664 45.2801V41.0405C233.664 40.4572 234.208 40.071 234.72 40.2846C238.544 41.9032 243.806 41.5089 245.015 40.8844C246.591 40.0874 245.696 38.9043 245.696 38.9043C245 37.9594 240.862 37.3679 240.862 37.3679C237.015 36.6941 235.462 35.0016 235.462 35.0016C233.603 33.3912 233.603 30.5237 233.603 30.5237C233.244 24.7887 237.175 23.1044 237.175 23.1044C243.019 20.4834 249.573 22.291 251.455 22.9154C251.776 23.0222 251.99 23.3427 251.99 23.7042V28.2314C251.952 28.6668 251.608 29.0037 251.187 29.0037C251.134 29.0037 251.08 28.9955 251.027 28.9873C250.973 28.9708 250.92 28.9544 250.874 28.938C247.264 27.8123 244.166 27.7137 244.166 27.7137C239.301 27.6069 240.258 29.8664 241.229 30.3101C242.07 30.688 247.21 31.8054 247.21 31.8054C250.843 32.5942 253.52 35.0344 253.52 39.8327Z" fill="white"/>
<path d="M203.681 22.4465C195.964 19.9816 189.096 24.2952 188.247 32.076C187.405 39.8568 189.822 46.1669 197.578 47.1775C201.96 47.7527 205.731 46.9228 208.163 46.1012C208.477 45.9944 208.691 45.6739 208.691 45.3206V40.8838C208.691 40.3334 208.202 39.939 207.712 40.0951C204.859 41.0071 196.675 43.0529 195.673 36.9483H209.64C209.64 36.9483 211.414 24.8868 203.681 22.4465ZM202.825 32.0842H195.673C195.673 32.0842 195.933 28.2637 199.528 28.2637C203.123 28.2637 202.825 32.0842 202.825 32.0842Z" fill="white"/>
<path d="M186.096 23.3261V45.8469C186.096 46.2988 185.76 46.6603 185.339 46.6603H180.26C179.84 46.6603 179.503 46.2988 179.503 45.8469V44.7788C179.503 44.7788 170.784 50.4973 166.095 44.8281C164.466 42.8562 164.336 37.2363 164.336 37.2363V23.3261C164.336 22.8742 164.672 22.5127 165.093 22.5127H171.113C171.533 22.5127 171.87 22.8742 171.87 23.3261V36.2667C171.87 36.2667 171.617 40.1777 174.7 40.1777C174.7 40.1777 176.78 40.457 178.593 38.4276V23.3261C178.593 22.8742 178.929 22.5127 179.35 22.5127H185.324C185.744 22.5127 186.081 22.8742 186.081 23.3261H186.096Z" fill="white"/>
<path d="M262.268 22.5127H256.302C255.88 22.5127 255.537 22.8806 255.537 23.3343V45.8469C255.537 46.3007 255.88 46.6685 256.302 46.6685H262.268C262.69 46.6685 263.033 46.3007 263.033 45.8469V23.3343C263.033 22.8806 262.69 22.5127 262.268 22.5127Z" fill="white"/>
<path d="M134.27 14.8959L129.704 34.9272L124.839 14.8877C124.748 14.5262 124.449 14.2715 124.098 14.2715H118.682C118.338 14.2715 118.032 14.518 117.94 14.8795L112.908 34.7875L108.303 14.8959C108.219 14.5262 107.913 14.2715 107.561 14.2715H100.685C100.165 14.2715 99.7981 14.8138 99.951 15.3396L108.892 45.8959C108.992 46.241 109.29 46.4711 109.626 46.4711H115.294C115.638 46.4711 115.937 46.2246 116.036 45.8713L121.183 26.4562L126.339 45.8713C126.43 46.2246 126.736 46.4711 127.08 46.4711H132.786C133.123 46.4711 133.421 46.2328 133.521 45.8959L142.416 15.3396C142.569 14.8055 142.202 14.2715 141.682 14.2715H135.027C134.675 14.2715 134.37 14.5344 134.285 14.8959H134.27Z" fill="white"/>
<path d="M162.555 35.2641C162.555 41.9193 157.53 47.3009 151.35 47.3009C149.629 47.3009 148.008 46.8901 146.555 46.1424C146.669 46.0849 146.799 46.0192 146.929 45.937C149.385 44.417 152.215 42.0014 154.907 39.1011C157.094 36.7512 159.871 33.2922 161.485 30.1289C162.165 31.69 162.548 33.4318 162.548 35.2641H162.555Z" fill="white"/>
<path d="M162.057 23.7533C160.91 22.5373 158.937 22.7345 156.129 24.3778C156.015 24.4435 155.885 24.5175 155.755 24.5996C153.3 26.1196 150.47 28.5516 147.777 31.4356C145.077 34.3359 142.813 37.3841 141.414 40.0216C141.337 40.1612 141.276 40.2845 141.207 40.4077C139.677 43.4149 139.486 45.5593 140.626 46.7836C141.115 47.3094 141.758 47.5723 142.553 47.5723C143.616 47.5723 144.955 47.104 146.553 46.1509C146.668 46.0934 146.798 46.0277 146.928 45.9455C149.383 44.4255 152.213 42.0099 154.906 39.1096C157.093 36.7597 159.87 33.3007 161.483 30.1374C162.791 27.5246 163.319 25.1255 162.049 23.7616L162.057 23.7533ZM153.093 37.1377C149.315 41.1965 146.003 43.5299 144.045 44.4008C143.303 44.7459 142.76 44.8692 142.462 44.8034C142.4 44.4994 142.515 43.9079 142.836 43.1027C143.662 41.0157 145.819 37.4252 149.582 33.3828C153.361 29.324 156.673 26.9906 158.631 26.1196C159.372 25.7745 159.916 25.6513 160.214 25.717C160.229 25.7745 160.229 25.8238 160.229 25.9142C160.229 26.2429 160.099 26.7523 159.847 27.4178C159.021 29.5047 156.864 33.0952 153.101 37.1377H153.093Z" fill="white"/>
<path d="M140.298 39.6021C140.176 39.6021 140.053 39.5528 140 39.4378C139.265 37.7781 138.891 35.9952 138.891 34.1383C138.891 27.3105 144.069 21.7563 150.432 21.7563C152.161 21.7563 153.821 22.1589 155.366 22.9477C155.48 23.0052 155.549 23.1202 155.549 23.2517C155.549 23.3832 155.48 23.5064 155.373 23.5639C152.803 25.1332 149.897 27.6228 147.128 30.5971C144.382 33.5385 142.072 36.6607 140.612 39.3885C140.55 39.4953 140.428 39.5939 140.306 39.5939L140.298 39.6021Z" fill="white"/>
<path d="M80.7535 0H6.16474C2.76113 0 0 2.95786 0 6.6141V55.3859C0 59.0339 2.76113 62 6.16474 62H80.7535C84.1571 62 86.9182 59.0339 86.9182 55.3859V6.6141C86.9182 2.95786 84.1571 0 80.7535 0ZM44.0863 32.0681L34.1967 50.9409C32.4911 54.2274 27.9478 53.6769 26.9459 50.0782L19.7409 23.9504H12.513C10.3561 23.8847 8.61992 21.9703 8.61992 19.6287C8.61992 17.287 10.3561 15.3809 12.513 15.3151H22.5938C24.483 15.3151 26.1504 16.6626 26.6935 18.6016L31.9251 37.573L36.9961 27.8039C38.1204 25.6266 40.8509 24.961 42.6789 26.2181C44.5146 27.4834 45.1418 30.0305 44.0786 32.0681H44.0863ZM77.7935 15.4384L62.4887 44.5569C60.7831 47.8434 56.2322 47.2929 55.2379 43.6941L48.0329 17.5664H40.7974C38.6405 17.5007 36.9119 15.5863 36.9119 13.2446C36.9119 10.903 38.6482 8.99682 40.7974 8.93109H50.8858C52.775 8.93109 54.4424 10.2786 54.9855 12.2176L60.2171 31.189L70.6115 11.1659C71.3304 9.77737 73.3726 7.99443 76.1414 9.40763C77.8776 10.3032 78.9713 13.1707 77.7858 15.4302L77.7935 15.4384Z" fill="white"/>
</svg>

