<svg width="124" height="77" viewBox="0 0 124 77" fill="none" xmlns="http://www.w3.org/2000/svg">
<path d="M7.69456 67.6124V64.0713H2.68922V67.6124H0V58.0452H2.68922V61.5863H7.69456V58.0452H10.3979V67.6124H7.69456Z" fill="#666666"/>
<path d="M121.29 67.6124V64.0713H116.284V67.6124H113.595V58.0452H116.284V61.5863H121.29V58.0452H123.993V67.6124H121.29Z" fill="#666666"/>
<path d="M17.3605 67.6192C17.276 67.35 17.2268 67.067 17.2056 66.784C16.8818 67.1292 16.4735 67.3984 16.0229 67.564C15.4809 67.7711 14.9036 67.8677 14.3193 67.8608C13.2211 67.8608 12.4185 67.6262 11.9117 67.1499C11.4048 66.6736 11.1514 66.0592 11.1514 65.3068C11.1514 64.6373 11.264 64.1058 11.4822 63.7123C11.6934 63.3258 12.0032 63.0013 12.3904 62.7735C12.8198 62.5319 13.2844 62.3594 13.7702 62.2696C14.3052 62.1661 14.8895 62.0625 15.5231 61.9728C16.1567 61.8831 16.5791 61.7657 16.7973 61.6208C17.0156 61.4758 17.1282 61.2411 17.1282 60.9098C17.1282 60.613 16.9663 60.3369 16.6917 60.1988C16.4031 60.0262 16.0089 59.9434 15.5231 59.9434C14.9458 59.9434 14.5235 60.0677 14.27 60.3231C14.0095 60.5992 13.8406 60.9512 13.7984 61.3309H11.4682C11.4752 60.8822 11.5597 60.4335 11.7075 60.0055C11.8554 59.6052 12.1017 59.2462 12.4256 58.9632C12.7987 58.6457 13.2352 58.4179 13.7139 58.2937C14.3404 58.1211 14.9951 58.0452 15.6428 58.059C16.2834 58.0452 16.9311 58.128 17.5506 58.3075C18.0223 58.4455 18.4517 58.6871 18.8037 59.0184C19.1275 59.3429 19.3669 59.7363 19.4866 60.1712C19.6344 60.682 19.7048 61.2066 19.6978 61.7312V67.6262H17.3605V67.6192ZM17.1845 63.0496C17.0226 63.1946 16.8325 63.2981 16.6213 63.3534C16.2693 63.4569 15.9173 63.5328 15.5583 63.6019C14.8332 63.7399 14.3404 63.9194 14.0659 64.1334C13.7913 64.3612 13.6364 64.7063 13.6576 65.0652C13.6576 65.7624 14.0659 66.1075 14.8754 66.1075C15.1852 66.1075 15.4879 66.0523 15.7766 65.9488C16.3045 65.7555 16.734 65.369 16.9733 64.872C17.093 64.6304 17.1564 64.3543 17.1564 64.085L17.1775 63.0634L17.1845 63.0496Z" fill="#666666"/>
<path d="M20.7959 67.6193V58.0452H23.1542V59.474C23.5485 58.0452 24.4144 58.0452 26.3081 58.0452V60.5094H25.6112C24.0765 60.5094 23.3091 61.2618 23.3091 62.7666V67.6193H20.7959Z" fill="#666666"/>
<path d="M32.3974 63.1256H34.7346V64.1265C34.7346 64.6028 34.6642 65.0791 34.5164 65.5415C34.3686 65.9833 34.1363 66.3906 33.8195 66.7357C33.4886 67.0947 33.0803 67.3846 32.6227 67.564C32.0736 67.778 31.4822 67.8816 30.8909 67.8678C30.2855 67.8816 29.68 67.778 29.1098 67.564C28.6522 67.3846 28.2369 67.1016 27.8989 66.7495C27.5822 66.4044 27.3498 65.9971 27.2161 65.5553C27.0753 65.086 27.0049 64.6028 27.0049 64.1127V58.0452H29.4759V59.4533H32.3974V61.9176H29.4759V63.8573C29.4759 64.4509 29.5885 64.9134 29.8138 65.2309C30.0391 65.5553 30.4122 65.7141 30.9261 65.7141C31.4259 65.7141 31.799 65.5553 32.0384 65.2378C32.2777 64.9203 32.3974 64.4716 32.3974 63.8849V63.1118V63.1256Z" fill="#666666"/>
<path d="M76.5443 63.1256H78.8816V64.1265C78.8816 64.6028 78.8112 65.0791 78.6563 65.5415C78.5155 65.9833 78.2761 66.3906 77.9593 66.7357C77.6285 67.0947 77.2202 67.3777 76.7626 67.5571C76.2135 67.7711 75.6221 67.8747 75.0308 67.8609C74.4253 67.8816 73.8199 67.778 73.2497 67.564C72.7921 67.3846 72.3767 67.1016 72.0459 66.7495C71.7291 66.4044 71.4968 65.9971 71.363 65.5553C71.2222 65.086 71.1448 64.6028 71.1518 64.1127V58.0452H73.6298V59.4533H76.5443V61.9176H73.6298V63.8573C73.6298 64.4509 73.7425 64.9065 73.9678 65.2309C74.193 65.5553 74.5591 65.7141 75.08 65.7141C75.601 65.7141 75.96 65.5553 76.1923 65.2378C76.4247 64.9203 76.5514 64.4716 76.5514 63.8849V63.1118L76.5443 63.1256Z" fill="#666666"/>
<path d="M42.8165 67.6124L38.1913 61.3792V67.6124H35.6992V58.0452H39.022L43.6472 64.2852V58.0452H46.1604V67.6124H42.8165Z" fill="#666666"/>
<path d="M53.1369 67.6192C53.0524 67.35 53.0031 67.067 52.982 66.7839C52.6582 67.1291 52.2499 67.3983 51.8063 67.5709C51.2643 67.7779 50.687 67.8746 50.1027 67.8677C49.0115 67.8677 48.209 67.633 47.6951 67.1567C47.1882 66.6804 46.9277 66.0661 46.9277 65.3137C46.9277 64.6441 47.0404 64.1126 47.2586 63.7191C47.4698 63.3326 47.7796 63.0082 48.1667 62.7804C48.5962 62.5388 49.0608 62.3662 49.5466 62.2765C50.0816 62.1729 50.6659 62.0694 51.2995 61.9796C51.9331 61.8899 52.3625 61.7726 52.5737 61.6276C52.7919 61.4826 52.9046 61.248 52.9046 60.9166C52.9046 60.6198 52.7427 60.3437 52.4681 60.2056C52.1795 60.0331 51.7852 59.9502 51.2995 59.9502C50.7222 59.9502 50.3069 60.0745 50.0534 60.3299C49.793 60.606 49.624 60.958 49.5818 61.3377H47.2445C47.2516 60.889 47.336 60.4403 47.4839 60.0124C47.6317 59.612 47.8781 59.2531 48.2019 58.9701C48.5751 58.6525 49.0115 58.4247 49.4902 58.3005C50.1168 58.1279 50.7715 58.052 51.4262 58.0658C52.0668 58.052 52.7145 58.1348 53.327 58.3143C53.7986 58.4524 54.2281 58.6939 54.5801 59.0253C54.9039 59.3497 55.1432 59.7432 55.2629 60.178C55.4108 60.6888 55.4812 61.2134 55.4741 61.7381V67.633H53.1369V67.6192ZM52.9609 63.0496C52.799 63.1945 52.6089 63.2981 52.3977 63.3533C52.0457 63.4568 51.6937 63.5328 51.3347 63.6018C50.6166 63.7398 50.1168 63.9193 49.8493 64.1333C49.5677 64.3611 49.4198 64.7062 49.441 65.0652C49.441 65.7623 49.8493 66.1075 50.6589 66.1075C50.9686 66.1075 51.2713 66.0523 51.56 65.9487C52.0879 65.7554 52.5174 65.3689 52.7567 64.8719C52.8764 64.6303 52.9398 64.3542 52.9398 64.085L52.9609 63.0634V63.0496Z" fill="#666666"/>
<path d="M67.7302 67.6192V61.9728C67.7302 61.4068 67.4909 60.0608 66.2448 60.0608C64.9988 60.0608 64.6397 61.4827 64.6397 62.0487V67.6192H62.1265V62.0142C62.1265 60.7648 61.5915 60.1367 60.627 60.1367C59.6626 60.1367 59.0994 60.7441 59.0994 61.959V67.6262H56.5791V58.0521H58.9375V59.4809C59.6203 58.0521 61.1691 58.0452 61.7182 58.0521C62.3447 58.059 63.7386 58.0521 64.3652 59.5223C65.1607 58.0521 66.3293 58.0521 66.9347 58.0521C67.4134 58.0521 70.1801 58.0521 70.1801 61.1583V67.6192H67.7232H67.7302Z" fill="#666666"/>
<path d="M100.783 67.6192V61.9728C100.783 61.4068 100.543 60.0608 99.2974 60.0608C98.0513 60.0608 97.6923 61.4827 97.6923 62.0487V67.6192H95.179V62.0142C95.179 60.7648 94.644 60.1367 93.6796 60.1367C92.7151 60.1367 92.1519 60.7441 92.1519 61.959V67.6262H89.6387V58.0521H91.997V59.4809C92.6799 58.0521 94.2287 58.0452 94.7778 58.0521C95.4043 58.059 96.8052 58.0521 97.4247 59.5223C98.2203 58.0521 99.3889 58.0521 99.9943 58.0521C100.473 58.0521 103.24 58.0521 103.24 61.1583V67.6192H100.783Z" fill="#666666"/>
<path d="M82.2044 63.5948C82.2396 64.3058 82.4508 64.8649 82.8309 65.2791C83.2111 65.7002 83.7602 65.928 84.3304 65.9073C84.7106 65.9142 85.0907 65.8175 85.4216 65.6311C85.7243 65.4655 85.9426 65.1894 86.027 64.8649H88.6177C88.322 65.8244 87.8081 66.563 87.0689 67.0807C86.3368 67.5984 85.4568 67.8607 84.436 67.8607C81.2611 67.8607 79.6771 66.1696 79.6771 62.7803C79.67 62.1177 79.7756 61.455 79.9868 60.8268C80.1769 60.2746 80.4867 59.7638 80.8879 59.3359C81.2892 58.9148 81.782 58.5835 82.3311 58.3764C82.9577 58.1486 83.6194 58.0312 84.2812 58.045C85.7525 58.045 86.8648 58.5075 87.618 59.4256C88.3713 60.3506 88.7444 61.738 88.7444 63.6017H82.1974L82.2044 63.5948ZM86.1678 62.0417C86.1678 61.7311 86.0974 61.4274 85.9848 61.1375C85.8862 60.8959 85.7384 60.675 85.5483 60.4955C85.3723 60.3298 85.1611 60.1987 84.9288 60.1159C84.6965 60.033 84.4572 59.9916 84.2108 59.9916C83.718 59.9916 83.2463 60.1849 82.9084 60.53C82.5423 60.889 82.3311 61.3929 82.2818 62.0348H86.1678V62.0417Z" fill="#666666"/>
<path d="M110.153 67.6192C110.068 67.35 110.019 67.067 109.998 66.7839C109.674 67.1291 109.273 67.4052 108.822 67.5709C108.28 67.7779 107.703 67.8746 107.119 67.8677C106.02 67.8677 105.218 67.633 104.711 67.1567C104.204 66.6804 103.951 66.0661 103.951 65.3137C103.951 64.6441 104.063 64.1126 104.282 63.7191C104.493 63.3326 104.803 63.0082 105.19 62.7804C105.619 62.5388 106.084 62.3662 106.57 62.2765C107.105 62.1729 107.689 62.0694 108.322 61.9796C108.956 61.8899 109.378 61.7726 109.597 61.6276C109.815 61.4826 109.928 61.248 109.928 60.9166C109.928 60.6198 109.766 60.3437 109.491 60.2056C109.202 60.0331 108.808 59.9502 108.322 59.9502C107.745 59.9502 107.323 60.0745 107.069 60.3299C106.809 60.606 106.64 60.958 106.598 61.3377H104.267C104.275 60.889 104.359 60.4403 104.507 60.0124C104.655 59.612 104.901 59.2531 105.225 58.9701C105.598 58.6525 106.034 58.4247 106.513 58.3005C107.14 58.1279 107.794 58.052 108.442 58.0658C109.083 58.052 109.73 58.1348 110.35 58.3143C110.822 58.4524 111.251 58.6939 111.603 59.0253C111.927 59.3497 112.159 59.7432 112.286 60.178C112.434 60.6888 112.504 61.2134 112.497 61.7381V67.633H110.16L110.153 67.6192ZM109.984 63.0496C109.822 63.1945 109.632 63.2981 109.421 63.3533C109.069 63.4568 108.717 63.5328 108.358 63.6018C107.633 63.7398 107.14 63.9193 106.865 64.1333C106.591 64.3611 106.436 64.7062 106.457 65.0652C106.457 65.7623 106.865 66.1075 107.675 66.1075C107.985 66.1075 108.287 66.0523 108.576 65.9487C109.104 65.7554 109.533 65.3689 109.773 64.8719C109.892 64.6303 109.956 64.3542 109.956 64.085L109.977 63.0634L109.984 63.0496Z" fill="#666666"/>
<path d="M0 76.9172V72.3752H1.35869V74.3011H1.37981L2.81594 72.3752H4.25207L2.72442 74.3908L4.32247 76.9172H2.7385L1.72476 75.2468L1.35869 75.7231V76.9172H0Z" fill="#666666"/>
<path d="M14.1713 76.9172H10.9048V72.3752H14.1783V73.4383H12.2635V74.1769H14.0516V75.1363H12.2635V75.8749H14.1713V76.9241V76.9172Z" fill="#666666"/>
<path d="M22.4219 76.9171V75.4744L20.8379 72.3682H22.2951L23.1118 74.2112H23.1399L23.9495 72.3682H25.3716L23.7876 75.4744V76.9171H22.4219Z" fill="#666666"/>
<path d="M40.5846 76.9171V73.4312H39.3667V72.3682H43.1682V73.4312H41.9503V76.9171H40.5846Z" fill="#666666"/>
<path d="M54.2282 74.6461C54.2282 76.0956 53.3271 76.9999 51.8909 76.9999C50.4548 76.9999 49.5537 76.1025 49.5537 74.6461C49.5537 73.1896 50.4548 72.2922 51.8909 72.2922C53.3271 72.2922 54.2282 73.1965 54.2282 74.6461ZM50.9406 74.6461C50.9406 75.433 51.3137 75.93 51.8909 75.93C52.4682 75.93 52.8413 75.4261 52.8413 74.6461C52.8413 73.8661 52.4682 73.3553 51.8909 73.3553C51.3137 73.3553 50.9406 73.8592 50.9406 74.6461Z" fill="#666666"/>
<path d="M71.3347 76.013H69.9197L69.6803 76.9172H68.2935L69.807 72.3752H71.5177L73.0313 76.9172H71.5811L71.3347 76.013ZM70.1661 75.0742H71.0883L70.6377 73.4245H70.6096L70.1661 75.0742Z" fill="#666666"/>
<path d="M79.6982 76.9172V72.3752H82.9577V73.4383H81.064V74.308H82.7817V75.3089H81.064V76.9172H79.6982Z" fill="#666666"/>
<path d="M91.0535 76.9172H89.6948V72.3752H91.7575C92.9965 72.3752 93.6371 72.9482 93.6371 73.9215C93.6371 74.4599 93.3767 74.9707 92.8839 75.1985L93.7639 76.9172H92.2432L91.5111 75.3917H91.0606V76.9172H91.0535ZM91.0535 74.5082H91.6167C91.9969 74.5082 92.2362 74.2804 92.2362 73.9353C92.2433 73.6246 91.9969 73.3623 91.6801 73.3554C91.6589 73.3554 91.6449 73.3554 91.6237 73.3554H91.0606V74.5082H91.0535Z" fill="#666666"/>
<path d="M100.431 76.9172V72.3752H101.796V76.9172H100.431Z" fill="#666666"/>
<path d="M108.576 74.6461C108.576 73.1482 109.463 72.2922 110.878 72.2922C112.103 72.2922 113.025 73.0722 113.032 74.2043H111.73C111.701 73.6866 111.356 73.3414 110.885 73.3414C110.322 73.3414 109.97 73.8315 109.97 74.6392C109.97 75.4468 110.322 75.9438 110.885 75.9438C111.356 75.9438 111.694 75.6055 111.737 75.0809H113.039C113.039 76.213 112.131 76.993 110.878 76.993C109.463 76.993 108.576 76.1371 108.576 74.6323V74.6461Z" fill="#666666"/>
<path d="M122.303 76.013H120.888L120.649 76.9172H119.262L120.776 72.3752H122.493L124.007 76.9172H122.557L122.31 76.013H122.303ZM121.135 75.0742H122.057L121.614 73.4245H121.585L121.135 75.0742Z" fill="#666666"/>
<path d="M57.7973 15.186H55.0166C56.0655 14.2127 57.0089 14.2127 57.7973 15.186Z" fill="#666666"/>
<path d="M71.1168 29.9579L71.8348 36.9503L60.7259 52.3434L55.3827 44.2396C57.1638 42.7486 60.8949 39.7598 58.6633 36.1565C57.2412 33.8579 48.0401 32.3117 42.8236 24.4771C47.667 29.2676 54.6928 31.1935 56.7484 32.3048C59.3813 33.7199 60.7963 35.3144 61.0075 38.6898C69.8707 31.9942 64.0628 23.9525 56.8399 24.6773C51.9965 25.1674 49.9972 21.1362 49.9972 21.1362C49.7438 22.0887 49.8001 23.062 50.5674 24.0836C48.9835 23.1518 48.7723 21.5987 49.8071 18.3268C48.5681 18.0437 47.9486 17.7124 47.315 17.0498C46.6814 16.3871 46.7448 14.7097 48.899 14.3163C48.899 14.3163 47.1038 15.6692 49.3495 16.9117C50.4196 17.5053 51.5812 16.5459 51.6023 16.5251C51.5812 16.5804 50.7716 18.665 50.9898 19.8868C51.3981 22.1164 53.5664 23.4624 55.9036 23.49C57.2412 23.5038 61.6974 23.3105 63.2744 24.8913C63.2744 24.8913 63.1336 22.1371 62.9857 21.3847C62.7745 20.3355 61.4158 20.8325 61.4158 20.8325L59.4658 21.3847C59.4658 21.3847 62.1128 19.4519 62.4577 18.9756C63.1406 18.023 62.7464 17.2223 61.4018 16.5182L62.4929 16.5873L63.1899 16.0972L58.8744 14.1368C58.0789 13.8745 57.6073 13.4603 57.375 12.6665C57.0018 11.3895 55.974 10.8166 54.904 10.8166L54.9884 11.5207C52.9328 10.0504 50.7434 10.0366 48.3569 10.4784L48.8004 11.1341C48.8004 11.1341 43.5135 11.4447 41.317 14.8892L42.8306 14.7649C40.3244 15.9522 39.7331 18.5822 39.6979 20.4873L34.7207 12.9357L41.2115 0H51.1728L52.2077 3.47898L57.199 5.5429L59.4658 2.95437C59.4658 2.95437 66.8506 5.13563 66.8365 5.13563C66.8224 5.13563 74.693 19.6521 74.693 19.6521L79.0788 19.2034C79.0788 19.2034 71.1097 29.9372 71.1168 29.9648V29.9579Z" fill="#666666"/>
</svg>
