<svg width="194" height="46" viewBox="0 0 194 46" fill="none" xmlns="http://www.w3.org/2000/svg">
<path d="M170.764 29.3792C170.764 32.4032 167.983 33.8394 167.983 33.8394C163.599 36.0635 158.026 34.4818 156.514 33.9788C156.277 33.9 156.119 33.6637 156.119 33.397V30.27C156.119 29.8398 156.519 29.5549 156.897 29.7125C159.718 30.9063 163.599 30.6155 164.491 30.1549C165.653 29.5671 164.993 28.6944 164.993 28.6944C164.479 27.9975 161.427 27.5612 161.427 27.5612C158.59 27.0643 157.445 25.8159 157.445 25.8159C156.074 24.6281 156.074 22.5131 156.074 22.5131C155.809 18.2832 158.708 17.0409 158.708 17.0409C163.018 15.1077 167.853 16.441 169.241 16.9015C169.478 16.9803 169.636 17.2166 169.636 17.4833V20.8224C169.607 21.1436 169.353 21.392 169.043 21.392C169.004 21.392 168.964 21.386 168.925 21.3799C168.885 21.3678 168.846 21.3557 168.812 21.3436C166.149 20.5133 163.864 20.4406 163.864 20.4406C160.277 20.3618 160.982 22.0283 161.698 22.3556C162.319 22.6343 166.11 23.4585 166.11 23.4585C168.789 24.0403 170.764 25.8401 170.764 29.3792Z" fill="#2703A5"/>
<path d="M186.988 29.3792C186.988 32.4032 184.207 33.8394 184.207 33.8394C179.824 36.0635 174.25 34.4818 172.738 33.9788C172.501 33.9 172.344 33.6637 172.344 33.397V30.27C172.344 29.8398 172.744 29.5549 173.122 29.7125C175.943 30.9063 179.824 30.6155 180.715 30.1549C181.877 29.5671 181.217 28.6944 181.217 28.6944C180.704 27.9975 177.652 27.5612 177.652 27.5612C174.814 27.0643 173.669 25.8159 173.669 25.8159C172.298 24.6281 172.298 22.5131 172.298 22.5131C172.033 18.2832 174.933 17.0409 174.933 17.0409C179.243 15.1077 184.077 16.441 185.465 16.9015C185.702 16.9803 185.86 17.2166 185.86 17.4833V20.8224C185.832 21.1436 185.578 21.392 185.268 21.392C185.228 21.392 185.189 21.386 185.149 21.3799C185.11 21.3678 185.07 21.3557 185.037 21.3436C182.374 20.5133 180.089 20.4406 180.089 20.4406C176.501 20.3618 177.206 22.0283 177.923 22.3556C178.543 22.6343 182.334 23.4585 182.334 23.4585C185.014 24.0403 186.988 25.8401 186.988 29.3792Z" fill="#2703A5"/>
<path d="M150.23 16.5561C144.538 14.7381 139.472 17.9196 138.846 23.6585C138.225 29.3974 140.008 34.0516 145.728 34.7969C148.961 35.2211 151.742 34.6091 153.536 34.0031C153.767 33.9243 153.925 33.688 153.925 33.4274V30.1549C153.925 29.7489 153.564 29.458 153.203 29.5732C151.099 30.2458 145.062 31.7548 144.323 27.2522H154.624C154.624 27.2522 155.933 18.356 150.23 16.5561ZM149.598 23.6646H144.323C144.323 23.6646 144.515 20.8467 147.167 20.8467C149.818 20.8467 149.598 23.6646 149.598 23.6646Z" fill="#2703A5"/>
<path d="M137.259 17.2044V33.8151C137.259 34.1484 137.01 34.415 136.7 34.415H132.954C132.644 34.415 132.396 34.1484 132.396 33.8151V33.0273C132.396 33.0273 125.965 37.2451 122.506 33.0636C121.305 31.6092 121.209 27.4641 121.209 27.4641V17.2044C121.209 16.8711 121.457 16.6045 121.767 16.6045H126.207C126.517 16.6045 126.766 16.8711 126.766 17.2044V26.749C126.766 26.749 126.58 29.6336 128.853 29.6336C128.853 29.6336 130.387 29.8397 131.724 28.3428V17.2044C131.724 16.8711 131.973 16.6045 132.283 16.6045H136.689C136.999 16.6045 137.247 16.8711 137.247 17.2044H137.259Z" fill="#2703A5"/>
<path d="M193.441 16.6045H189.041C188.729 16.6045 188.477 16.8758 188.477 17.2105V33.8151C188.477 34.1498 188.729 34.4211 189.041 34.4211H193.441C193.752 34.4211 194.005 34.1498 194.005 33.8151V17.2105C194.005 16.8758 193.752 16.6045 193.441 16.6045Z" fill="#2703A5"/>
<path d="M99.0338 10.9869L95.6659 25.7613L92.0781 10.9808C92.0104 10.7142 91.7903 10.5263 91.5308 10.5263H87.5368C87.2829 10.5263 87.0573 10.7081 86.9896 10.9748L83.2776 25.6583L79.8815 10.9869C79.8194 10.7142 79.5938 10.5263 79.3343 10.5263H74.2627C73.8791 10.5263 73.6083 10.9263 73.7211 11.3141L80.3159 33.8515C80.3892 34.106 80.6092 34.2757 80.8574 34.2757H85.0377C85.2915 34.2757 85.5115 34.0939 85.5849 33.8333L89.3815 19.5134L93.1838 33.8333C93.2515 34.0939 93.4771 34.2757 93.731 34.2757H97.9394C98.1876 34.2757 98.4076 34.1 98.481 33.8515L105.042 11.3141C105.155 10.9202 104.884 10.5263 104.5 10.5263H99.5923C99.3328 10.5263 99.1072 10.7202 99.0451 10.9869H99.0338Z" fill="#2703A5"/>
<path d="M119.895 26.0098C119.895 30.9185 116.189 34.8878 111.631 34.8878C110.362 34.8878 109.166 34.5848 108.094 34.0334C108.178 33.9909 108.274 33.9425 108.37 33.8819C110.181 32.7608 112.268 30.9791 114.254 28.8399C115.868 27.1067 117.915 24.5554 119.106 22.2223C119.608 23.3737 119.89 24.6584 119.89 26.0098H119.895Z" fill="#2703A5"/>
<path d="M119.528 17.5196C118.682 16.6227 117.226 16.7682 115.156 17.9802C115.071 18.0287 114.976 18.0832 114.88 18.1438C113.069 19.2649 110.981 21.0587 108.996 23.1858C107.004 25.325 105.334 27.5733 104.302 29.5186C104.246 29.6216 104.201 29.7125 104.15 29.8034C103.022 32.0214 102.88 33.6031 103.721 34.506C104.082 34.8939 104.556 35.0878 105.143 35.0878C105.927 35.0878 106.914 34.7424 108.093 34.0394C108.178 33.997 108.274 33.9485 108.37 33.8879C110.18 32.7668 112.268 30.9851 114.253 28.8459C115.867 27.1127 117.915 24.5614 119.105 22.2283C120.07 20.3012 120.459 18.5317 119.522 17.5257L119.528 17.5196ZM112.916 27.3915C110.13 30.3852 107.687 32.1062 106.243 32.7486C105.696 33.0031 105.295 33.094 105.075 33.0455C105.03 32.8213 105.114 32.385 105.351 31.7911C105.961 30.2518 107.552 27.6036 110.327 24.622C113.114 21.6284 115.557 19.9073 117.001 19.2649C117.548 19.0104 117.948 18.9195 118.169 18.968C118.18 19.0104 118.18 19.0468 118.18 19.1134C118.18 19.3558 118.084 19.7316 117.898 20.2224C117.288 21.7617 115.698 24.4099 112.922 27.3915H112.916Z" fill="#2703A5"/>
<path d="M103.479 29.2095C103.389 29.2095 103.299 29.1731 103.259 29.0883C102.718 27.8641 102.441 26.5491 102.441 25.1795C102.441 20.1436 106.261 16.047 110.954 16.047C112.229 16.047 113.453 16.3439 114.593 16.9257C114.677 16.9681 114.728 17.053 114.728 17.1499C114.728 17.2469 114.677 17.3378 114.598 17.3802C112.703 18.5377 110.559 20.3739 108.517 22.5676C106.492 24.7371 104.788 27.04 103.711 29.0519C103.666 29.1307 103.575 29.2034 103.485 29.2034L103.479 29.2095Z" fill="#2703A5"/>
<path d="M59.5612 0H4.54692C2.03652 0 0 2.18163 0 4.87836V40.8509C0 43.5416 2.03652 45.7293 4.54692 45.7293H59.5612C62.0716 45.7293 64.1082 43.5416 64.1082 40.8509V4.87836C64.1082 2.18163 62.0716 0 59.5612 0ZM32.5167 23.6524L25.2224 37.5724C23.9644 39.9965 20.6134 39.5904 19.8744 36.9361L14.5603 17.6651H9.22923C7.63837 17.6166 6.35779 16.2046 6.35779 14.4775C6.35779 12.7504 7.63837 11.3444 9.22923 11.296H16.6645C18.0579 11.296 19.2877 12.2898 19.6883 13.72L23.5469 27.7127L27.2872 20.5073C28.1164 18.9014 30.1304 18.4105 31.4787 19.3377C32.8326 20.2709 33.2952 22.1496 32.511 23.6524H32.5167ZM57.3781 11.3869L46.0897 32.8638C44.8317 35.2878 41.4751 34.8818 40.7417 32.2274L35.4276 12.9564H30.0909C28.5 12.9079 27.2251 11.496 27.2251 9.76883C27.2251 8.04171 28.5057 6.63578 30.0909 6.5873H37.5318C38.9252 6.5873 40.155 7.58115 40.5556 9.01132L44.4143 23.004L52.0808 8.23563C52.6111 7.21148 54.1174 5.89645 56.1595 6.93878C57.4401 7.59933 58.2468 9.71429 57.3724 11.3808L57.3781 11.3869Z" fill="#2703A5"/>
</svg>