<svg width="40" height="33" viewBox="0 0 40 33" fill="none" xmlns="http://www.w3.org/2000/svg">
<path d="M30.8768 0.198187C31.6402 0.625619 31.7831 1.48048 31.359 2.2463L28.7964 7.35768C28.3723 8.11905 27.5374 8.50641 26.7696 8.08343C26.0062 7.66045 25.7249 6.68982 26.1535 5.92845L28.716 0.817073C29.1402 0.0512563 30.1045 -0.224794 30.8768 0.198187ZM39.9931 17.7496C39.9082 18.6223 39.1404 19.2635 38.2654 19.1789L32.5242 18.6401C31.6491 18.56 31.0063 17.7897 31.0866 16.917C31.167 16.0444 31.8813 15.5457 32.7563 15.6258L38.4975 16.1646C39.3725 16.2447 40.0779 16.877 39.9931 17.7496ZM39.4395 6.96142C39.8636 7.72278 39.5913 8.69341 38.8234 9.12084L32.3233 12.852C31.5554 13.275 30.5866 13.0034 30.158 12.2375C29.7295 11.4717 30.0062 10.5055 30.7741 10.0781L37.2743 6.35143C38.0421 5.924 39.0154 6.20005 39.4395 6.96142ZM15.1711 0.492047C14.3496 0.90167 13.6755 1.59179 13.1443 2.48673L13.1398 2.49118C13.1398 2.49118 11.4791 5.29176 9.80491 8.16357C8.96114 9.6017 8.11737 11.0576 7.46557 12.1975C7.13521 12.7629 6.86734 13.2571 6.65752 13.6311C6.59948 13.738 6.54591 13.836 6.4968 13.9206L3.47441 15.4166C0.264519 17.0194 -0.936401 21.1246 0.786851 24.6019L2.77797 28.5957C4.51461 32.0686 8.52363 33.5914 11.7335 32.0018L14.9256 30.4212C16.1042 30.5815 19.0864 30.8887 21.9123 31.1737C24.9168 31.4765 27.6848 31.7391 27.6892 31.7391C28.7026 31.8282 29.6357 31.7035 30.4438 31.3073L30.4884 31.285C31.4706 30.7997 32.2072 29.8202 32.3992 28.6803C32.6045 27.5227 32.3411 26.2938 31.7474 25.105L20.8364 3.19912C20.2516 2.02368 19.448 1.08422 18.4122 0.541023C17.3899 -0.00662507 16.1533 -0.0110771 15.1711 0.492047ZM12.2559 28.7427L10.5906 29.5664C8.62185 30.5325 6.1709 29.6732 5.16195 27.6563L2.99672 23.3063C1.99224 21.2849 2.78243 18.8182 4.74676 17.8387L6.41644 17.015L12.2559 28.7427ZM29.6848 28.3865C29.6223 28.6492 29.5553 28.7605 29.2607 28.9297C29.0152 29.0499 28.591 29.1523 27.9616 29.0944C27.966 29.0944 24.9972 28.7783 21.6132 28.431C19.9212 28.2618 18.2113 28.0882 16.9033 27.9368C16.247 27.87 15.689 27.8032 15.2916 27.7498C15.0952 27.7231 14.93 27.7008 14.8229 27.6919C14.8006 27.6874 14.7782 27.6874 14.7648 27.683L14.6309 27.6385L8.6397 15.6347C8.78703 15.3453 9.28257 14.4548 9.89866 13.3863C11.9835 9.75309 15.5818 4.38346 15.6577 4.22318C15.9881 3.67108 16.3274 3.39057 16.5595 3.27481C16.8497 3.1546 16.9479 3.1635 17.1845 3.27036C17.4122 3.38612 17.8006 3.7245 18.1712 4.46806L29.3321 26.8548C29.6982 27.6028 29.7339 28.1193 29.6848 28.3865Z" fill="white"/>
</svg>
