<svg width="189" height="31" viewBox="0 0 189 31" fill="none" xmlns="http://www.w3.org/2000/svg">
<g clip-path="url(#clip0_2223_435)">
<path d="M81.5666 0.756967C82.5693 1.26726 83.3432 1.99867 83.8973 2.96822C84.4514 3.93776 84.7241 5.10292 84.7241 6.45518V13.7268H80.7838V10.7501H75.3572V13.7268H71.4785V6.46369C71.4785 5.10292 71.7512 3.94627 72.3053 2.97672C72.8506 2.00717 73.6333 1.27576 74.6272 0.765472C75.6299 0.255184 76.782 0.00854492 78.1013 0.00854492C79.4206 0.00854492 80.5728 0.263689 81.5666 0.765472V0.756967ZM80.7838 7.80745V6.132C80.7838 5.14544 80.5376 4.40553 80.045 3.90374C79.5525 3.40196 78.9017 3.15532 78.0749 3.15532C77.2482 3.15532 76.5797 3.40196 76.0872 3.90374C75.5947 4.40553 75.3484 5.14544 75.3484 6.132V7.80745H80.775H80.7838Z" fill="#666666"/>
<path d="M91.9979 3.78464C91.4702 4.20988 91.2064 4.84774 91.2064 5.70672V6.16598H96.5538V9.10864H91.2064V13.7267H87.2661V5.76625C87.2661 3.93772 87.8554 2.51742 89.0339 1.50535C90.2125 0.501783 91.8748 0 94.0032 0C94.8124 0 95.5688 0.0765432 96.2812 0.22963C96.9936 0.382716 97.6005 0.603841 98.1018 0.884499L96.9496 3.81015C96.1844 3.37641 95.2961 3.15528 94.3023 3.15528C93.3084 3.15528 92.5256 3.3679 91.9979 3.79314V3.78464Z" fill="#666666"/>
<path d="M105.798 10.1548H103.652V13.7268H99.7114V0.272217H106.07C107.328 0.272217 108.427 0.476332 109.351 0.876058C110.274 1.27578 110.996 1.85411 111.497 2.60253C111.998 3.35095 112.253 4.23545 112.253 5.24753C112.253 6.2596 112.016 7.06755 111.55 7.79897C111.075 8.52187 110.406 9.0917 109.536 9.49993L112.535 13.7268H108.322L105.798 10.1548ZM107.662 3.7847C107.249 3.436 106.642 3.26591 105.833 3.26591H103.643V7.20363H105.833C106.642 7.20363 107.249 7.03353 107.662 6.69334C108.076 6.35315 108.278 5.86838 108.278 5.23902C108.278 4.60966 108.076 4.12489 107.662 3.77619V3.7847Z" fill="#666666"/>
<path d="M117.478 13.0888C116.308 12.485 115.384 11.6515 114.716 10.5884C114.048 9.52534 113.713 8.32616 113.713 6.99091C113.713 5.65565 114.048 4.45648 114.716 3.39338C115.384 2.33028 116.308 1.4968 117.478 0.892964C118.647 0.289123 119.976 -0.00854492 121.444 -0.00854492C122.913 -0.00854492 124.241 0.289123 125.411 0.892964C126.581 1.4968 127.504 2.33028 128.173 3.39338C128.841 4.45648 129.175 5.65565 129.175 6.99091C129.175 8.32616 128.841 9.52534 128.173 10.5884C127.504 11.6515 126.581 12.485 125.411 13.0888C124.241 13.6927 122.913 13.9904 121.444 13.9904C119.976 13.9904 118.647 13.6927 117.478 13.0888ZM123.353 10.3588C123.925 10.0356 124.373 9.58487 124.707 9.00654C125.042 8.42822 125.209 7.75634 125.209 6.99941C125.209 6.24248 125.042 5.5706 124.707 4.99228C124.373 4.40545 123.925 3.95469 123.353 3.64001C122.781 3.31683 122.148 3.15524 121.444 3.15524C120.741 3.15524 120.107 3.31683 119.536 3.64001C118.964 3.9632 118.516 4.41395 118.181 4.99228C117.847 5.57911 117.68 6.24248 117.68 6.99941C117.68 7.75634 117.847 8.42822 118.181 9.00654C118.516 9.58487 118.964 10.0441 119.536 10.3588C120.107 10.682 120.741 10.8436 121.444 10.8436C122.148 10.8436 122.781 10.682 123.353 10.3588Z" fill="#666666"/>
<path d="M82.2967 21.5C81.127 20.8707 79.9396 20.4539 78.7347 20.2498V30.7277H74.7944V20.2498C73.5631 20.4539 72.3757 20.8707 71.2324 21.5L69.9219 18.7275C70.8893 18.1661 71.9624 17.7324 73.1321 17.4432C74.3019 17.1456 75.5156 17.001 76.7645 17.001C78.0135 17.001 79.2184 17.1456 80.397 17.4432C81.5667 17.7409 82.6397 18.1661 83.6072 18.7275L82.2967 21.5Z" fill="#666666"/>
<path d="M96.4923 29.7071C95.7799 30.1069 94.9091 30.4216 93.8889 30.6512C92.8686 30.8808 91.8044 30.9999 90.705 30.9999C89.2186 30.9999 87.9609 30.8298 86.9143 30.4811C85.8765 30.1324 85.0937 29.6561 84.566 29.0353C84.0383 28.4229 83.7832 27.7085 83.7832 26.9006C83.7832 26.1947 83.9855 25.5738 84.3813 25.038C84.7771 24.5022 85.3312 24.0855 86.0348 23.7878C85.4895 23.5157 85.0761 23.1414 84.7947 22.6652C84.5132 22.1889 84.3637 21.6531 84.3637 21.0833C84.3637 20.3434 84.6099 19.663 85.0937 19.0421C85.5774 18.4298 86.3162 17.9365 87.3101 17.5623C88.3039 17.1881 89.5265 17.001 90.9865 17.001C91.9012 17.001 92.7983 17.086 93.6866 17.2476C94.5749 17.4177 95.3577 17.6388 96.0349 17.9195L94.9619 20.7686C93.7306 20.2413 92.4553 19.9777 91.1448 19.9777C90.2037 19.9777 89.5001 20.0967 89.0339 20.3349C88.5678 20.573 88.3391 20.9047 88.3391 21.3214C88.3391 22.0868 88.9196 22.4781 90.0718 22.4781H94.012V25.3782H89.8167C89.1395 25.3782 88.6294 25.4803 88.2863 25.6929C87.9433 25.9055 87.7674 26.2117 87.7674 26.6284C87.7674 27.0622 88.0225 27.4023 88.5238 27.649C89.0251 27.8956 89.8079 28.0147 90.8721 28.0147C91.6285 28.0147 92.4025 27.9126 93.2117 27.717C94.012 27.5214 94.7156 27.2493 95.3049 26.9006L96.5011 29.7071H96.4923Z" fill="#666666"/>
<path d="M100.776 30.1069C99.6146 29.5115 98.7087 28.6781 98.0402 27.615C97.3806 26.5519 97.0464 25.3442 97.0464 24.0004C97.0464 22.6567 97.3806 21.449 98.0402 20.3859C98.6999 19.3228 99.6146 18.4893 100.776 17.894C101.937 17.2986 103.247 17.001 104.698 17.001C105.974 17.001 107.117 17.2221 108.137 17.6558C109.157 18.0896 110.011 18.7189 110.679 19.5439L108.172 21.7382C107.275 20.6836 106.176 20.1648 104.892 20.1648C104.135 20.1648 103.467 20.3264 102.878 20.6495C102.288 20.9727 101.831 21.4235 101.506 22.0018C101.18 22.5886 101.022 23.252 101.022 24.0089C101.022 24.7659 101.18 25.4377 101.506 26.0161C101.831 26.5944 102.288 27.0537 102.878 27.3683C103.467 27.6915 104.144 27.8531 104.892 27.8531C106.176 27.8531 107.266 27.3258 108.172 26.2797L110.679 28.474C110.002 29.2904 109.157 29.9198 108.137 30.362C107.117 30.7958 105.974 31.0169 104.698 31.0169C103.238 31.0169 101.928 30.7192 100.776 30.1239V30.1069Z" fill="#666666"/>
<path d="M125.675 17.2732V30.7278H121.735V25.4803H116.369V30.7278H112.429V17.2732H116.369V22.3336H121.735V17.2732H125.675Z" fill="#666666"/>
<path d="M144.945 21.5C143.775 20.8707 142.588 20.4539 141.383 20.2498V30.7277H137.443V20.2498C136.212 20.4539 135.024 20.8707 133.881 21.5L132.57 18.7275C133.538 18.1661 134.611 17.7324 135.781 17.4432C136.95 17.1456 138.164 17.001 139.413 17.001C140.662 17.001 141.867 17.1456 143.045 17.4432C144.215 17.7409 145.288 18.1661 146.256 18.7275L144.945 21.5Z" fill="#666666"/>
<path d="M157.144 17.7579C158.146 18.2682 158.92 18.9996 159.474 19.9692C160.029 20.9387 160.301 22.1039 160.301 23.4561V30.7277H156.361V27.751H150.934V30.7277H147.056V23.4561C147.056 22.0954 147.328 20.9387 147.882 19.9692C148.428 18.9996 149.21 18.2682 150.204 17.7579C151.207 17.2476 152.359 17.001 153.678 17.001C154.998 17.001 156.15 17.2561 157.144 17.7579ZM156.352 24.8084V23.1329C156.352 22.1464 156.106 21.4065 155.613 20.9047C155.121 20.4029 154.47 20.1563 153.643 20.1563C152.817 20.1563 152.148 20.4029 151.656 20.9047C151.163 21.4065 150.917 22.1464 150.917 23.1329V24.8084H156.343H156.352Z" fill="#666666"/>
<path d="M162.958 17.2732H166.898V27.7171H173.538V30.7363H162.958V17.2817V17.2732Z" fill="#666666"/>
<path d="M180.451 25.8461L178.982 27.3684V30.7363H175.086V17.2817H178.982V22.8779L184.374 17.2817H188.71L183.019 23.2436L189 30.7448H184.426L180.451 25.8631V25.8461Z" fill="#666666"/>
<path d="M57.266 12.3914V3.10417H50.3266V12.3829H43.3872V3.10417H36.4478V12.3829H31.2674V12.2298C31.2674 10.5629 30.9508 9.14258 30.3175 7.97742C29.6843 6.81226 28.8927 5.86823 27.9516 5.14532C27.0105 4.42241 25.9903 3.89511 24.8909 3.57193C23.7915 3.24875 22.7625 3.08716 21.8126 3.08716H6.75521V9.38922H21.8214C22.6657 9.38922 23.3693 9.64436 23.9234 10.1546C24.4775 10.6649 24.759 11.3538 24.759 12.2213V12.3744H9.44654C7.72268 12.3744 6.25388 12.6806 5.04894 13.2929C3.844 13.9053 2.86773 14.6707 2.12014 15.5807C1.37255 16.4907 0.827243 17.4858 0.493025 18.5574C0.158808 19.629 -0.00830078 20.6241 -0.00830078 21.5426C-0.00830078 23.2095 0.308326 24.6298 0.941581 25.795C1.57483 26.9601 2.3664 27.9042 3.30749 28.6271C4.24857 29.35 5.26882 29.8773 6.36822 30.2005C7.46762 30.5236 8.49666 30.6852 9.44654 30.6852H21.8214C23.5452 30.6852 25.014 30.3791 26.219 29.7667C27.4239 29.1544 28.4002 28.3889 29.1478 27.4789C29.8954 26.5689 30.4319 25.5824 30.7749 24.5193C31.1091 23.4562 31.2762 22.4611 31.2762 21.5426V18.7105H36.4566V30.6767H43.396V18.7105H50.3354V30.6767H57.2748V18.7105H63.0885V12.3829H57.2748L57.266 12.3914ZM24.7502 21.5001C24.7502 22.3165 24.4951 22.9969 23.985 23.5412C23.4749 24.0855 22.7537 24.3577 21.8214 24.3577H9.49931C8.69015 24.3577 7.98653 24.111 7.39726 23.6263C6.80798 23.1415 6.50894 22.4611 6.50894 21.5936C6.50894 20.7771 6.764 20.0968 7.27412 19.5354C7.78425 18.9826 8.50545 18.702 9.43774 18.702H24.7414V21.483L24.7502 21.5001Z" fill="#666666"/>
</g>
<defs>
<clipPath id="clip0_2223_435">
<rect width="189" height="31" fill="white"/>
</clipPath>
</defs>
</svg>
