<svg width="177" height="66" viewBox="0 0 177 66" fill="none" xmlns="http://www.w3.org/2000/svg">
<path d="M0 14.2061V9.74033L42.3861 0V6.66488L0 14.2061Z" fill="#666666"/>
<path d="M0 25.6737V21.1996L48.1388 10.4397V17.1046L0 25.6737Z" fill="#666666"/>
<path d="M21.7842 33.2655V28.7913L58.1618 20.1211V26.786L21.7842 33.2655Z" fill="#666666"/>
<path d="M24.9692 44.1602V39.6944L50.3356 32.979V39.6439L24.9692 44.1602Z" fill="#666666"/>
<path d="M25.896 55.4592V50.9935L47.689 44.9185V51.5833L25.896 55.4592Z" fill="#666666"/>
<path d="M31.1191 65.9999V59.63L40.1805 57.7173V64.3822L31.1191 65.9999Z" fill="#666666"/>
<path d="M79.2755 23.5924C76.6374 23.5924 74.1581 22.615 72.2965 20.8287C70.4348 19.0509 69.4025 16.6832 69.4025 14.1638C69.4025 11.6445 70.426 9.27683 72.2876 7.49896C74.1493 5.7211 76.6286 4.73527 79.2667 4.73527C81.9048 4.73527 84.3841 5.71268 86.2458 7.49896L88.5927 5.25768C86.1046 2.88158 82.7871 1.56714 79.2667 1.56714C75.7463 1.56714 72.4288 2.88158 69.9407 5.25768C67.4526 7.63378 66.0762 10.8019 66.0762 14.1638C66.0762 17.5258 67.4526 20.6939 69.9407 23.07C72.4376 25.4545 75.7463 26.7605 79.2667 26.7605C82.7871 26.7605 86.1046 25.4461 88.5927 23.07L86.2369 20.8287C84.3753 22.6066 81.896 23.5924 79.2579 23.5924H79.2755Z" fill="#666666"/>
<path d="M134.508 1.56714H122.932C122.015 1.56714 121.273 2.27491 121.273 3.15963V25.1849C121.273 25.6062 121.45 26.0106 121.759 26.3056C122.068 26.6005 122.491 26.769 122.932 26.769H134.508C141.787 26.769 147.699 21.1152 147.699 14.1723C147.699 7.22091 141.778 1.56714 134.508 1.56714ZM134.508 23.5924H124.6V4.7437H134.508C139.952 4.7437 144.372 8.9735 144.372 14.1723C144.372 19.371 139.943 23.5924 134.508 23.5924Z" fill="#666666"/>
<path d="M104.713 1.55029C97.4335 1.55029 91.5132 7.20407 91.5132 14.147V26.769H94.8395V18.7812H114.577V26.769H117.903V14.147C117.903 7.19564 111.983 1.55029 104.713 1.55029ZM94.8483 15.6047V14.1554C94.8483 8.95665 99.2775 4.73528 104.721 4.73528C110.165 4.73528 114.586 8.96508 114.586 14.1554V15.6047H94.8483Z" fill="#666666"/>
<path d="M172.042 15.3519C174.927 14.3745 177 11.7456 177 8.66174C177 4.75213 173.665 1.56714 169.571 1.56714H152.278C151.36 1.56714 150.619 2.27491 150.619 3.15121V26.7605H153.945V15.7479H163.818C169.262 15.7479 173.692 19.9777 173.692 25.1765V26.7605H177.018V25.1765C177.018 21.2079 175.077 17.6606 172.059 15.3435L172.042 15.3519ZM169.571 12.5798H153.937V4.7437H169.571C171.83 4.7437 173.674 6.50471 173.674 8.66174C173.674 10.8188 171.83 12.5798 169.571 12.5798Z" fill="#666666"/>
<path d="M67.779 36.6695C67.2496 36.3999 66.8349 36.0207 66.5349 35.532C66.235 35.0433 66.085 34.4956 66.085 33.889C66.085 33.2823 66.235 32.7262 66.5349 32.2459C66.8349 31.7656 67.2496 31.3865 67.779 31.1084C68.3084 30.8388 68.8995 30.6956 69.5524 30.6956C70.1083 30.6956 70.6112 30.7882 71.0524 30.9736C71.5023 31.159 71.8729 31.4286 72.1817 31.7825L71.2288 32.6251C70.7965 32.1448 70.2583 31.9005 69.623 31.9005C69.226 31.9005 68.8731 31.9847 68.5642 32.1532C68.2554 32.3218 68.0084 32.5577 67.8408 32.8526C67.6731 33.1475 67.5761 33.493 67.5761 33.8721C67.5761 34.2513 67.6643 34.5967 67.8408 34.8916C68.0172 35.1866 68.2554 35.4225 68.5642 35.591C68.8731 35.7595 69.226 35.8438 69.623 35.8438C70.2671 35.8438 70.7965 35.5994 71.2288 35.1107L72.1817 35.9533C71.8729 36.3156 71.5023 36.5853 71.0524 36.7706C70.6024 36.956 70.0995 37.0487 69.5436 37.0487C68.8907 37.0487 68.2996 36.9139 67.779 36.6358V36.6695Z" fill="#666666"/>
<path d="M79.0549 30.8052V36.9729H77.5726V34.4452H74.6698V36.9729H73.1875V30.8052H74.6698V33.2403H77.5726V30.8052H79.0549Z" fill="#666666"/>
<path d="M84.79 35.6501H81.8166L81.2519 36.9729H79.7344L82.5842 30.8052H84.0489L86.9075 36.9729H85.3547L84.79 35.6501ZM84.3224 34.5715L83.3077 32.2123L82.2931 34.5715H84.3224Z" fill="#666666"/>
<path d="M93.4013 36.9728V33.2738L91.5132 36.324H90.8426L88.9721 33.3581V36.9812H87.5869V30.8135H88.8133L91.2044 34.6473L93.5601 30.8135H94.7777L94.7954 36.9812H93.4102L93.4013 36.9728Z" fill="#666666"/>
<path d="M101.863 34.3271C102.066 34.5883 102.172 34.9085 102.172 35.2961C102.172 35.8353 101.951 36.2482 101.519 36.5431C101.086 36.838 100.451 36.9812 99.6129 36.9812H96.3042V30.8135H99.4276C100.204 30.8135 100.804 30.9567 101.227 31.2432C101.642 31.5297 101.854 31.9257 101.854 32.4144C101.854 32.7177 101.783 32.9789 101.633 33.2149C101.483 33.4508 101.272 33.6362 101.007 33.771C101.369 33.8805 101.66 34.0659 101.863 34.3271ZM97.7777 31.8836V33.3412H99.2511C99.6129 33.3412 99.8952 33.2823 100.08 33.1559C100.266 33.0295 100.363 32.8525 100.363 32.6082C100.363 32.3638 100.266 32.1869 100.08 32.0689C99.8952 31.951 99.6129 31.892 99.2511 31.892H97.7777V31.8836ZM100.389 35.7173C100.583 35.591 100.689 35.4056 100.689 35.1444C100.689 34.6304 100.292 34.3776 99.507 34.3776H97.7777V35.9027H99.507C99.8952 35.9027 100.195 35.8437 100.389 35.7173Z" fill="#666666"/>
<path d="M108.251 35.827V36.9729H103.301V30.8052H108.136V31.9511H104.774V33.2908H107.748V34.403H104.774V35.827H108.259H108.251Z" fill="#666666"/>
<path d="M113.509 36.9729L112.274 35.254H112.203H110.915V36.9729H109.433V30.8052H112.203C112.768 30.8052 113.262 30.8979 113.677 31.0748C114.091 31.2602 114.418 31.5129 114.638 31.85C114.868 32.187 114.974 32.583 114.974 33.038C114.974 33.493 114.859 33.889 114.629 34.2261C114.4 34.5547 114.074 34.8159 113.659 34.9844L115.097 36.9645H113.509V36.9729ZM113.129 32.246C112.9 32.0606 112.556 31.9679 112.115 31.9679H110.906V34.1166H112.115C112.556 34.1166 112.9 34.0239 113.129 33.8385C113.359 33.6531 113.474 33.3835 113.474 33.0465C113.474 32.7094 113.359 32.4314 113.129 32.246Z" fill="#666666"/>
<path d="M120.215 31.9511V33.5773H123.179V34.7232H120.215V36.9729H118.732V30.8052H123.567V31.9511H120.215Z" fill="#666666"/>
<path d="M125.817 36.6695C125.288 36.3915 124.864 36.0123 124.564 35.532C124.264 35.0517 124.114 34.5041 124.114 33.8974C124.114 33.2907 124.264 32.7515 124.564 32.2628C124.864 31.7741 125.279 31.3949 125.817 31.1253C126.347 30.8472 126.946 30.7124 127.617 30.7124C128.288 30.7124 128.879 30.8472 129.408 31.1253C129.937 31.4033 130.352 31.7825 130.661 32.2628C130.97 32.7515 131.12 33.2907 131.12 33.8974C131.12 34.5041 130.97 35.0433 130.661 35.532C130.352 36.0207 129.937 36.3999 129.408 36.6695C128.879 36.9476 128.279 37.0824 127.617 37.0824C126.955 37.0824 126.355 36.9476 125.817 36.6695ZM128.632 35.6163C128.94 35.4478 129.179 35.2118 129.346 34.9169C129.514 34.622 129.611 34.2766 129.611 33.8974C129.611 33.5182 129.523 33.1728 129.346 32.8779C129.17 32.5829 128.932 32.347 128.632 32.1785C128.323 32.01 127.988 31.9257 127.608 31.9257C127.229 31.9257 126.885 32.01 126.585 32.1785C126.276 32.347 126.038 32.5829 125.87 32.8779C125.702 33.1728 125.605 33.5182 125.605 33.8974C125.605 34.2766 125.694 34.622 125.87 34.9169C126.047 35.2118 126.285 35.4478 126.585 35.6163C126.894 35.7848 127.229 35.869 127.608 35.869C127.988 35.869 128.323 35.7848 128.632 35.6163Z" fill="#666666"/>
<path d="M136.299 36.9729L135.064 35.254H134.993H133.705V36.9729H132.223V30.8052H134.993C135.558 30.8052 136.052 30.8979 136.467 31.0748C136.881 31.2602 137.208 31.5129 137.428 31.85C137.658 32.187 137.764 32.583 137.764 33.038C137.764 33.493 137.649 33.889 137.419 34.2261C137.19 34.5547 136.864 34.8159 136.449 34.9844L137.887 36.9645H136.299V36.9729ZM135.928 32.246C135.699 32.0606 135.355 31.9679 134.914 31.9679H133.705V34.1166H134.914C135.355 34.1166 135.699 34.0239 135.928 33.8385C136.158 33.6531 136.272 33.3835 136.272 33.0465C136.272 32.7094 136.158 32.4314 135.928 32.246Z" fill="#666666"/>
<path d="M145.748 35.6501H142.775L142.21 36.9729H140.693L143.543 30.8052H145.007L147.866 36.9729H146.313L145.748 35.6501ZM145.281 34.5715L144.266 32.2123L143.252 34.5715H145.281Z" fill="#666666"/>
<path d="M150.01 31.9511V33.5773H152.975V34.7232H150.01V36.9729H148.528V30.8052H153.363V31.9511H150.01Z" fill="#666666"/>
<path d="M158.445 36.9729L157.21 35.254H157.139H155.851V36.9729H154.369V30.8052H157.139C157.704 30.8052 158.198 30.8979 158.613 31.0748C159.027 31.2602 159.354 31.5129 159.574 31.85C159.804 32.187 159.91 32.583 159.91 33.038C159.91 33.493 159.795 33.889 159.565 34.2261C159.336 34.5547 159.01 34.8159 158.595 34.9844L160.033 36.9645H158.445V36.9729ZM158.074 32.246C157.845 32.0606 157.501 31.9679 157.06 31.9679H155.851V34.1166H157.06C157.501 34.1166 157.845 34.0239 158.074 33.8385C158.304 33.6531 158.418 33.3835 158.418 33.0465C158.418 32.7094 158.304 32.4314 158.074 32.246Z" fill="#666666"/>
<path d="M161.092 30.8052H162.574V36.9729H161.092V30.8052Z" fill="#666666"/>
<path d="M165.38 36.6695C164.851 36.3999 164.436 36.0207 164.136 35.532C163.836 35.0433 163.686 34.4956 163.686 33.889C163.686 33.2823 163.836 32.7262 164.136 32.2459C164.436 31.7656 164.851 31.3865 165.38 31.1084C165.909 30.8388 166.501 30.6956 167.154 30.6956C167.709 30.6956 168.212 30.7882 168.653 30.9736C169.103 31.159 169.474 31.4286 169.783 31.7825L168.83 32.6251C168.398 32.1448 167.859 31.9005 167.224 31.9005C166.827 31.9005 166.474 31.9847 166.165 32.1532C165.857 32.3218 165.609 32.5577 165.442 32.8526C165.274 33.1475 165.177 33.493 165.177 33.8721C165.177 34.2513 165.265 34.5967 165.442 34.8916C165.618 35.1866 165.857 35.4225 166.165 35.591C166.474 35.7595 166.827 35.8438 167.224 35.8438C167.868 35.8438 168.398 35.5994 168.83 35.1107L169.783 35.9533C169.474 36.3156 169.103 36.5853 168.653 36.7706C168.203 36.956 167.701 37.0487 167.145 37.0487C166.492 37.0487 165.901 36.9139 165.38 36.6358V36.6695Z" fill="#666666"/>
<path d="M174.873 35.6501H171.9L171.335 36.9729H169.818L172.668 30.8052H174.132L176.991 36.9729H175.438L174.873 35.6501ZM174.406 34.5715L173.391 32.2123L172.377 34.5715H174.406Z" fill="#666666"/>
<path d="M66.085 39.4163H68.9878C69.6848 39.4163 70.2936 39.5427 70.8318 39.7954C71.3612 40.0482 71.7759 40.4105 72.0758 40.8739C72.367 41.3374 72.517 41.8766 72.517 42.4917C72.517 43.1068 72.367 43.6461 72.0758 44.1095C71.7759 44.5729 71.37 44.9352 70.8318 45.188C70.3024 45.4408 69.6848 45.5672 68.9878 45.5672H66.085V39.3994V39.4163ZM68.9172 44.4128C69.5613 44.4128 70.0642 44.2443 70.4524 43.8988C70.8318 43.5534 71.0259 43.09 71.0259 42.5001C71.0259 41.9103 70.8318 41.4469 70.4524 41.1014C70.073 40.756 69.5613 40.5875 68.9172 40.5875H67.5672V44.4128H68.9172Z" fill="#666666"/>
<path d="M73.8228 39.4163H75.305V45.584H73.8228V39.4163Z" fill="#666666"/>
<path d="M81.2168 44.2611H78.2434L77.6787 45.584H76.1611L79.011 39.4163H80.4756L83.3343 45.584H81.7814L81.2168 44.2611ZM80.7491 43.1742L79.7345 40.815L78.7198 43.1742H80.7491Z" fill="#666666"/>
<path d="M84.8164 45.4915C84.34 45.3567 83.9606 45.1882 83.6782 44.9775L84.1811 43.899C84.4547 44.0928 84.7811 44.2529 85.1605 44.3624C85.5399 44.4804 85.9193 44.5394 86.2899 44.5394C86.7134 44.5394 87.0222 44.4804 87.2251 44.3624C87.428 44.2445 87.5251 44.0844 87.5251 43.8821C87.5251 43.7389 87.4633 43.6125 87.3486 43.5198C87.2339 43.4271 87.0751 43.3429 86.8898 43.2839C86.7045 43.2249 86.4487 43.1575 86.1399 43.0901C85.6546 42.9806 85.2576 42.871 84.9399 42.7531C84.6311 42.6435 84.3664 42.4582 84.137 42.2138C83.9164 41.9695 83.8018 41.6409 83.8018 41.228C83.8018 40.8657 83.8988 40.5455 84.1017 40.2506C84.3047 39.9557 84.6046 39.7282 85.0105 39.5597C85.4164 39.3911 85.9105 39.3069 86.4928 39.3069C86.8987 39.3069 87.3045 39.3574 87.6927 39.4501C88.0809 39.5428 88.4251 39.6776 88.7162 39.8546L88.2574 40.9415C87.6663 40.6213 87.0751 40.4528 86.484 40.4528C86.0693 40.4528 85.7605 40.5202 85.5664 40.6466C85.3723 40.773 85.2664 40.9499 85.2664 41.1606C85.2664 41.3712 85.3811 41.5313 85.6105 41.6324C85.8399 41.7335 86.184 41.8347 86.6604 41.9358C87.1457 42.0453 87.5427 42.1633 87.8604 42.2728C88.1692 42.3823 88.4339 42.5593 88.6633 42.8036C88.8838 43.048 88.9986 43.3682 88.9986 43.781C88.9986 44.1349 88.8927 44.4551 88.6897 44.75C88.4868 45.0449 88.178 45.2724 87.7721 45.4409C87.3663 45.6094 86.8634 45.6937 86.281 45.6937C85.7781 45.6937 85.284 45.6263 84.8164 45.4915Z" fill="#666666"/>
<path d="M94.4421 39.6859C94.8568 39.8713 95.1833 40.124 95.4039 40.4611C95.6333 40.7981 95.7391 41.1941 95.7391 41.6491C95.7391 42.1041 95.6244 42.5001 95.4039 42.8372C95.1745 43.1742 94.8568 43.4354 94.4421 43.6124C94.0275 43.7893 93.5334 43.882 92.9687 43.882H91.6805V45.584H90.1982V39.4163H92.9687C93.5334 39.4163 94.0275 39.5089 94.4421 39.6859ZM93.9039 42.4412C94.1333 42.2558 94.248 41.9946 94.248 41.6491C94.248 41.3037 94.1333 41.034 93.9039 40.8487C93.6745 40.6633 93.3304 40.5706 92.8893 40.5706H91.6805V42.7108H92.8893C93.3304 42.7108 93.6745 42.6181 93.9039 42.4327V42.4412Z" fill="#666666"/>
<path d="M98.3777 45.2723C97.8483 44.9942 97.4248 44.6151 97.1248 44.1348C96.8248 43.6461 96.6748 43.1068 96.6748 42.5002C96.6748 41.8935 96.8248 41.3543 97.1248 40.8655C97.4248 40.3768 97.8395 39.9977 98.3777 39.7281C98.907 39.45 99.507 39.3152 100.178 39.3152C100.848 39.3152 101.439 39.45 101.969 39.7281C102.498 40.0061 102.913 40.3853 103.222 40.8655C103.53 41.3543 103.68 41.8935 103.68 42.5002C103.68 43.1068 103.53 43.6461 103.222 44.1348C102.913 44.6235 102.498 45.0027 101.969 45.2723C101.439 45.5503 100.839 45.6852 100.178 45.6852C99.5158 45.6852 98.9159 45.5503 98.3777 45.2723ZM101.192 44.2191C101.501 44.0505 101.739 43.8146 101.907 43.5197C102.075 43.2248 102.172 42.8793 102.172 42.5002C102.172 42.121 102.083 41.7755 101.907 41.4806C101.73 41.1773 101.492 40.9498 101.192 40.7813C100.883 40.6128 100.548 40.5285 100.169 40.5285C99.7894 40.5285 99.4453 40.6128 99.1453 40.7813C98.8365 40.9498 98.5982 41.1857 98.4306 41.4806C98.2541 41.784 98.1659 42.121 98.1659 42.5002C98.1659 42.8793 98.2541 43.2248 98.4306 43.5197C98.6071 43.823 98.8453 44.0505 99.1453 44.2191C99.4541 44.3876 99.7894 44.4718 100.169 44.4718C100.548 44.4718 100.883 44.3876 101.192 44.2191Z" fill="#666666"/>
<path d="M109.045 45.584L107.809 43.8651H107.739H106.451V45.584H104.968V39.4163H107.739C108.303 39.4163 108.797 39.5089 109.212 39.6859C109.627 39.8713 109.953 40.124 110.174 40.4611C110.403 40.7981 110.509 41.1941 110.509 41.6491C110.509 42.1041 110.394 42.5001 110.165 42.8372C109.936 43.1658 109.609 43.427 109.195 43.5955L110.633 45.5756H109.045V45.584ZM108.674 40.8571C108.445 40.6717 108.1 40.579 107.659 40.579H106.451V42.7276H107.659C108.1 42.7276 108.445 42.635 108.674 42.4496C108.903 42.2642 109.018 41.9946 109.018 41.6575C109.018 41.3205 108.903 41.0425 108.674 40.8571Z" fill="#666666"/>
<path d="M116.085 44.2611H113.112L112.547 45.584H111.03L113.88 39.4163H115.344L118.203 45.584H116.65L116.085 44.2611ZM115.618 43.1742L114.603 40.815L113.588 43.1742H115.618Z" fill="#666666"/>
<path d="M125.905 45.584L124.67 43.8651H124.6H123.311V45.584H121.829V39.4163H124.6C125.164 39.4163 125.658 39.5089 126.073 39.6859C126.488 39.8713 126.814 40.124 127.035 40.4611C127.264 40.7981 127.37 41.1941 127.37 41.6491C127.37 42.1041 127.255 42.5001 127.026 42.8372C126.797 43.1658 126.47 43.427 126.055 43.5955L127.494 45.5756H125.905V45.584ZM125.526 40.8571C125.297 40.6717 124.952 40.579 124.511 40.579H123.303V42.7276H124.511C124.952 42.7276 125.297 42.635 125.526 42.4496C125.755 42.2642 125.87 41.9946 125.87 41.6575C125.87 41.3205 125.755 41.0425 125.526 40.8571Z" fill="#666666"/>
<path d="M133.679 44.4381V45.584H128.72V39.4163H133.555V40.5622H130.194V41.9019H133.167V43.0141H130.194V44.4381H133.679Z" fill="#666666"/>
<path d="M135.046 39.4163H136.529V44.4212H139.74V45.584H135.055V39.4163H135.046Z" fill="#666666"/>
<path d="M145.016 44.2611H142.043L141.478 45.584H139.96L142.81 39.4163H144.275L147.134 45.584H145.581L145.016 44.2611ZM144.548 43.1742L143.534 40.815L142.519 43.1742H144.548Z" fill="#666666"/>
<path d="M148.996 40.579H146.949V39.4163H152.525V40.579H150.478V45.584H148.996V40.579Z" fill="#666666"/>
<path d="M153.495 39.4163H154.977V45.584H153.495V39.4163Z" fill="#666666"/>
<path d="M157.986 45.2723C157.457 44.9942 157.033 44.6151 156.733 44.1348C156.433 43.6461 156.283 43.1068 156.283 42.5002C156.283 41.8935 156.433 41.3543 156.733 40.8655C157.033 40.3768 157.448 39.9977 157.986 39.7281C158.515 39.45 159.115 39.3152 159.786 39.3152C160.457 39.3152 161.048 39.45 161.577 39.7281C162.106 40.0061 162.521 40.3853 162.83 40.8655C163.139 41.3543 163.289 41.8935 163.289 42.5002C163.289 43.1068 163.139 43.6461 162.83 44.1348C162.521 44.6235 162.106 45.0027 161.577 45.2723C161.048 45.5503 160.448 45.6852 159.786 45.6852C159.124 45.6852 158.524 45.5503 157.986 45.2723ZM160.801 44.2191C161.109 44.0505 161.348 43.8146 161.515 43.5197C161.683 43.2248 161.78 42.8793 161.78 42.5002C161.78 42.121 161.692 41.7755 161.515 41.4806C161.339 41.1773 161.101 40.9498 160.801 40.7813C160.492 40.6128 160.157 40.5285 159.777 40.5285C159.398 40.5285 159.054 40.6128 158.754 40.7813C158.445 40.9498 158.207 41.1857 158.039 41.4806C157.863 41.784 157.774 42.121 157.774 42.5002C157.774 42.8793 157.863 43.2248 158.039 43.5197C158.215 43.823 158.454 44.0505 158.754 44.2191C159.062 44.3876 159.398 44.4718 159.777 44.4718C160.157 44.4718 160.492 44.3876 160.801 44.2191Z" fill="#666666"/>
<path d="M170.445 39.4163V45.584H169.227L166.033 41.8345V45.584H164.568V39.4163H165.795L168.98 43.1658V39.4163H170.445Z" fill="#666666"/>
<path d="M172.783 45.4915C172.306 45.3567 171.927 45.1882 171.645 44.9775L172.147 43.899C172.421 44.0928 172.747 44.2529 173.127 44.3624C173.506 44.4804 173.886 44.5394 174.256 44.5394C174.68 44.5394 174.988 44.4804 175.191 44.3624C175.394 44.2445 175.491 44.0844 175.491 43.8821C175.491 43.7389 175.43 43.6125 175.315 43.5198C175.2 43.4271 175.041 43.3429 174.856 43.2839C174.671 43.2249 174.415 43.1575 174.106 43.0901C173.621 42.9806 173.224 42.871 172.906 42.7531C172.597 42.6435 172.333 42.4582 172.103 42.2138C171.883 41.9695 171.768 41.6409 171.768 41.228C171.768 40.8657 171.865 40.5455 172.068 40.2506C172.271 39.9557 172.571 39.7282 172.977 39.5597C173.383 39.3911 173.877 39.3069 174.459 39.3069C174.865 39.3069 175.271 39.3574 175.659 39.4501C176.047 39.5428 176.391 39.6776 176.683 39.8546L176.224 40.9415C175.633 40.6213 175.041 40.4528 174.45 40.4528C174.036 40.4528 173.727 40.5202 173.533 40.6466C173.339 40.773 173.233 40.9499 173.233 41.1606C173.233 41.3712 173.347 41.5313 173.577 41.6324C173.806 41.7335 174.15 41.8347 174.627 41.9358C175.112 42.0453 175.509 42.1633 175.827 42.2728C176.135 42.3823 176.4 42.5593 176.63 42.8036C176.85 43.048 176.965 43.3682 176.965 43.781C176.965 44.1349 176.859 44.4551 176.656 44.75C176.453 45.0449 176.144 45.2724 175.738 45.4409C175.333 45.6094 174.83 45.6937 174.247 45.6937C173.744 45.6937 173.25 45.6263 172.783 45.4915Z" fill="#666666"/>
</svg>