<svg width="138" height="94" viewBox="0 0 138 94" fill="none" xmlns="http://www.w3.org/2000/svg">
<g clip-path="url(#clip0_4841_797)">
<path d="M111.263 76.4302C111.263 79.6785 108.075 81.2213 108.075 81.2213C103.051 83.6103 96.6622 81.9113 94.9293 81.371C94.6577 81.2864 94.4766 81.0325 94.4766 80.7461V77.3871C94.4766 76.9249 94.9357 76.6189 95.369 76.7882C98.602 78.0706 103.051 77.7581 104.072 77.2634C105.404 76.632 104.648 75.6946 104.648 75.6946C104.059 74.9459 100.561 74.4772 100.561 74.4772C97.3088 73.9435 95.9962 72.6025 95.9962 72.6025C94.4249 71.3266 94.4249 69.0547 94.4249 69.0547C94.121 64.5109 97.4446 63.1764 97.4446 63.1764C102.385 61.0998 107.926 62.532 109.517 63.0267C109.788 63.1113 109.969 63.3652 109.969 63.6516V67.2385C109.937 67.5835 109.646 67.8504 109.291 67.8504C109.245 67.8504 109.2 67.8439 109.155 67.8374C109.109 67.8243 109.064 67.8113 109.025 67.7983C105.973 66.9065 103.355 66.8284 103.355 66.8284C99.2422 66.7437 100.05 68.5339 100.872 68.8854C101.583 69.1849 105.928 70.0702 105.928 70.0702C109 70.6951 111.263 72.6285 111.263 76.4302Z" fill="#2B00AC"/>
<path d="M129.859 76.4302C129.859 79.6785 126.672 81.2213 126.672 81.2213C121.647 83.6103 115.259 81.9113 113.526 81.371C113.254 81.2864 113.073 81.0325 113.073 80.7461V77.3871C113.073 76.9249 113.532 76.6189 113.966 76.7882C117.199 78.0706 121.647 77.7581 122.669 77.2634C124.001 76.632 123.245 75.6946 123.245 75.6946C122.656 74.9459 119.158 74.4772 119.158 74.4772C115.905 73.9435 114.593 72.6025 114.593 72.6025C113.022 71.3266 113.022 69.0547 113.022 69.0547C112.718 64.5109 116.041 63.1764 116.041 63.1764C120.981 61.0998 126.523 62.532 128.114 63.0267C128.385 63.1113 128.566 63.3652 128.566 63.6516V67.2385C128.534 67.5835 128.243 67.8504 127.887 67.8504C127.842 67.8504 127.797 67.8439 127.751 67.8374C127.706 67.8243 127.661 67.8113 127.622 67.7983C124.57 66.9065 121.951 66.8284 121.951 66.8284C117.839 66.7437 118.647 68.5339 119.468 68.8854C120.18 69.1849 124.525 70.0702 124.525 70.0702C127.596 70.6951 129.859 72.6285 129.859 76.4302Z" fill="#2B00AC"/>
<path d="M87.7189 62.656C81.1946 60.7031 75.3881 64.1207 74.6703 70.2853C73.959 76.45 76.0023 81.4495 82.559 82.2502C86.2641 82.7058 89.4519 82.0484 91.5081 81.3974C91.7732 81.3128 91.9543 81.0589 91.9543 80.779V77.2637C91.9543 76.8276 91.5404 76.5151 91.1266 76.6388C88.7147 77.3614 81.796 78.9823 80.9489 74.1456H92.7561C92.7561 74.1456 94.2562 64.5894 87.7189 62.656ZM87.0012 70.2853H80.9554C80.9554 70.2853 81.1752 67.2583 84.2143 67.2583C87.2534 67.2583 87.0012 70.2853 87.0012 70.2853Z" fill="#2B00AC"/>
<path d="M72.86 63.3525V81.1955C72.86 81.5536 72.5755 81.84 72.2198 81.84H67.9263C67.5707 81.84 67.2862 81.5536 67.2862 81.1955V80.3493C67.2862 80.3493 59.9148 84.88 55.9511 80.3883C54.5738 78.826 54.4639 74.3734 54.4639 74.3734V63.3525C54.4639 62.9944 54.7484 62.708 55.104 62.708H60.1928C60.5485 62.708 60.833 62.9944 60.833 63.3525V73.6052C60.833 73.6052 60.6196 76.7039 63.2255 76.7039C63.2255 76.7039 64.9842 76.9252 66.5167 75.3173V63.3525C66.5167 62.9944 66.8012 62.708 67.1569 62.708H72.2069C72.5625 62.708 72.8471 62.9944 72.8471 63.3525H72.86Z" fill="#2B00AC"/>
<path d="M137.25 62.708H132.206C131.849 62.708 131.56 62.9995 131.56 63.359V81.1955C131.56 81.5551 131.849 81.8465 132.206 81.8465H137.25C137.607 81.8465 137.896 81.5551 137.896 81.1955V63.359C137.896 62.9995 137.607 62.708 137.25 62.708Z" fill="#2B00AC"/>
<path d="M29.0457 56.6734L25.1854 72.5441L21.0729 56.6669C20.9953 56.3805 20.7432 56.1787 20.4457 56.1787H15.8677C15.5767 56.1787 15.3181 56.374 15.2405 56.6604L10.9858 72.4334L7.09317 56.6734C7.02204 56.3805 6.76339 56.1787 6.46595 56.1787H0.646442C0.206745 56.1787 -0.103629 56.6083 0.0256938 57.025L7.58459 81.2345C7.66865 81.5079 7.92083 81.6902 8.20534 81.6902H12.9967C13.2877 81.6902 13.5399 81.4949 13.624 81.215L17.9757 65.8326L22.3338 81.215C22.4114 81.4949 22.6701 81.6902 22.961 81.6902H27.7848C28.0693 81.6902 28.3214 81.5014 28.4055 81.2345L35.9256 57.025C36.0549 56.6018 35.7446 56.1787 35.3049 56.1787H29.6793C29.3819 56.1787 29.1232 56.387 29.0521 56.6734H29.0457Z" fill="#2B00AC"/>
<path d="M52.9578 72.8107C52.9578 78.0836 48.7096 82.3475 43.4849 82.3475C42.03 82.3475 40.6592 82.022 39.4307 81.4296C39.5277 81.384 39.6376 81.3319 39.7475 81.2668C41.8231 80.0625 44.2156 78.1487 46.4917 75.8508C48.341 73.989 50.6882 71.2484 52.0525 68.7422C52.628 69.979 52.9513 71.3591 52.9513 72.8107H52.9578Z" fill="#2B00AC"/>
<path d="M52.5313 63.691C51.5613 62.7275 49.8931 62.8838 47.52 64.1857C47.423 64.2378 47.3131 64.2964 47.2032 64.3615C45.1276 65.5658 42.7351 67.4926 40.459 69.7776C38.1765 72.0755 36.2625 74.4906 35.0792 76.5802C35.0145 76.6908 34.9628 76.7885 34.9046 76.8861C33.6114 79.2687 33.4497 80.9677 34.4132 81.9377C34.827 82.3543 35.3702 82.5626 36.0426 82.5626C36.9414 82.5626 38.073 82.1915 39.4244 81.4364C39.5214 81.3908 39.6313 81.3388 39.7413 81.2737C41.8169 80.0694 44.2094 78.1555 46.4854 75.8576C48.3347 73.9958 50.6819 71.2553 52.0463 68.749C53.152 66.6789 53.5982 64.7781 52.5248 63.6975L52.5313 63.691ZM44.9594 74.2953C41.7652 77.5111 38.9653 79.3598 37.31 80.0499C36.6828 80.3233 36.2237 80.4209 35.9715 80.3688C35.9198 80.128 36.0168 79.6593 36.2884 79.0213C36.9867 77.3679 38.8101 74.5231 41.9915 71.3203C45.1857 68.1046 47.9856 66.2558 49.6409 65.5658C50.2681 65.2924 50.7272 65.1947 50.9794 65.2468C50.9923 65.2924 50.9923 65.3314 50.9923 65.403C50.9923 65.6634 50.8824 66.067 50.669 66.5943C49.9707 68.2478 48.1472 71.0925 44.9659 74.2953H44.9594Z" fill="#2B00AC"/>
<path d="M34.1409 76.2416C34.0375 76.2416 33.934 76.2025 33.8888 76.1114C33.268 74.7964 32.9512 73.3838 32.9512 71.9127C32.9512 66.5031 37.3287 62.1025 42.7086 62.1025C44.1699 62.1025 45.573 62.4215 46.8792 63.0464C46.9762 63.092 47.0344 63.1831 47.0344 63.2873C47.0344 63.3915 46.9762 63.4891 46.8857 63.5347C44.7131 64.778 42.2559 66.7505 39.9152 69.107C37.5938 71.4374 35.6411 73.9111 34.406 76.0723C34.3543 76.157 34.2509 76.2351 34.1474 76.2351L34.1409 76.2416Z" fill="#2B00AC"/>
<path d="M12.5315 93.844H10.9279L10.1067 92.3272C10.0615 92.2361 10.0162 92.1579 9.97096 92.0798C9.9257 92.0017 9.88043 91.9366 9.82871 91.8845C9.77698 91.8325 9.71878 91.7869 9.64765 91.7543C9.58299 91.7218 9.49247 91.7088 9.38901 91.7088H9.00104V93.844H7.58496V88.3628H9.00104V90.4198H9.35021C9.5442 90.4198 9.69292 90.3678 9.79638 90.2636C9.9063 90.1595 10.0098 90.0162 10.1132 89.8405L10.9926 88.3628H12.4927L11.2383 90.498C11.1737 90.6021 11.109 90.6998 11.0314 90.7909C10.9538 90.882 10.8698 90.9536 10.7663 90.9992C10.9021 91.0643 11.0185 91.1685 11.1155 91.3052C11.2125 91.4419 11.303 91.5851 11.3806 91.7283L12.5315 93.844Z" fill="#2B00AC"/>
<path d="M22.412 92.7243V93.844H18.5518V88.3628H22.3668V89.4825H19.9678V90.5045H22.1793V91.6241H19.9678V92.7243H22.412Z" fill="#2B00AC"/>
<path d="M31.6514 91.9298V93.8436H30.2353V91.9623L28.2373 88.3625H29.9508L30.5328 89.6319C30.6039 89.7946 30.6815 89.9639 30.7656 90.1461C30.8432 90.3284 30.9143 90.4976 30.9725 90.6474C31.0307 90.4976 31.1018 90.3284 31.1859 90.1396C31.2699 89.9573 31.3475 89.7816 31.4186 89.6188L31.9941 88.356H33.6688L31.6644 91.9298H31.6514Z" fill="#2B00AC"/>
<path d="M50.6681 89.5931H48.9546V93.844H47.5385V89.5931H45.8379V88.3628H50.6681V89.5931Z" fill="#2B00AC"/>
<path d="M59.1067 88.2065C59.54 88.2065 59.9215 88.2716 60.2642 88.4018C60.6069 88.532 60.8979 88.7208 61.1371 88.9682C61.3763 89.2155 61.5574 89.5215 61.6803 89.8795C61.8031 90.2376 61.8678 90.6412 61.8678 91.0903C61.8678 91.546 61.8031 91.9496 61.6803 92.3142C61.5574 92.6722 61.3763 92.9782 61.1371 93.232C60.8979 93.4859 60.6069 93.6747 60.2642 93.8049C59.9215 93.9351 59.5335 94.0067 59.1067 94.0067C58.6735 94.0067 58.292 93.9416 57.9493 93.8114C57.6066 93.6812 57.3156 93.4924 57.0828 93.2451C56.8436 92.9977 56.6625 92.6982 56.5397 92.3402C56.4104 91.9822 56.3457 91.5786 56.3457 91.1229C56.3457 90.6672 56.4104 90.2636 56.5397 89.8991C56.669 89.541 56.8501 89.2351 57.0828 88.9812C57.3156 88.7273 57.6066 88.5385 57.9493 88.4083C58.292 88.2781 58.68 88.2065 59.1067 88.2065ZM59.1067 89.4173C58.6929 89.4173 58.3631 89.5606 58.1304 89.8535C57.8911 90.1464 57.7747 90.5631 57.7747 91.0968C57.7747 91.6306 57.8911 92.0538 58.1304 92.3467C58.3696 92.6396 58.6929 92.7829 59.1067 92.7829C59.5141 92.7829 59.8374 92.6396 60.0767 92.3467C60.3159 92.0538 60.4323 91.6437 60.4323 91.0968C60.4323 90.55 60.3159 90.1464 60.0767 89.8535C59.8374 89.5606 59.5141 89.4173 59.1067 89.4173Z" fill="#2B00AC"/>
<path d="M77.419 88.3628C78.3307 88.3628 79.0225 88.5971 79.4881 89.0723C79.9537 89.5476 80.1865 90.2246 80.1865 91.1034C80.1865 91.9822 79.9537 92.6657 79.4881 93.1344C79.0225 93.6096 78.3307 93.844 77.419 93.844H75.2334V88.3628H77.419ZM77.3543 92.6462C78.2919 92.6462 78.7639 92.1319 78.7639 91.1034C78.7639 90.0748 78.2919 89.5606 77.3543 89.5606H76.6559V92.6462H77.3543Z" fill="#2B00AC"/>
<path d="M87.8936 88.3628H86.4775V93.844H87.8936V88.3628Z" fill="#2B00AC"/>
<path d="M99.0348 90.7385V93.6613C98.7567 93.759 98.4399 93.8436 98.0972 93.9022C97.7545 93.9673 97.3859 93.9933 96.9979 93.9933C96.5453 93.9933 96.1444 93.9282 95.7952 93.798C95.4461 93.6678 95.1486 93.4791 94.9094 93.2317C94.6701 92.9843 94.4891 92.6849 94.3662 92.3334C94.2434 91.9753 94.1787 91.5782 94.1787 91.1291C94.1787 90.6929 94.2369 90.2893 94.3598 89.9313C94.4826 89.5732 94.6701 89.2608 94.9223 89.0069C95.1745 88.753 95.4913 88.5512 95.8728 88.4145C96.2543 88.2713 96.707 88.1997 97.2243 88.1997C97.5217 88.1997 97.7868 88.2192 98.0261 88.2648C98.2653 88.3039 98.5175 88.369 98.7826 88.4601V89.6969C98.5304 89.5993 98.2912 89.5212 98.0519 89.4756C97.8127 89.4235 97.5476 89.404 97.2501 89.404C96.6876 89.404 96.2673 89.5537 96.0022 89.8597C95.7371 90.1656 95.6077 90.5757 95.6077 91.0965C95.6077 91.6173 95.7306 92.0339 95.9763 92.3399C96.222 92.6458 96.6035 92.8021 97.1337 92.8021C97.3213 92.8021 97.5217 92.7825 97.7416 92.737V91.8451H96.8234V90.7385H99.0348Z" fill="#2B00AC"/>
<path d="M106.82 88.3628H105.404V93.844H106.82V88.3628Z" fill="#2B00AC"/>
<path d="M117.741 89.5931H116.034V93.844H114.618V89.5931H112.911V88.3628H117.741V89.5931Z" fill="#2B00AC"/>
<path d="M126.374 92.9131H124.531L124.227 93.844H122.733L124.828 88.3628H126.122L128.217 93.844H126.691L126.38 92.9131H126.374ZM126.038 91.878L125.449 90.1074L124.874 91.878H126.038Z" fill="#2B00AC"/>
<path d="M138 92.6136V93.844H134.23V88.3628H135.647V92.6136H138Z" fill="#2B00AC"/>
<path d="M100.529 0H37.4715C34.594 0 32.2598 2.34349 32.2598 5.2403V43.8819C32.2598 46.7722 34.594 49.1222 37.4715 49.1222H100.529C103.407 49.1222 105.741 46.7722 105.741 43.8819V5.2403C105.741 2.34349 103.407 0 100.529 0ZM69.537 25.4073L61.1763 40.3601C59.7343 42.964 55.8934 42.5278 55.0464 39.6766L48.9553 18.9758H42.8448C41.0214 18.9237 39.5536 17.4069 39.5536 15.5517C39.5536 13.6964 41.0214 12.1861 42.8448 12.1341H51.3672C52.9643 12.1341 54.3739 13.2017 54.833 14.738L59.2558 29.7688L63.5429 22.0288C64.4934 20.3037 66.8018 19.7765 68.3472 20.7724C69.8991 21.7749 70.4293 23.7929 69.5305 25.4073H69.537ZM98.0267 12.2317L85.088 35.3021C83.646 37.906 79.7987 37.4698 78.9581 34.6186L72.867 13.9177H66.7501C64.9266 13.8657 63.4653 12.3489 63.4653 10.4936C63.4653 8.63837 64.9331 7.12812 66.7501 7.07604H75.2789C76.876 7.07604 78.2856 8.14363 78.7447 9.67992L83.1676 24.7108L91.955 8.84668C92.5628 7.74654 94.2893 6.33393 96.63 7.4536C98.0978 8.16316 99.0225 10.435 98.0202 12.2252L98.0267 12.2317Z" fill="#2B00AC"/>
</g>
<rect x="0.5" y="0.5" width="137" height="93" stroke="none"/>
<defs>
<clipPath id="clip0_4841_797">
<rect width="138" height="95" fill="none"/>
</clipPath>
</defs>
</svg>

